<svg id="enlace" xmlns="http://www.w3.org/2000/svg" width="188.497" height="173.308" viewBox="0 0 188.497 173.308">
  <path id="Trazado_107007" data-name="Trazado 107007" d="M10,77.395H172.287v83.4a29.946,29.946,0,0,0-38.892,38.892H10Zm0,0" transform="translate(-6.318 -48.901)" fill="#f8f8f8" fill-rule="evenodd"/>
  <path id="Trazado_107008" data-name="Trazado 107008" d="M10,10H172.287V34.812H10Zm0,0" transform="translate(-6.318 -6.318)" fill="#a9ebf4" fill-rule="evenodd"/>
  <path id="Trazado_107009" data-name="Trazado 107009" d="M68.763,153.352H92.918a14.4,14.4,0,0,1,14.362,14.361v5.794a14.4,14.4,0,0,1-14.362,14.361H68.763A14.4,14.4,0,0,1,54.4,173.507v-5.794A14.4,14.4,0,0,1,68.763,153.352Zm75.74,0h24.155a14.4,14.4,0,0,1,14.361,14.361v5.794a14.4,14.4,0,0,1-14.361,14.361H144.5a14.4,14.4,0,0,1-14.361-14.361v-5.794A14.4,14.4,0,0,1,144.5,153.352Zm0,0" transform="translate(-34.374 -96.894)" fill="#ffca28" fill-rule="evenodd"/>
  <path id="Trazado_107010" data-name="Trazado 107010" d="M369.336,358.011a29.929,29.929,0,1,0-29.93-29.929A29.987,29.987,0,0,0,369.336,358.011Zm0,0" transform="translate(-214.451 -188.385)" fill="#4dd0e1" fill-rule="evenodd"/>
  <path id="Trazado_107011" data-name="Trazado 107011" d="M319.214,33.7h-5.075a3.682,3.682,0,0,0,0,7.363h5.075a3.682,3.682,0,0,0,0-7.363Zm0,0" transform="translate(-196.16 -21.29)" fill-rule="evenodd"/>
  <path id="Trazado_107012" data-name="Trazado 107012" d="M401.667,33.7h-5.075a3.682,3.682,0,0,0,0,7.363h5.075a3.682,3.682,0,0,0,0-7.363Zm0,0" transform="translate(-248.257 -21.29)" fill-rule="evenodd"/>
  <path id="Trazado_107013" data-name="Trazado 107013" d="M360.442,33.7h-5.077a3.682,3.682,0,0,0,0,7.363h5.077a3.682,3.682,0,1,0,0-7.363Zm0,0" transform="translate(-222.208 -21.29)" fill-rule="evenodd"/>
  <path id="Trazado_107014" data-name="Trazado 107014" d="M120.161,167.972a18.064,18.064,0,0,0,18.024,17.259h24.153a18.064,18.064,0,0,0,18.044-18.043v-5.794a18.064,18.064,0,0,0-18.044-18.043H138.185a18.064,18.064,0,0,0-18.024,17.257H104.622A18.062,18.062,0,0,0,86.6,143.352H62.445A18.064,18.064,0,0,0,44.4,161.394v5.794a18.063,18.063,0,0,0,18.043,18.043H86.6a18.062,18.062,0,0,0,18.022-17.259Zm18.024-17.257H162.34a10.691,10.691,0,0,1,10.679,10.679v5.794a10.691,10.691,0,0,1-10.679,10.679H138.185a10.691,10.691,0,0,1-10.648-9.9h11.294a3.682,3.682,0,1,0,0-7.363H127.537A10.691,10.691,0,0,1,138.185,150.715ZM86.6,177.868H62.445a10.691,10.691,0,0,1-10.679-10.679v-5.794a10.691,10.691,0,0,1,10.679-10.679H86.6a10.69,10.69,0,0,1,10.648,9.894H85.954a3.682,3.682,0,1,0,0,7.363H97.247A10.691,10.691,0,0,1,86.6,177.868Zm0,0" transform="translate(-28.055 -90.576)" fill-rule="evenodd"/>
  <path id="Trazado_107015" data-name="Trazado 107015" d="M169.65,109.508V3.682A3.681,3.681,0,0,0,165.969,0H3.682A3.681,3.681,0,0,0,0,3.682v147.1a3.681,3.681,0,0,0,3.682,3.682H50.653a3.682,3.682,0,1,0,0-7.363H7.363V32.175H162.287v74.733A33.622,33.622,0,0,0,122.1,147.1H80.106a3.682,3.682,0,1,0,0,7.363H124.7a33.608,33.608,0,1,0,44.954-44.954ZM7.363,24.812V7.363H162.287V24.812ZM154.885,165.944A26.248,26.248,0,1,1,181.134,139.7,26.277,26.277,0,0,1,154.885,165.944Zm0,0" fill-rule="evenodd"/>
  <path id="Trazado_107016" data-name="Trazado 107016" d="M401.161,350.037,383.99,367.209l-7.284-7.283a3.682,3.682,0,0,0-5.207,5.206l9.887,9.887a3.682,3.682,0,0,0,5.207,0l19.774-19.774a3.682,3.682,0,0,0-5.206-5.207Zm0,0" transform="translate(-234.047 -220.487)" fill-rule="evenodd"/>
  <path id="Trazado_107017" data-name="Trazado 107017" d="M171.268,399.555a3.682,3.682,0,1,0,3.682,3.682A3.689,3.689,0,0,0,171.268,399.555Zm0,0" transform="translate(-105.888 -252.455)" fill-rule="evenodd"/>
</svg>
