<svg id="Layer_46" xmlns="http://www.w3.org/2000/svg" width="187.099" height="187.099" viewBox="0 0 187.099 187.099">
  <g id="Grupo_99904" data-name="Grupo 99904" transform="translate(0 0)">
    <g id="Grupo_99791" data-name="Grupo 99791" transform="translate(102.085 77.482)">
      <g id="Grupo_99790" data-name="Grupo 99790">
        <path id="Trazado_106940" data-name="Trazado 106940" d="M172.737,106.015v73.1a3.226,3.226,0,0,1-3.226,3.226H139.679v28.234a3.226,3.226,0,0,0,3.226,3.226H219.64a3.226,3.226,0,0,0,3.226-3.226V106.015Z" transform="translate(-139.679 -106.015)" fill="#edf4fc"/>
      </g>
    </g>
    <g id="Grupo_99793" data-name="Grupo 99793" transform="translate(135.143 64.747)">
      <g id="Grupo_99792" data-name="Grupo 99792">
        <path id="Trazado_106941" data-name="Trazado 106941" d="M231.814,88.59h-46.9v12.735H235.04V91.816A3.226,3.226,0,0,0,231.814,88.59Z" transform="translate(-184.911 -88.59)" fill="#5290db"/>
      </g>
    </g>
    <g id="Grupo_99795" data-name="Grupo 99795" transform="translate(110.06 160.423)">
      <g id="Grupo_99794" data-name="Grupo 99794">
        <path id="Trazado_106942" data-name="Trazado 106942" d="M215.945,219.5h-63.47a1.884,1.884,0,0,0-1.884,1.884v13.041a1.884,1.884,0,0,0,1.884,1.884h63.47a1.884,1.884,0,0,0,1.884-1.884V221.384A1.885,1.885,0,0,0,215.945,219.5Z" transform="translate(-150.59 -219.5)" fill="#9be5f9"/>
      </g>
    </g>
    <g id="Grupo_99797" data-name="Grupo 99797" transform="translate(134.195 136.061)">
      <g id="Grupo_99796" data-name="Grupo 99796">
        <path id="Trazado_106943" data-name="Trazado 106943" d="M224.833,186.167H184.562v14.526a3.213,3.213,0,0,1-.949,2.284h41.22a1.884,1.884,0,0,0,1.884-1.884V188.051A1.885,1.885,0,0,0,224.833,186.167Z" transform="translate(-183.613 -186.167)" fill="#9be5f9"/>
      </g>
    </g>
    <g id="Grupo_99799" data-name="Grupo 99799" transform="translate(135.143 111.699)">
      <g id="Grupo_99798" data-name="Grupo 99798">
        <path id="Trazado_106944" data-name="Trazado 106944" d="M225.182,152.833H184.911v16.81h40.271a1.884,1.884,0,0,0,1.884-1.884V154.717A1.885,1.885,0,0,0,225.182,152.833Z" transform="translate(-184.911 -152.833)" fill="#9be5f9"/>
      </g>
    </g>
    <g id="Grupo_99801" data-name="Grupo 99801" transform="translate(135.143 87.337)">
      <g id="Grupo_99800" data-name="Grupo 99800">
        <path id="Trazado_106945" data-name="Trazado 106945" d="M225.182,119.5H184.911v16.81h40.271a1.884,1.884,0,0,0,1.884-1.884V121.384a1.885,1.885,0,0,0-1.884-1.884Z" transform="translate(-184.911 -119.5)" fill="#9be5f9"/>
      </g>
    </g>
    <g id="Grupo_99803" data-name="Grupo 99803" transform="translate(51.956 46.022)">
      <g id="Grupo_99802" data-name="Grupo 99802">
        <path id="Trazado_106946" data-name="Trazado 106946" d="M104.147,62.97v73.105a3.226,3.226,0,0,1-3.226,3.226H71.089v28.234a3.226,3.226,0,0,0,3.226,3.226H151.05a3.226,3.226,0,0,0,3.226-3.226V62.97Z" transform="translate(-71.089 -62.97)" fill="#edf4fc"/>
      </g>
    </g>
    <g id="Grupo_99805" data-name="Grupo 99805" transform="translate(110.059 160.423)">
      <g id="Grupo_99804" data-name="Grupo 99804">
        <path id="Trazado_106947" data-name="Trazado 106947" d="M167.334,219.5H152.473a1.884,1.884,0,0,0-1.884,1.884v13.041a1.884,1.884,0,0,0,1.884,1.884h14.861Z" transform="translate(-150.589 -219.5)" fill="#70d6f9"/>
      </g>
    </g>
    <g id="Grupo_99807" data-name="Grupo 99807" transform="translate(1.827 14.562)">
      <g id="Grupo_99806" data-name="Grupo 99806">
        <path id="Trazado_106948" data-name="Trazado 106948" d="M2.5,19.925V124.489a3.226,3.226,0,0,0,3.226,3.226H82.461a3.226,3.226,0,0,0,3.226-3.226V19.925Z" transform="translate(-2.5 -19.925)" fill="#fcdd86"/>
      </g>
    </g>
    <g id="Grupo_99809" data-name="Grupo 99809" transform="translate(85.015 33.287)">
      <g id="Grupo_99808" data-name="Grupo 99808">
        <path id="Trazado_106949" data-name="Trazado 106949" d="M163.225,45.545h-46.9V58.28h50.129V48.771a3.226,3.226,0,0,0-3.226-3.226Z" transform="translate(-116.322 -45.545)" fill="#5290db"/>
      </g>
    </g>
    <g id="Grupo_99811" data-name="Grupo 99811" transform="translate(63.219 122.309)">
      <g id="Grupo_99810" data-name="Grupo 99810">
        <path id="Trazado_106950" data-name="Trazado 106950" d="M88.084,181.358h15.834a1.584,1.584,0,0,0,1.584-1.584V167.35a3.146,3.146,0,0,1-.433.044H86.5v12.38A1.584,1.584,0,0,0,88.084,181.358Z" transform="translate(-86.5 -167.35)" fill="#fc657e"/>
      </g>
    </g>
    <g id="Grupo_99813" data-name="Grupo 99813" transform="translate(10.424 51.806)">
      <g id="Grupo_99812" data-name="Grupo 99812">
        <path id="Trazado_106951" data-name="Trazado 106951" d="M16.729,82.5H77.79a2.466,2.466,0,0,0,2.466-2.466V73.35a2.466,2.466,0,0,0-2.466-2.466H16.729a2.466,2.466,0,0,0-2.466,2.466v6.688A2.466,2.466,0,0,0,16.729,82.5Z" transform="translate(-14.263 -70.884)" fill="#edf4fc"/>
      </g>
    </g>
    <g id="Grupo_99815" data-name="Grupo 99815" transform="translate(10.424 70.808)">
      <g id="Grupo_99814" data-name="Grupo 99814">
        <path id="Trazado_106952" data-name="Trazado 106952" d="M77.79,96.884H16.729a2.466,2.466,0,0,0-2.466,2.466v6.688a2.466,2.466,0,0,0,2.466,2.466H77.79a2.466,2.466,0,0,0,2.466-2.466V99.35A2.466,2.466,0,0,0,77.79,96.884Z" transform="translate(-14.263 -96.884)" fill="#edf4fc"/>
      </g>
    </g>
    <g id="Grupo_99817" data-name="Grupo 99817" transform="translate(31.815 90.688)">
      <g id="Grupo_99816" data-name="Grupo 99816">
        <path id="Trazado_106953" data-name="Trazado 106953" d="M61.548,124.084H48.725a5.194,5.194,0,1,0,0,10.388H61.548a5.194,5.194,0,0,0,0-10.388Z" transform="translate(-43.531 -124.084)" fill="#87d147"/>
      </g>
    </g>
    <g id="Grupo_99819" data-name="Grupo 99819" transform="translate(10.424 70.808)">
      <g id="Grupo_99818" data-name="Grupo 99818">
        <path id="Trazado_106954" data-name="Trazado 106954" d="M27.592,96.884H16.729a2.466,2.466,0,0,0-2.466,2.466v6.688a2.466,2.466,0,0,0,2.466,2.466H27.592Z" transform="translate(-14.263 -96.884)" fill="#9be5f9"/>
      </g>
    </g>
    <g id="Grupo_99821" data-name="Grupo 99821" transform="translate(10.424 51.806)">
      <g id="Grupo_99820" data-name="Grupo 99820">
        <path id="Trazado_106955" data-name="Trazado 106955" d="M27.592,70.884H16.729a2.466,2.466,0,0,0-2.466,2.466v6.688A2.466,2.466,0,0,0,16.729,82.5H27.592Z" transform="translate(-14.263 -70.884)" fill="#9be5f9"/>
      </g>
    </g>
    <g id="Grupo_99823" data-name="Grupo 99823" transform="translate(1.827 1.827)">
      <g id="Grupo_99822" data-name="Grupo 99822">
        <path id="Trazado_106956" data-name="Trazado 106956" d="M82.461,2.5H5.726A3.226,3.226,0,0,0,2.5,5.726v9.509H85.687V5.726A3.226,3.226,0,0,0,82.461,2.5Z" transform="translate(-2.5 -2.5)" fill="#5290db"/>
      </g>
    </g>
    <g id="Grupo_99825" data-name="Grupo 99825" transform="translate(1.827 1.827)">
      <g id="Grupo_99824" data-name="Grupo 99824">
        <path id="Trazado_106957" data-name="Trazado 106957" d="M16.145,2.5H5.726A3.226,3.226,0,0,0,2.5,5.726v9.509H16.145Z" transform="translate(-2.5 -2.5)" fill="#fc657e"/>
      </g>
    </g>
    <g id="Grupo_99827" data-name="Grupo 99827" transform="translate(124.976 9.711)">
      <g id="Grupo_99826" data-name="Grupo 99826">
        <path id="Trazado_106958" data-name="Trazado 106958" d="M184.759,19.945a8.319,8.319,0,0,1-6.668-6.532.15.15,0,0,0-.3,0,8.319,8.319,0,0,1-6.668,6.532.146.146,0,0,0,0,.29,8.319,8.319,0,0,1,6.668,6.532.15.15,0,0,0,.3,0,8.319,8.319,0,0,1,6.668-6.532A.146.146,0,0,0,184.759,19.945Z" transform="translate(-170.999 -13.288)" fill="#f5c84c"/>
      </g>
    </g>
    <g id="Grupo_99829" data-name="Grupo 99829" transform="translate(141.599 50.429)">
      <g id="Grupo_99828" data-name="Grupo 99828">
        <path id="Trazado_106959" data-name="Trazado 106959" d="M201.863,72.927a4.908,4.908,0,0,1-3.934-3.855.089.089,0,0,0-.175,0,4.908,4.908,0,0,1-3.935,3.855.086.086,0,0,0,0,.171,4.91,4.91,0,0,1,3.935,3.855.089.089,0,0,0,.175,0,4.908,4.908,0,0,1,3.934-3.855A.086.086,0,0,0,201.863,72.927Z" transform="translate(-193.744 -68.999)" fill="#fc657e"/>
      </g>
    </g>
    <g id="Grupo_99831" data-name="Grupo 99831" transform="translate(29.443 138.678)">
      <g id="Grupo_99830" data-name="Grupo 99830">
        <path id="Trazado_106960" data-name="Trazado 106960" d="M42.592,193.758h1.7v-1.7a2.307,2.307,0,0,1,4.615,0v1.7h1.7a2.307,2.307,0,0,1,0,4.615h-1.7v1.7a2.307,2.307,0,0,1-4.615,0v-1.7h-1.7a2.307,2.307,0,0,1,0-4.615Z" transform="translate(-40.285 -189.748)" fill="#70d6f9"/>
      </g>
    </g>
    <g id="Grupo_99833" data-name="Grupo 99833" transform="translate(145.692 24.113)">
      <g id="Grupo_99832" data-name="Grupo 99832">
        <circle id="Elipse_1743" data-name="Elipse 1743" cx="2.468" cy="2.468" r="2.468" fill="#87d147"/>
      </g>
    </g>
    <g id="Grupo_99835" data-name="Grupo 99835" transform="translate(17.792 130.087)">
      <g id="Grupo_99834" data-name="Grupo 99834">
        <circle id="Elipse_1744" data-name="Elipse 1744" cx="2.468" cy="2.468" r="2.468" fill="#f5c84c"/>
      </g>
    </g>
    <g id="Grupo_99837" data-name="Grupo 99837" transform="translate(100.258 75.655)">
      <g id="Grupo_99836" data-name="Grupo 99836">
        <path id="Trazado_106961" data-name="Trazado 106961" d="M218.967,214.96H142.232a5.059,5.059,0,0,1-5.053-5.053V182.185a1.827,1.827,0,1,1,3.654,0v27.721a1.4,1.4,0,0,0,1.4,1.4h76.735a1.4,1.4,0,0,0,1.4-1.4V105.342a1.827,1.827,0,0,1,3.654,0V209.906A5.059,5.059,0,0,1,218.967,214.96Z" transform="translate(-137.179 -103.515)"/>
      </g>
    </g>
    <g id="Grupo_99839" data-name="Grupo 99839" transform="translate(22.135 6.367)">
      <g id="Grupo_99838" data-name="Grupo 99838">
        <path id="Trazado_106962" data-name="Trazado 106962" d="M71.637,12.366H32.113a1.827,1.827,0,1,1,0-3.654H71.637a1.827,1.827,0,0,1,0,3.654Z" transform="translate(-30.286 -8.712)"/>
      </g>
    </g>
    <g id="Grupo_99841" data-name="Grupo 99841" transform="translate(69.484 6.367)">
      <g id="Grupo_99840" data-name="Grupo 99840">
        <path id="Trazado_106963" data-name="Trazado 106963" d="M103.5,12.366H96.9a1.827,1.827,0,0,1,0-3.654h6.6a1.827,1.827,0,0,1,0,3.654Z" transform="translate(-95.072 -8.712)"/>
      </g>
    </g>
    <g id="Grupo_99843" data-name="Grupo 99843" transform="translate(83.957 37.827)">
      <g id="Grupo_99842" data-name="Grupo 99842">
        <path id="Trazado_106964" data-name="Trazado 106964" d="M144.532,55.411H116.7a1.827,1.827,0,1,1,0-3.654h27.83a1.827,1.827,0,1,1,0,3.654Z" transform="translate(-114.875 -51.757)"/>
      </g>
    </g>
    <g id="Grupo_99845" data-name="Grupo 99845" transform="translate(119.613 37.827)">
      <g id="Grupo_99844" data-name="Grupo 99844">
        <path id="Trazado_106965" data-name="Trazado 106965" d="M172.089,55.411h-6.6a1.827,1.827,0,0,1,0-3.654h6.6a1.827,1.827,0,1,1,0,3.654Z" transform="translate(-163.661 -51.757)"/>
      </g>
    </g>
    <g id="Grupo_99847" data-name="Grupo 99847" transform="translate(134.086 69.287)">
      <g id="Grupo_99846" data-name="Grupo 99846">
        <path id="Trazado_106966" data-name="Trazado 106966" d="M213.122,98.456h-27.83a1.827,1.827,0,1,1,0-3.654h27.83a1.827,1.827,0,0,1,0,3.654Z" transform="translate(-183.465 -94.802)"/>
      </g>
    </g>
    <g id="Grupo_99849" data-name="Grupo 99849" transform="translate(169.741 69.287)">
      <g id="Grupo_99848" data-name="Grupo 99848">
        <path id="Trazado_106967" data-name="Trazado 106967" d="M240.678,98.456h-6.6a1.827,1.827,0,1,1,0-3.654h6.6a1.827,1.827,0,1,1,0,3.654Z" transform="translate(-232.25 -94.802)"/>
      </g>
    </g>
    <g id="Grupo_99851" data-name="Grupo 99851" transform="translate(90.716 61.607)">
      <g id="Grupo_99850" data-name="Grupo 99850">
        <path id="Trazado_106968" data-name="Trazado 106968" d="M158.933,87.949H125.95a1.827,1.827,0,0,1,0-3.654h32.983a1.827,1.827,0,0,1,0,3.654Z" transform="translate(-124.123 -84.295)"/>
      </g>
    </g>
    <g id="Grupo_99853" data-name="Grupo 99853" transform="translate(90.716 69.17)">
      <g id="Grupo_99852" data-name="Grupo 99852">
        <path id="Trazado_106969" data-name="Trazado 106969" d="M158.933,98.3H125.95a1.827,1.827,0,0,1,0-3.654h32.983a1.827,1.827,0,0,1,0,3.654Z" transform="translate(-124.123 -94.642)"/>
      </g>
    </g>
    <g id="Grupo_99855" data-name="Grupo 99855" transform="translate(90.716 76.731)">
      <g id="Grupo_99854" data-name="Grupo 99854">
        <path id="Trazado_106970" data-name="Trazado 106970" d="M158.933,108.642H125.95a1.827,1.827,0,1,1,0-3.654h32.983a1.827,1.827,0,1,1,0,3.654Z" transform="translate(-124.123 -104.988)"/>
      </g>
    </g>
    <g id="Grupo_99857" data-name="Grupo 99857" transform="translate(90.716 90.111)">
      <g id="Grupo_99856" data-name="Grupo 99856">
        <path id="Trazado_106971" data-name="Trazado 106971" d="M158.933,126.949H125.95a1.827,1.827,0,0,1,0-3.654h32.983a1.827,1.827,0,0,1,0,3.654Z" transform="translate(-124.123 -123.295)"/>
      </g>
    </g>
    <g id="Grupo_99859" data-name="Grupo 99859" transform="translate(90.716 97.673)">
      <g id="Grupo_99858" data-name="Grupo 99858">
        <path id="Trazado_106972" data-name="Trazado 106972" d="M158.933,137.3H125.95a1.827,1.827,0,0,1,0-3.654h32.983a1.827,1.827,0,0,1,0,3.654Z" transform="translate(-124.123 -133.642)"/>
      </g>
    </g>
    <g id="Grupo_99861" data-name="Grupo 99861" transform="translate(90.716 105.234)">
      <g id="Grupo_99860" data-name="Grupo 99860">
        <path id="Trazado_106973" data-name="Trazado 106973" d="M158.933,147.642H125.95a1.827,1.827,0,0,1,0-3.654h32.983a1.827,1.827,0,0,1,0,3.654Z" transform="translate(-124.123 -143.988)"/>
      </g>
    </g>
    <g id="Grupo_99863" data-name="Grupo 99863" transform="translate(90.716 117.153)">
      <g id="Grupo_99862" data-name="Grupo 99862">
        <path id="Trazado_106974" data-name="Trazado 106974" d="M158.933,163.949H125.95a1.827,1.827,0,0,1,0-3.654h32.983a1.827,1.827,0,0,1,0,3.654Z" transform="translate(-124.123 -160.295)"/>
      </g>
    </g>
    <g id="Grupo_99865" data-name="Grupo 99865" transform="translate(90.716 124.715)">
      <g id="Grupo_99864" data-name="Grupo 99864">
        <path id="Trazado_106975" data-name="Trazado 106975" d="M158.933,174.3H125.95a1.827,1.827,0,0,1,0-3.654h32.983a1.827,1.827,0,0,1,0,3.654Z" transform="translate(-124.123 -170.642)"/>
      </g>
    </g>
    <g id="Grupo_99867" data-name="Grupo 99867" transform="translate(90.716 132.276)">
      <g id="Grupo_99866" data-name="Grupo 99866">
        <path id="Trazado_106976" data-name="Trazado 106976" d="M158.933,184.642H125.95a1.827,1.827,0,0,1,0-3.654h32.983a1.827,1.827,0,0,1,0,3.654Z" transform="translate(-124.123 -180.988)"/>
      </g>
    </g>
    <g id="Grupo_99869" data-name="Grupo 99869" transform="translate(30.803 34.564)">
      <g id="Grupo_99868" data-name="Grupo 99868">
        <path id="Trazado_106977" data-name="Trazado 106977" d="M65.555,50.946H43.973a1.827,1.827,0,0,1,0-3.654H65.555a1.827,1.827,0,0,1,0,3.654Z" transform="translate(-42.146 -47.292)"/>
      </g>
    </g>
    <g id="Grupo_99871" data-name="Grupo 99871" transform="translate(133.769 62.919)">
      <g id="Grupo_99870" data-name="Grupo 99870">
        <path id="Trazado_106978" data-name="Trazado 106978" d="M234.534,102.479H184.858a1.827,1.827,0,1,1,0-3.654h47.848V91.143a1.4,1.4,0,0,0-1.4-1.4H185a1.827,1.827,0,1,1,0-3.654h46.312a5.059,5.059,0,0,1,5.053,5.053v9.509A1.827,1.827,0,0,1,234.534,102.479Z" transform="translate(-183.031 -86.09)"/>
      </g>
    </g>
    <g id="Grupo_99873" data-name="Grupo 99873" transform="translate(108.232 158.596)">
      <g id="Grupo_99872" data-name="Grupo 99872">
        <path id="Trazado_106979" data-name="Trazado 106979" d="M215.272,237.464H151.8a3.716,3.716,0,0,1-3.711-3.711V220.711A3.716,3.716,0,0,1,151.8,217h63.47a3.716,3.716,0,0,1,3.711,3.711v13.041A3.716,3.716,0,0,1,215.272,237.464ZM151.8,220.654a.057.057,0,0,0-.057.057v13.041a.057.057,0,0,0,.057.057h63.47a.057.057,0,0,0,.057-.057V220.711a.057.057,0,0,0-.057-.057Z" transform="translate(-148.09 -217)"/>
      </g>
    </g>
    <g id="Grupo_99875" data-name="Grupo 99875" transform="translate(132.593 134.234)">
      <g id="Grupo_99874" data-name="Grupo 99874">
        <path id="Trazado_106980" data-name="Trazado 106980" d="M224.243,204.131H183.249a1.827,1.827,0,0,1,0-3.654h40.994a.057.057,0,0,0,.057-.057V187.378a.057.057,0,0,0-.057-.057H184.616a1.827,1.827,0,1,1,0-3.654h39.627a3.715,3.715,0,0,1,3.711,3.711V200.42A3.716,3.716,0,0,1,224.243,204.131Z" transform="translate(-181.422 -183.667)"/>
      </g>
    </g>
    <g id="Grupo_99877" data-name="Grupo 99877" transform="translate(133.929 109.872)">
      <g id="Grupo_99876" data-name="Grupo 99876">
        <path id="Trazado_106981" data-name="Trazado 106981" d="M224.735,170.8h-39.52a1.827,1.827,0,1,1,0-3.654h39.52a.057.057,0,0,0,.057-.057V154.044a.057.057,0,0,0-.057-.057H185.077a1.827,1.827,0,1,1,0-3.654h39.658a3.715,3.715,0,0,1,3.711,3.711v13.041A3.716,3.716,0,0,1,224.735,170.8Z" transform="translate(-183.25 -150.333)"/>
      </g>
    </g>
    <g id="Grupo_99879" data-name="Grupo 99879" transform="translate(133.884 85.51)">
      <g id="Grupo_99878" data-name="Grupo 99878">
        <path id="Trazado_106982" data-name="Trazado 106982" d="M224.718,137.464h-39.7a1.827,1.827,0,1,1,0-3.654h39.7a.057.057,0,0,0,.057-.057V120.711a.057.057,0,0,0-.057-.057H185.03a1.827,1.827,0,1,1,0-3.654h39.688a3.716,3.716,0,0,1,3.711,3.711v13.041A3.716,3.716,0,0,1,224.718,137.464Z" transform="translate(-183.188 -117)"/>
      </g>
    </g>
    <g id="Grupo_99881" data-name="Grupo 99881" transform="translate(50.129 44.195)">
      <g id="Grupo_99880" data-name="Grupo 99880">
        <path id="Trazado_106983" data-name="Trazado 106983" d="M150.378,171.915H73.642a5.059,5.059,0,0,1-5.053-5.053V139.424a1.827,1.827,0,0,1,3.654,0v27.437a1.4,1.4,0,0,0,1.4,1.4h76.735a1.4,1.4,0,0,0,1.4-1.4V62.3a1.827,1.827,0,1,1,3.654,0V166.861A5.058,5.058,0,0,1,150.378,171.915Z" transform="translate(-68.589 -60.47)"/>
      </g>
    </g>
    <g id="Grupo_99883" data-name="Grupo 99883" transform="translate(124.976 159.053)">
      <g id="Grupo_99882" data-name="Grupo 99882">
        <path id="Trazado_106984" data-name="Trazado 106984" d="M172.827,237.084A1.827,1.827,0,0,1,171,235.257v-15.8a1.827,1.827,0,1,1,3.654,0v15.8A1.827,1.827,0,0,1,172.827,237.084Z" transform="translate(-171 -217.625)"/>
      </g>
    </g>
    <g id="Grupo_99885" data-name="Grupo 99885" transform="translate(0 12.735)">
      <g id="Grupo_99884" data-name="Grupo 99884">
        <path id="Trazado_106985" data-name="Trazado 106985" d="M81.788,128.87H5.053A5.059,5.059,0,0,1,0,123.816V19.252a1.827,1.827,0,1,1,3.654,0V123.816a1.4,1.4,0,0,0,1.4,1.4H81.788a1.4,1.4,0,0,0,1.4-1.4V19.252a1.827,1.827,0,0,1,3.654,0V123.816A5.058,5.058,0,0,1,81.788,128.87Z" transform="translate(0 -17.425)"/>
      </g>
    </g>
    <g id="Grupo_99887" data-name="Grupo 99887" transform="translate(83.652 31.46)">
      <g id="Grupo_99886" data-name="Grupo 99886">
        <path id="Trazado_106986" data-name="Trazado 106986" d="M165.949,59.434H116.316a1.827,1.827,0,0,1,0-3.654h47.806V48.1a1.4,1.4,0,0,0-1.4-1.4H116.285a1.827,1.827,0,1,1,0-3.654h46.438a5.059,5.059,0,0,1,5.053,5.053v9.509A1.827,1.827,0,0,1,165.949,59.434Z" transform="translate(-114.458 -43.045)"/>
      </g>
    </g>
    <g id="Grupo_99889" data-name="Grupo 99889" transform="translate(61.392 120.889)">
      <g id="Grupo_99888" data-name="Grupo 99888">
        <path id="Trazado_106987" data-name="Trazado 106987" d="M103.246,182.663H87.411A3.415,3.415,0,0,1,84,179.252V167.3a1.827,1.827,0,0,1,3.654,0v11.706H103V167.234a1.827,1.827,0,0,1,3.654,0v12.017A3.415,3.415,0,0,1,103.246,182.663Z" transform="translate(-84 -165.407)"/>
      </g>
    </g>
    <g id="Grupo_99891" data-name="Grupo 99891" transform="translate(8.597 49.979)">
      <g id="Grupo_99890" data-name="Grupo 99890">
        <path id="Trazado_106988" data-name="Trazado 106988" d="M77.117,83.658H16.056a4.3,4.3,0,0,1-4.293-4.293V72.677a4.3,4.3,0,0,1,4.293-4.293H77.117a4.3,4.3,0,0,1,4.293,4.293v6.688A4.3,4.3,0,0,1,77.117,83.658ZM16.056,72.038a.639.639,0,0,0-.639.639v6.688a.64.64,0,0,0,.639.639H77.117a.64.64,0,0,0,.639-.639V72.677a.639.639,0,0,0-.639-.639Z" transform="translate(-11.763 -68.384)"/>
      </g>
    </g>
    <g id="Grupo_99893" data-name="Grupo 99893" transform="translate(8.597 68.981)">
      <g id="Grupo_99892" data-name="Grupo 99892">
        <path id="Trazado_106989" data-name="Trazado 106989" d="M77.117,109.658H16.056a4.3,4.3,0,0,1-4.293-4.293V98.677a4.3,4.3,0,0,1,4.293-4.293H77.117a4.3,4.3,0,0,1,4.293,4.293v6.688A4.3,4.3,0,0,1,77.117,109.658ZM16.056,98.038a.639.639,0,0,0-.639.639v6.688a.64.64,0,0,0,.639.639H77.117a.64.64,0,0,0,.639-.639V98.677a.639.639,0,0,0-.639-.639Z" transform="translate(-11.763 -94.384)"/>
      </g>
    </g>
    <g id="Grupo_99895" data-name="Grupo 99895" transform="translate(29.988 88.861)">
      <g id="Grupo_99894" data-name="Grupo 99894">
        <path id="Trazado_106990" data-name="Trazado 106990" d="M48.052,135.628a7.022,7.022,0,0,1,0-14.043H60.875a7.021,7.021,0,0,1,0,14.043Zm0-10.39a3.367,3.367,0,0,0,0,6.735H60.875a3.367,3.367,0,1,0,0-6.734H48.052Z" transform="translate(-41.031 -121.585)"/>
      </g>
    </g>
    <g id="Grupo_99897" data-name="Grupo 99897" transform="translate(21.926 69.553)">
      <g id="Grupo_99896" data-name="Grupo 99896">
        <path id="Trazado_106991" data-name="Trazado 106991" d="M31.827,109.175A1.827,1.827,0,0,1,30,107.347V96.994a1.827,1.827,0,0,1,3.654,0v10.353A1.827,1.827,0,0,1,31.827,109.175Z" transform="translate(-30 -95.167)"/>
      </g>
    </g>
    <g id="Grupo_99899" data-name="Grupo 99899" transform="translate(21.926 50.398)">
      <g id="Grupo_99898" data-name="Grupo 99898">
        <path id="Trazado_106992" data-name="Trazado 106992" d="M31.827,83.027A1.827,1.827,0,0,1,30,81.2V70.785a1.827,1.827,0,0,1,3.654,0V81.2A1.827,1.827,0,0,1,31.827,83.027Z" transform="translate(-30 -68.958)"/>
      </g>
    </g>
    <g id="Grupo_99901" data-name="Grupo 99901">
      <g id="Grupo_99900" data-name="Grupo 99900">
        <path id="Trazado_106993" data-name="Trazado 106993" d="M85.014,16.389H1.827A1.827,1.827,0,0,1,0,14.562V5.053A5.059,5.059,0,0,1,5.053,0H81.788a5.059,5.059,0,0,1,5.053,5.053v9.509A1.827,1.827,0,0,1,85.014,16.389ZM3.654,12.735H83.187V5.053a1.4,1.4,0,0,0-1.4-1.4H5.053a1.4,1.4,0,0,0-1.4,1.4Z" transform="translate(0 0)"/>
      </g>
    </g>
    <g id="Grupo_99903" data-name="Grupo 99903" transform="translate(13.644 0.274)">
      <g id="Grupo_99902" data-name="Grupo 99902">
        <path id="Trazado_106994" data-name="Trazado 106994" d="M20.5,16.088a1.827,1.827,0,0,1-1.827-1.827V2.2a1.827,1.827,0,1,1,3.654,0V14.261A1.827,1.827,0,0,1,20.5,16.088Z" transform="translate(-18.669 -0.375)"/>
      </g>
    </g>
  </g>
</svg>
