<svg xmlns="http://www.w3.org/2000/svg" width="138.77" height="131.293" viewBox="0 0 138.77 131.293">
  <g id="Grupo_99980" data-name="Grupo 99980" transform="translate(-289.615 -458.854)">
    <g id="musica-y-multimedia" transform="translate(289.615 458.854)">
      <path id="Trazado_107109" data-name="Trazado 107109" d="M17.971,10h117.7a7.794,7.794,0,0,1,7.772,7.772V90.366a7.8,7.8,0,0,1-7.772,7.772H17.971A7.8,7.8,0,0,1,10.2,90.366V17.772A7.8,7.8,0,0,1,17.971,10Zm0,0" transform="translate(-7.435 -7.29)" fill="#d0d7df" fill-rule="evenodd"/>
      <path id="Trazado_107110" data-name="Trazado 107110" d="M224.378,114.47,186.945,92.859v43.222l18.716-10.8Zm0,0" transform="translate(-136.277 -67.691)" fill="#ffca28" fill-rule="evenodd"/>
      <path id="Trazado_107111" data-name="Trazado 107111" d="M119.243,382.9a7.159,7.159,0,0,1,7.138,7.138v10.527a7.138,7.138,0,1,1-14.276,0V390.04A7.16,7.16,0,0,1,119.243,382.9Zm0,0" transform="translate(-81.721 -279.123)" fill="#4dd0e1" fill-rule="evenodd"/>
      <path id="Trazado_107112" data-name="Trazado 107112" d="M136.151,140.867a2.711,2.711,0,0,0-2.71,2.71v42.186a5.068,5.068,0,0,1-5.062,5.062H10.682a5.068,5.068,0,0,1-5.062-5.062V177.47a2.71,2.71,0,1,0-5.421,0v8.294a10.5,10.5,0,0,0,10.482,10.482h117.7a10.5,10.5,0,0,0,10.482-10.482V143.578A2.711,2.711,0,0,0,136.151,140.867Zm0,0" transform="translate(-0.145 -102.687)" fill-rule="evenodd"/>
      <path id="Trazado_107113" data-name="Trazado 107113" d="M2.91,55.378a2.71,2.71,0,0,0,2.71-2.71V10.482a5.068,5.068,0,0,1,5.062-5.062h117.7a5.068,5.068,0,0,1,5.062,5.062v8.294a2.71,2.71,0,1,0,5.421,0V10.482A10.5,10.5,0,0,0,128.378,0H10.682A10.5,10.5,0,0,0,.2,10.482V52.668A2.71,2.71,0,0,0,2.91,55.378Zm0,0" transform="translate(-0.145)" fill-rule="evenodd"/>
      <path id="Trazado_107114" data-name="Trazado 107114" d="M181.011,83.223a2.71,2.71,0,0,0-4.066,2.347v43.222a2.71,2.71,0,0,0,4.066,2.347l37.431-21.611a2.71,2.71,0,0,0,0-4.694Zm1.355,40.875V90.265l29.3,16.916Zm0,0" transform="translate(-128.987 -60.402)" fill-rule="evenodd"/>
      <path id="Trazado_107115" data-name="Trazado 107115" d="M136.151,385.3H47.516v-2.554a9.848,9.848,0,1,0-19.7,0V385.3H2.91a2.71,2.71,0,1,0,0,5.421h24.91v2.553a9.848,9.848,0,1,0,19.7,0v-2.553h88.635a2.71,2.71,0,1,0,0-5.421ZM42.1,393.278a4.428,4.428,0,1,1-8.855,0V382.751a4.428,4.428,0,0,1,8.855,0Zm0,0" transform="translate(-0.145 -271.833)" fill-rule="evenodd"/>
      <path id="Trazado_107116" data-name="Trazado 107116" d="M2.764,230.447A2.764,2.764,0,1,0,0,227.682,2.77,2.77,0,0,0,2.764,230.447Zm0,0" transform="translate(0 -163.957)" fill-rule="evenodd"/>
      <path id="Trazado_107117" data-name="Trazado 107117" d="M494.366,99.871a2.764,2.764,0,1,0,2.764,2.764A2.77,2.77,0,0,0,494.366,99.871Zm0,0" transform="translate(-358.361 -72.803)" fill-rule="evenodd"/>
    </g>
  </g>
</svg>
