<svg xmlns="http://www.w3.org/2000/svg" width="174.591" height="175.046" viewBox="0 0 174.591 175.046">
  <g id="boton" transform="translate(-0.663)">
    <path id="Trazado_107000" data-name="Trazado 107000" d="M138.663,64H262.389v91.42H138.663Z" transform="translate(-90.572 -42.004)" fill="#fff"/>
    <path id="Trazado_107001" data-name="Trazado 107001" d="M262.389,37.495V16.874A6.874,6.874,0,0,0,255.515,10H145.537a6.874,6.874,0,0,0-6.874,6.874V37.495Z" transform="translate(-90.572 -6.563)" fill="#4dd0e1"/>
    <path id="Trazado_107002" data-name="Trazado 107002" d="M178.663,130h96.231v48.116H178.663Z" transform="translate(-116.824 -85.321)" fill="#e6e6f9"/>
    <path id="Trazado_107003" data-name="Trazado 107003" d="M96.584,295.116a10.31,10.31,0,0,0,10.31-10.31V257.311A10.31,10.31,0,0,0,96.584,247H20.973a10.31,10.31,0,0,0-10.31,10.311v27.495a10.31,10.31,0,0,0,10.31,10.31Z" transform="translate(-6.563 -162.11)" fill="#ffca28"/>
    <path id="Trazado_107004" data-name="Trazado 107004" d="M161.834,364.487H176.64L138.663,326.51v53.707l10.47-10.47,6.693,16.161,12.7-5.26Z" transform="translate(-90.572 -214.294)" fill="#fff"/>
    <path id="Trazado_107005" data-name="Trazado 107005" d="M164.944,0H54.965a10.31,10.31,0,0,0-10.31,10.31V81.453H14.41A13.747,13.747,0,0,0,.663,95.2v27.495A13.748,13.748,0,0,0,14.41,136.442H44.654v29.48a3.437,3.437,0,0,0,5.867,2.43l6.832-6.833,4.725,11.408a3.426,3.426,0,0,0,4.49,1.86l12.7-5.26a3.447,3.447,0,0,0,1.86-4.491l-4.725-11.409h9.663a3.439,3.439,0,0,0,2.43-5.867l-11.321-11.32H90.02a13.747,13.747,0,0,0,13.747-13.747v-5.843h68.049a3.437,3.437,0,0,0,3.437-3.437V10.31A10.31,10.31,0,0,0,164.944,0ZM51.528,10.31a3.441,3.441,0,0,1,3.437-3.437H164.944a3.441,3.441,0,0,1,3.437,3.437V27.495H51.528ZM71.262,146.756a3.437,3.437,0,0,0-3.175,4.752l5.378,12.985-6.351,2.63-5.378-12.985a3.457,3.457,0,0,0-5.606-1.115l-4.6,4.6V120.514l26.243,26.243H71.262Zm25.632-24.062a6.881,6.881,0,0,1-6.874,6.874H70.3L50.521,109.786a3.441,3.441,0,0,0-5.867,2.43v17.353H14.41a6.881,6.881,0,0,1-6.874-6.874V95.2a6.881,6.881,0,0,1,6.874-6.874h75.61A6.881,6.881,0,0,1,96.894,95.2Zm6.874-12.716V95.2A13.763,13.763,0,0,0,90.021,81.453H51.528V34.368H168.38v75.61ZM65.275,17.184a3.437,3.437,0,1,1-3.437-3.437A3.437,3.437,0,0,1,65.275,17.184Zm15.466,0A3.437,3.437,0,1,1,77.3,13.747,3.437,3.437,0,0,1,80.741,17.184Zm15.466,0a3.437,3.437,0,1,1-3.437-3.437A3.437,3.437,0,0,1,96.207,17.184ZM73.18,44.679a3.437,3.437,0,0,1-3.437,3.437H65.275v5.155a3.437,3.437,0,1,1-6.874,0V44.679a3.437,3.437,0,0,1,3.437-3.437h7.9A3.437,3.437,0,0,1,73.18,44.679Zm88.327,0v8.592a3.437,3.437,0,1,1-6.874,0V48.116h-4.468a3.437,3.437,0,1,1,0-6.874h7.9A3.437,3.437,0,0,1,161.507,44.679Zm-56.02,0a3.437,3.437,0,0,1-3.437,3.437H85.209a3.437,3.437,0,0,1,0-6.874h16.84A3.437,3.437,0,0,1,105.486,44.679Zm32.65,0a3.437,3.437,0,0,1-3.437,3.437h-16.84a3.437,3.437,0,0,1,0-6.874H134.7A3.437,3.437,0,0,1,138.136,44.679Zm0,48.116a3.437,3.437,0,0,1-3.437,3.437h-16.84a3.437,3.437,0,0,1,0-6.874H134.7A3.437,3.437,0,0,1,138.136,92.794Zm23.37-8.592v8.592a3.437,3.437,0,0,1-3.437,3.437h-7.9a3.437,3.437,0,1,1,0-6.874h4.468V84.2a3.437,3.437,0,1,1,6.874,0Zm0-15.466A3.437,3.437,0,1,1,158.07,65.3,3.442,3.442,0,0,1,161.507,68.737Zm-96.231,0A3.437,3.437,0,1,1,61.839,65.3,3.443,3.443,0,0,1,65.275,68.737Z"/>
  </g>
</svg>
