<svg xmlns="http://www.w3.org/2000/svg" width="111.055" height="175.286" viewBox="0 0 111.055 175.286">
  <g id="Grupo_99944" data-name="Grupo 99944" transform="translate(-315 -490.214)">
    <g id="flecha-correcta" transform="translate(315 426.189)">
      <path id="Trazado_107020" data-name="Trazado 107020" d="M82.271,107.806,71.515,98.23A10.419,10.419,0,1,1,85.394,82.686l31.227,27.758a10.409,10.409,0,0,1,0,15.544L85.394,153.745A10.419,10.419,0,1,1,71.515,138.2l10.756-9.576H26.409a10.409,10.409,0,1,1,0-20.818H82.271Z" transform="translate(-12.53 -12.541)" fill="#ffc107"/>
      <path id="Trazado_107021" data-name="Trazado 107021" d="M65.924,147.311a13.879,13.879,0,0,1-9.243-24.246l3.942-3.511H13.879a13.879,13.879,0,0,1,0-27.758H60.623l-3.949-3.511A13.892,13.892,0,1,1,75.168,67.549l31.227,27.758a13.879,13.879,0,0,1,0,20.749L75.168,143.813A13.822,13.822,0,0,1,65.924,147.311ZM13.879,98.735a6.939,6.939,0,0,0,0,13.879H69.741a3.47,3.47,0,0,1,2.3,6.065L61.3,128.248a6.939,6.939,0,0,0-.568,9.8l.02.022a7.21,7.21,0,0,0,9.805.555l31.227-27.758a6.974,6.974,0,0,0,0-10.347L70.553,72.761a6.939,6.939,0,0,0-9.264,10.333L72.045,92.67a3.47,3.47,0,0,1-2.3,6.065H13.879Z"/>
    </g>
    <g id="flecha-correcta-2" data-name="flecha-correcta" transform="translate(315 582.214)">
      <path id="Trazado_107020-2" data-name="Trazado 107020" d="M53.835,107.806,64.591,98.23A10.419,10.419,0,0,0,50.712,82.686L19.485,110.443a10.409,10.409,0,0,0,0,15.544l31.227,27.758A10.419,10.419,0,1,0,64.591,138.2l-10.756-9.576H109.7a10.409,10.409,0,1,0,0-20.818H53.835Z" transform="translate(-12.522 -76.566)" fill="#4dd0e1"/>
      <path id="Trazado_107021-2" data-name="Trazado 107021" d="M45.13,147.311a13.879,13.879,0,0,0,9.243-24.246l-3.942-3.511H97.176a13.879,13.879,0,0,0,0-27.758H50.432l3.949-3.511A13.892,13.892,0,0,0,35.887,67.549L4.66,95.307a13.879,13.879,0,0,0,0,20.749l31.227,27.758A13.822,13.822,0,0,0,45.13,147.311ZM97.176,98.735a6.939,6.939,0,0,1,0,13.879H41.314a3.47,3.47,0,0,0-2.3,6.065l10.749,9.569a6.939,6.939,0,0,1,.568,9.8l-.02.022a7.21,7.21,0,0,1-9.805.555L9.274,110.865a6.974,6.974,0,0,1,0-10.347L40.5,72.761a6.939,6.939,0,0,1,9.264,10.333L39.01,92.67a3.47,3.47,0,0,0,2.3,6.065H97.176Z" transform="translate(0 -64.025)"/>
    </g>
  </g>
</svg>
