<svg xmlns="http://www.w3.org/2000/svg" width="176" height="176" viewBox="0 0 176 176">
  <g id="android" transform="translate(0 0.286)">
    <path id="Trazado_106932" data-name="Trazado 106932" d="M88,0A88,88,0,1,1,0,88,88,88,0,0,1,88,0Z" transform="translate(0 -0.286)" fill="#a3c939"/>
    <path id="Trazado_106925" data-name="Trazado 106925" d="M159.556,219.885a87.859,87.859,0,0,0,84.326-87.565l-61.9-61.9L171.01,82.562,152.985,84.8,135.54,67.353l2.522,14.294L119.79,109.69l12.961,12.961-3.981,3.766-14.191-14.191-10.8,46.19,36.646,36.646-3.74,1.088Z" transform="translate(-68.16 -44.248)" fill="#8daa22"/>
    <path id="Trazado_106926" data-name="Trazado 106926" d="M102.6,190.708h0a8.1,8.1,0,0,0-8.1,8.1V233a8.1,8.1,0,0,0,8.1,8.1h0a8.1,8.1,0,0,0,8.1-8.1V198.81A8.1,8.1,0,0,0,102.6,190.708Z" transform="translate(-62.066 -125.266)" fill="#fff"/>
    <path id="Trazado_106927" data-name="Trazado 106927" d="M378.39,190.708h0a8.1,8.1,0,0,0-8.1,8.1V233a8.1,8.1,0,0,0,8.1,8.1h0a8.1,8.1,0,0,0,8.1-8.1V198.81A8.1,8.1,0,0,0,378.39,190.708Z" transform="translate(-243.201 -125.266)" fill="#e6e6e6"/>
    <path id="Trazado_106928" data-name="Trazado 106928" d="M206.589,80.411l6.03-10-5.076-3.062-6.187,10.258a36.331,36.331,0,0,0-14.493-3h0a36.326,36.326,0,0,0-14.493,3l-6.187-10.259L161.1,70.415l6.03,10a36.434,36.434,0,0,0-16.7,29.279h72.86A36.432,36.432,0,0,0,206.589,80.411ZM170.362,95.857a3.7,3.7,0,1,1,3.7-3.7A3.7,3.7,0,0,1,170.362,95.857Zm32.605,0a3.7,3.7,0,1,1,3.7-3.7A3.7,3.7,0,0,1,202.967,95.857Z" transform="translate(-98.802 -44.248)" fill="#fff"/>
    <path id="Trazado_106929" data-name="Trazado 106929" d="M276.144,80.412l6.03-10L277.1,67.354l-6.188,10.258a36.332,36.332,0,0,0-14.493-3h-.083v35.074h36.513A36.433,36.433,0,0,0,276.144,80.412Zm-3.623,15.446a3.7,3.7,0,1,1,3.7-3.7A3.7,3.7,0,0,1,272.521,95.858Z" transform="translate(-168.356 -44.248)" fill="#e6e6e6"/>
    <path id="Trazado_106930" data-name="Trazado 106930" d="M149.773,263.452H164.2v18.081a8.1,8.1,0,0,0,8.1,8.1h0a8.1,8.1,0,0,0,8.1-8.1V263.452h11.264v18.081a8.1,8.1,0,0,0,8.1,8.1h0a8.1,8.1,0,0,0,8.1-8.1V263.452H222.69V206.541H149.773Z" transform="translate(-98.369 -135.665)" fill="#fff"/>
    <path id="Trazado_106931" data-name="Trazado 106931" d="M256.333,206.541v56.911h5.32v18.081a8.1,8.1,0,0,0,8.1,8.1h0a8.1,8.1,0,0,0,8.1-8.1V263.452h14.821V206.541Z" transform="translate(-168.356 -135.665)" fill="#e6e6e6"/>
  </g>
</svg>
