<svg xmlns="http://www.w3.org/2000/svg" width="441.694" height="307.171" viewBox="0 0 441.694 307.171">
  <g id="Grupo_100251" data-name="Grupo 100251" transform="translate(-850.485 -3501.985)">
    <g id="Grupo_100248" data-name="Grupo 100248" transform="translate(850.485 3501.985)">
      <g id="Grupo_100022" data-name="Grupo 100022">
        <g id="Grupo_100019" data-name="Grupo 100019">
          <g id="Grupo_100016" data-name="Grupo 100016">
            <path id="Trazado_107137" data-name="Trazado 107137" d="M178.176,264.619H66.145A17.263,17.263,0,0,1,48.9,247.377V25.314A17.263,17.263,0,0,1,66.145,8.072H178.176a17.263,17.263,0,0,1,17.242,17.242V247.377A17.263,17.263,0,0,1,178.176,264.619Z" transform="translate(-48.903 -8.072)" fill="#fff"/>
          </g>
          <g id="Grupo_100017" data-name="Grupo 100017">
            <path id="Trazado_107138" data-name="Trazado 107138" d="M178.176,264.619H66.145A17.263,17.263,0,0,1,48.9,247.377V25.314A17.263,17.263,0,0,1,66.145,8.072H178.176a17.263,17.263,0,0,1,17.242,17.242V247.377A17.263,17.263,0,0,1,178.176,264.619ZM66.145,11.221A14.109,14.109,0,0,0,52.057,25.314V247.377a14.106,14.106,0,0,0,14.088,14.092H178.176a14.107,14.107,0,0,0,14.092-14.092V25.314a14.11,14.11,0,0,0-14.092-14.092Z" transform="translate(-48.903 -8.072)"/>
          </g>
          <g id="Grupo_100018" data-name="Grupo 100018">
            <path id="Trazado_107139" data-name="Trazado 107139" d="M178.176,264.619H66.145A17.263,17.263,0,0,1,48.9,247.377V25.314A17.263,17.263,0,0,1,66.145,8.072H178.176a17.263,17.263,0,0,1,17.242,17.242V247.377A17.263,17.263,0,0,1,178.176,264.619ZM66.145,11.221A14.109,14.109,0,0,0,52.057,25.314V247.377a14.106,14.106,0,0,0,14.088,14.092H178.176a14.107,14.107,0,0,0,14.092-14.092V25.314a14.11,14.11,0,0,0-14.092-14.092Z" transform="translate(-48.903 -8.072)" fill="#4e4f4f"/>
          </g>
        </g>
        <g id="Grupo_100020" data-name="Grupo 100020" transform="translate(0 29.392)">
          <path id="Trazado_107140" data-name="Trazado 107140" d="M193.843,17.866H50.478a1.575,1.575,0,1,1,0-3.149H193.843a1.575,1.575,0,1,1,0,3.149Z" transform="translate(-48.903 -14.717)" fill="#4e4f4f"/>
        </g>
        <g id="Grupo_100021" data-name="Grupo 100021" transform="translate(0 222.74)">
          <path id="Trazado_107141" data-name="Trazado 107141" d="M193.843,61.583H50.478a1.577,1.577,0,0,1,0-3.154H193.843a1.577,1.577,0,0,1,0,3.154Z" transform="translate(-48.903 -58.429)" fill="#4e4f4f"/>
        </g>
      </g>
      <g id="Grupo_100030" data-name="Grupo 100030" transform="translate(3.111 32.54)">
        <rect id="Rectángulo_33978" data-name="Rectángulo 33978" width="140.252" height="190.198" fill="#f7fbfc"/>
        <g id="Grupo_100023" data-name="Grupo 100023" transform="translate(5.767 5.883)">
          <path id="Rectángulo_33979" data-name="Rectángulo 33979" d="M.036,0H128.685a.035.035,0,0,1,.035.035V20.052a.034.034,0,0,1-.034.034H.034A.034.034,0,0,1,0,20.052V.036A.036.036,0,0,1,.036,0Z" fill="#b4bcbe"/>
        </g>
        <g id="Grupo_100024" data-name="Grupo 100024" transform="translate(5.767 32.384)">
          <path id="Rectángulo_33980" data-name="Rectángulo 33980" d="M.034,0H128.685a.035.035,0,0,1,.035.035V20.048a.034.034,0,0,1-.034.034H.034A.034.034,0,0,1,0,20.048V.034A.034.034,0,0,1,.034,0Z" fill="#f9835b"/>
        </g>
        <g id="Grupo_100025" data-name="Grupo 100025" transform="translate(5.767 58.88)">
          <path id="Rectángulo_33981" data-name="Rectángulo 33981" d="M.034,0H128.685a.035.035,0,0,1,.035.035V20.047a.034.034,0,0,1-.034.034H.034A.034.034,0,0,1,0,20.047V.034A.034.034,0,0,1,.034,0Z" fill="#b4bcbe"/>
        </g>
        <g id="Grupo_100026" data-name="Grupo 100026" transform="translate(5.767 85.385)">
          <rect id="Rectángulo_33982" data-name="Rectángulo 33982" width="128.72" height="20.081" rx="0.034" fill="#b4bcbe"/>
        </g>
        <g id="Grupo_100027" data-name="Grupo 100027" transform="translate(5.786 111.76)">
          <rect id="Rectángulo_33983" data-name="Rectángulo 33983" width="128.72" height="20.082" rx="0.034" fill="#b4bcbe"/>
        </g>
        <g id="Grupo_100028" data-name="Grupo 100028" transform="translate(5.805 138.135)">
          <path id="Rectángulo_33984" data-name="Rectángulo 33984" d="M.034,0H128.685a.035.035,0,0,1,.035.035V20.048a.034.034,0,0,1-.034.034H.034A.034.034,0,0,1,0,20.048V.034A.034.034,0,0,1,.034,0Z" fill="#b4bcbe"/>
        </g>
        <g id="Grupo_100029" data-name="Grupo 100029" transform="translate(5.827 164.51)">
          <path id="Rectángulo_33985" data-name="Rectángulo 33985" d="M.034,0H128.686a.035.035,0,0,1,.035.035V20.048a.034.034,0,0,1-.034.034H.034A.034.034,0,0,1,0,20.048V.034A.034.034,0,0,1,.034,0Z" fill="#b4bcbe"/>
        </g>
      </g>
    </g>
    <g id="Grupo_100022-2" data-name="Grupo 100022" transform="translate(1037.485 3501.985)">
      <g id="Grupo_100019-2" data-name="Grupo 100019">
        <g id="Grupo_100016-2" data-name="Grupo 100016">
          <path id="Trazado_107137-2" data-name="Trazado 107137" d="M178.176,264.619H66.145A17.263,17.263,0,0,1,48.9,247.377V25.314A17.263,17.263,0,0,1,66.145,8.072H178.176a17.263,17.263,0,0,1,17.242,17.242V247.377A17.263,17.263,0,0,1,178.176,264.619Z" transform="translate(-48.903 -8.072)" fill="#fff"/>
        </g>
        <g id="Grupo_100017-2" data-name="Grupo 100017">
          <path id="Trazado_107138-2" data-name="Trazado 107138" d="M178.176,264.619H66.145A17.263,17.263,0,0,1,48.9,247.377V25.314A17.263,17.263,0,0,1,66.145,8.072H178.176a17.263,17.263,0,0,1,17.242,17.242V247.377A17.263,17.263,0,0,1,178.176,264.619ZM66.145,11.221A14.109,14.109,0,0,0,52.057,25.314V247.377a14.106,14.106,0,0,0,14.088,14.092H178.176a14.107,14.107,0,0,0,14.092-14.092V25.314a14.11,14.11,0,0,0-14.092-14.092Z" transform="translate(-48.903 -8.072)"/>
        </g>
        <g id="Grupo_100018-2" data-name="Grupo 100018">
          <path id="Trazado_107139-2" data-name="Trazado 107139" d="M178.176,264.619H66.145A17.263,17.263,0,0,1,48.9,247.377V25.314A17.263,17.263,0,0,1,66.145,8.072H178.176a17.263,17.263,0,0,1,17.242,17.242V247.377A17.263,17.263,0,0,1,178.176,264.619ZM66.145,11.221A14.109,14.109,0,0,0,52.057,25.314V247.377a14.106,14.106,0,0,0,14.088,14.092H178.176a14.107,14.107,0,0,0,14.092-14.092V25.314a14.11,14.11,0,0,0-14.092-14.092Z" transform="translate(-48.903 -8.072)" fill="#4e4f4f"/>
        </g>
      </g>
      <g id="Grupo_100020-2" data-name="Grupo 100020" transform="translate(0 29.392)">
        <path id="Trazado_107140-2" data-name="Trazado 107140" d="M193.843,17.866H50.478a1.575,1.575,0,1,1,0-3.149H193.843a1.575,1.575,0,1,1,0,3.149Z" transform="translate(-48.903 -14.717)" fill="#4e4f4f"/>
      </g>
      <g id="Grupo_100021-2" data-name="Grupo 100021" transform="translate(0 222.74)">
        <path id="Trazado_107141-2" data-name="Trazado 107141" d="M193.843,61.583H50.478a1.577,1.577,0,0,1,0-3.154H193.843a1.577,1.577,0,0,1,0,3.154Z" transform="translate(-48.903 -58.429)" fill="#4e4f4f"/>
      </g>
    </g>
    <g id="Grupo_100030-2" data-name="Grupo 100030" transform="translate(1040.597 3534.525)">
      <rect id="Rectángulo_33978-2" data-name="Rectángulo 33978" width="140.252" height="190.198" fill="#f7fbfc"/>
      <rect id="Rectángulo_33982-2" data-name="Rectángulo 33982" width="169.194" height="40.298" rx="0.034" transform="translate(46.884 9.565) rotate(90)" fill="#b4bcbe"/>
      <rect id="Rectángulo_33982-3" data-name="Rectángulo 33982" width="169.194" height="40.298" rx="0.034" transform="translate(90.562 9.565) rotate(90)" fill="#f9835b"/>
      <rect id="Rectángulo_33982-4" data-name="Rectángulo 33982" width="169.194" height="40.298" rx="0.034" transform="translate(134.239 9.565) rotate(90)" fill="#b4bcbe"/>
    </g>
    <path id="Trazado_107300" data-name="Trazado 107300" d="M-46,0V-11.375h3.211a5.169,5.169,0,0,1,2.625.656A4.438,4.438,0,0,1-38.4-8.852,6.078,6.078,0,0,1-37.77-6.07v.727a6.1,6.1,0,0,1-.621,2.82A4.369,4.369,0,0,1-40.164-.664,5.5,5.5,0,0,1-42.848,0Zm1.5-10.141v8.914h1.578a3.435,3.435,0,0,0,2.7-1.078,4.452,4.452,0,0,0,.965-3.07v-.664a4.522,4.522,0,0,0-.91-3.012,3.24,3.24,0,0,0-2.582-1.09ZM-34.16,0h-1.445V-8.453h1.445Zm-1.562-10.7a.863.863,0,0,1,.215-.594.807.807,0,0,1,.637-.242.819.819,0,0,1,.641.242.854.854,0,0,1,.219.594.826.826,0,0,1-.219.586.834.834,0,0,1-.641.234.821.821,0,0,1-.637-.234A.834.834,0,0,1-35.723-10.7Zm8.8,8.453a1.064,1.064,0,0,0-.441-.91,4.249,4.249,0,0,0-1.539-.559,7.277,7.277,0,0,1-1.742-.562,2.479,2.479,0,0,1-.953-.781,1.869,1.869,0,0,1-.309-1.078,2.193,2.193,0,0,1,.879-1.758,3.432,3.432,0,0,1,2.246-.719,3.532,3.532,0,0,1,2.332.742,2.357,2.357,0,0,1,.895,1.9h-1.453a1.3,1.3,0,0,0-.5-1.023,1.888,1.888,0,0,0-1.27-.43,1.976,1.976,0,0,0-1.234.344,1.082,1.082,0,0,0-.445.9.877.877,0,0,0,.414.789,5.1,5.1,0,0,0,1.5.508A7.8,7.8,0,0,1-26.8-4.3a2.558,2.558,0,0,1,1,.809,1.988,1.988,0,0,1,.324,1.152,2.163,2.163,0,0,1-.906,1.816,3.8,3.8,0,0,1-2.352.684,4.257,4.257,0,0,1-1.8-.359,2.922,2.922,0,0,1-1.223-1A2.42,2.42,0,0,1-32.2-2.6h1.445a1.5,1.5,0,0,0,.582,1.152,2.258,2.258,0,0,0,1.434.426,2.331,2.331,0,0,0,1.316-.332A1.02,1.02,0,0,0-26.926-2.242Zm6.836,2.4a3.693,3.693,0,0,1-2.8-1.129,4.19,4.19,0,0,1-1.078-3.02v-.266a5.073,5.073,0,0,1,.48-2.246,3.748,3.748,0,0,1,1.344-1.547,3.378,3.378,0,0,1,1.871-.559,3.166,3.166,0,0,1,2.563,1.086,4.7,4.7,0,0,1,.914,3.109v.6H-22.52a3,3,0,0,0,.73,2.02,2.3,2.3,0,0,0,1.777.77,2.517,2.517,0,0,0,1.3-.312,3.259,3.259,0,0,0,.93-.828l.883.688A3.55,3.55,0,0,1-20.09.156Zm-.18-7.578a1.928,1.928,0,0,0-1.469.637A3.1,3.1,0,0,0-22.473-5h4.234v-.109a2.753,2.753,0,0,0-.594-1.707A1.815,1.815,0,0,0-20.27-7.422Zm6.516-1.031.047,1.063a3.08,3.08,0,0,1,2.531-1.219q2.68,0,2.7,3.023V0H-9.918V-5.594a1.946,1.946,0,0,0-.418-1.352,1.675,1.675,0,0,0-1.277-.437,2.086,2.086,0,0,0-1.234.375,2.546,2.546,0,0,0-.828.984V0h-1.445V-8.453Zm4.781-3.3a1.942,1.942,0,0,1-.48,1.367,1.561,1.561,0,0,1-1.2.523,1.76,1.76,0,0,1-.555-.078,2.993,2.993,0,0,1-.613-.32,2.656,2.656,0,0,0-.547-.293,1.338,1.338,0,0,0-.387-.051.717.717,0,0,0-.547.246.892.892,0,0,0-.227.629l-.969-.055a2.039,2.039,0,0,1,.473-1.383,1.516,1.516,0,0,1,1.2-.547,1.457,1.457,0,0,1,.492.078,3.587,3.587,0,0,1,.594.3,3.494,3.494,0,0,0,.574.3,1.319,1.319,0,0,0,.441.07.7.7,0,0,0,.559-.266.932.932,0,0,0,.223-.617Zm2.3,7.445a4.993,4.993,0,0,1,.488-2.234A3.643,3.643,0,0,1-4.828-8.07,3.7,3.7,0,0,1-2.84-8.609a3.565,3.565,0,0,1,2.793,1.2A4.6,4.6,0,0,1,1.02-4.234v.1A5.036,5.036,0,0,1,.547-1.918,3.589,3.589,0,0,1-.8-.391a3.743,3.743,0,0,1-2.02.547,3.556,3.556,0,0,1-2.785-1.2A4.575,4.575,0,0,1-6.676-4.2Zm1.453.172A3.616,3.616,0,0,0-4.57-1.875a2.088,2.088,0,0,0,1.746.852,2.075,2.075,0,0,0,1.75-.863A3.955,3.955,0,0,0-.426-4.3a3.61,3.61,0,0,0-.66-2.254A2.1,2.1,0,0,0-2.84-7.422a2.075,2.075,0,0,0-1.727.852A3.925,3.925,0,0,0-5.223-4.133ZM8.363,0H6.918V-12H8.363Zm3.883,0H10.8V-8.453h1.445ZM10.684-10.7a.863.863,0,0,1,.215-.594.807.807,0,0,1,.637-.242.819.819,0,0,1,.641.242.854.854,0,0,1,.219.594.826.826,0,0,1-.219.586.834.834,0,0,1-.641.234.821.821,0,0,1-.637-.234A.834.834,0,0,1,10.684-10.7Zm5.242,2.242.047,1.063A3.08,3.08,0,0,1,18.5-8.609q2.68,0,2.7,3.023V0H19.762V-5.594a1.946,1.946,0,0,0-.418-1.352,1.675,1.675,0,0,0-1.277-.437,2.086,2.086,0,0,0-1.234.375A2.546,2.546,0,0,0,16-6.023V0H14.559V-8.453ZM26.895.156A3.693,3.693,0,0,1,24.1-.973a4.19,4.19,0,0,1-1.078-3.02v-.266A5.073,5.073,0,0,1,23.5-6.5a3.748,3.748,0,0,1,1.344-1.547,3.378,3.378,0,0,1,1.871-.559,3.166,3.166,0,0,1,2.563,1.086,4.7,4.7,0,0,1,.914,3.109v.6H24.465a3,3,0,0,0,.73,2.02,2.3,2.3,0,0,0,1.777.77,2.517,2.517,0,0,0,1.3-.312,3.259,3.259,0,0,0,.93-.828l.883.688A3.55,3.55,0,0,1,26.895.156Zm-.18-7.578a1.928,1.928,0,0,0-1.469.637A3.1,3.1,0,0,0,24.512-5h4.234v-.109a2.753,2.753,0,0,0-.594-1.707A1.815,1.815,0,0,0,26.715-7.422ZM37.082,0a3.036,3.036,0,0,1-.2-.891A3.225,3.225,0,0,1,34.473.156a2.984,2.984,0,0,1-2.051-.707,2.287,2.287,0,0,1-.8-1.793,2.39,2.39,0,0,1,1-2.051,4.733,4.733,0,0,1,2.824-.73h1.406v-.664A1.623,1.623,0,0,0,36.4-7a1.821,1.821,0,0,0-1.336-.449,2.107,2.107,0,0,0-1.3.391,1.151,1.151,0,0,0-.523.945H31.793a2,2,0,0,1,.449-1.223,3.066,3.066,0,0,1,1.219-.934,4.1,4.1,0,0,1,1.691-.344,3.342,3.342,0,0,1,2.289.73A2.635,2.635,0,0,1,38.3-5.867v3.891a4.757,4.757,0,0,0,.3,1.852V0Zm-2.4-1.1a2.54,2.54,0,0,0,1.289-.352,2.127,2.127,0,0,0,.883-.914V-4.1H35.723q-2.656,0-2.656,1.555a1.316,1.316,0,0,0,.453,1.063A1.742,1.742,0,0,0,34.684-1.1ZM42.137,0H40.691V-12h1.445ZM-24.1,18.039-22,11.547h1.477L-23.559,20h-1.1l-3.062-8.453h1.477Zm8.367,2.117a3.693,3.693,0,0,1-2.8-1.129,4.19,4.19,0,0,1-1.078-3.02v-.266a5.073,5.073,0,0,1,.48-2.246,3.748,3.748,0,0,1,1.344-1.547,3.378,3.378,0,0,1,1.871-.559,3.166,3.166,0,0,1,2.563,1.086,4.7,4.7,0,0,1,.914,3.109v.6H-18.16a3,3,0,0,0,.73,2.02,2.3,2.3,0,0,0,1.777.77,2.517,2.517,0,0,0,1.3-.312,3.259,3.259,0,0,0,.93-.828l.883.688A3.55,3.55,0,0,1-15.73,20.156Zm-.18-7.578a1.928,1.928,0,0,0-1.469.637A3.1,3.1,0,0,0-18.113,15h4.234v-.109a2.753,2.753,0,0,0-.594-1.707A1.815,1.815,0,0,0-15.91,12.578Zm9.234.266a4.331,4.331,0,0,0-.711-.055A1.9,1.9,0,0,0-9.316,14v6h-1.445V11.547h1.406l.023.977a2.251,2.251,0,0,1,2.016-1.133,1.477,1.477,0,0,1,.641.109ZM-3,9.5v2.047h1.578v1.117H-3v5.242a1.171,1.171,0,0,0,.211.762.888.888,0,0,0,.719.254,3.5,3.5,0,0,0,.688-.094V20a4.19,4.19,0,0,1-1.109.156,1.8,1.8,0,0,1-1.461-.586,2.517,2.517,0,0,1-.492-1.664V12.664H-5.98V11.547h1.539V9.5ZM1.84,20H.395V11.547H1.84ZM.277,9.3a.863.863,0,0,1,.215-.594.807.807,0,0,1,.637-.242.819.819,0,0,1,.641.242.854.854,0,0,1,.219.594.826.826,0,0,1-.219.586.834.834,0,0,1-.641.234.821.821,0,0,1-.637-.234A.834.834,0,0,1,.277,9.3Zm7.266,9.672a2.082,2.082,0,0,0,1.352-.469,1.649,1.649,0,0,0,.641-1.172H10.9a2.621,2.621,0,0,1-.5,1.383,3.293,3.293,0,0,1-1.23,1.047,3.55,3.55,0,0,1-1.629.391A3.482,3.482,0,0,1,4.8,19a4.59,4.59,0,0,1-1.02-3.152v-.242a5.089,5.089,0,0,1,.453-2.2,3.451,3.451,0,0,1,1.3-1.492,3.7,3.7,0,0,1,2-.531,3.39,3.39,0,0,1,2.363.852,3.043,3.043,0,0,1,1,2.211H9.535a1.992,1.992,0,0,0-.621-1.348,1.932,1.932,0,0,0-1.379-.527,2.023,2.023,0,0,0-1.707.793,3.724,3.724,0,0,0-.605,2.293v.273a3.65,3.65,0,0,0,.6,2.25A2.033,2.033,0,0,0,7.543,18.977ZM17.746,20a3.036,3.036,0,0,1-.2-.891,3.225,3.225,0,0,1-2.406,1.047,2.984,2.984,0,0,1-2.051-.707,2.287,2.287,0,0,1-.8-1.793,2.39,2.39,0,0,1,1-2.051,4.733,4.733,0,0,1,2.824-.73H17.52v-.664A1.623,1.623,0,0,0,17.066,13a1.821,1.821,0,0,0-1.336-.449,2.107,2.107,0,0,0-1.3.391,1.151,1.151,0,0,0-.523.945H12.457a2,2,0,0,1,.449-1.223,3.066,3.066,0,0,1,1.219-.934,4.1,4.1,0,0,1,1.691-.344,3.342,3.342,0,0,1,2.289.73,2.635,2.635,0,0,1,.859,2.012v3.891a4.757,4.757,0,0,0,.3,1.852V20Zm-2.4-1.1a2.54,2.54,0,0,0,1.289-.352,2.127,2.127,0,0,0,.883-.914V15.9H16.387q-2.656,0-2.656,1.555a1.316,1.316,0,0,0,.453,1.063A1.742,1.742,0,0,0,15.348,18.9ZM22.8,20H21.355V8H22.8Z" transform="translate(926 3789)" fill="#12263f"/>
    <path id="Trazado_107301" data-name="Trazado 107301" d="M-46,0V-11.375h3.211a5.169,5.169,0,0,1,2.625.656A4.438,4.438,0,0,1-38.4-8.852,6.078,6.078,0,0,1-37.77-6.07v.727a6.1,6.1,0,0,1-.621,2.82A4.369,4.369,0,0,1-40.164-.664,5.5,5.5,0,0,1-42.848,0Zm1.5-10.141v8.914h1.578a3.435,3.435,0,0,0,2.7-1.078,4.452,4.452,0,0,0,.965-3.07v-.664a4.522,4.522,0,0,0-.91-3.012,3.24,3.24,0,0,0-2.582-1.09ZM-34.16,0h-1.445V-8.453h1.445Zm-1.562-10.7a.863.863,0,0,1,.215-.594.807.807,0,0,1,.637-.242.819.819,0,0,1,.641.242.854.854,0,0,1,.219.594.826.826,0,0,1-.219.586.834.834,0,0,1-.641.234.821.821,0,0,1-.637-.234A.834.834,0,0,1-35.723-10.7Zm8.8,8.453a1.064,1.064,0,0,0-.441-.91,4.249,4.249,0,0,0-1.539-.559,7.277,7.277,0,0,1-1.742-.562,2.479,2.479,0,0,1-.953-.781,1.869,1.869,0,0,1-.309-1.078,2.193,2.193,0,0,1,.879-1.758,3.432,3.432,0,0,1,2.246-.719,3.532,3.532,0,0,1,2.332.742,2.357,2.357,0,0,1,.895,1.9h-1.453a1.3,1.3,0,0,0-.5-1.023,1.888,1.888,0,0,0-1.27-.43,1.976,1.976,0,0,0-1.234.344,1.082,1.082,0,0,0-.445.9.877.877,0,0,0,.414.789,5.1,5.1,0,0,0,1.5.508A7.8,7.8,0,0,1-26.8-4.3a2.558,2.558,0,0,1,1,.809,1.988,1.988,0,0,1,.324,1.152,2.163,2.163,0,0,1-.906,1.816,3.8,3.8,0,0,1-2.352.684,4.257,4.257,0,0,1-1.8-.359,2.922,2.922,0,0,1-1.223-1A2.42,2.42,0,0,1-32.2-2.6h1.445a1.5,1.5,0,0,0,.582,1.152,2.258,2.258,0,0,0,1.434.426,2.331,2.331,0,0,0,1.316-.332A1.02,1.02,0,0,0-26.926-2.242Zm6.836,2.4a3.693,3.693,0,0,1-2.8-1.129,4.19,4.19,0,0,1-1.078-3.02v-.266a5.073,5.073,0,0,1,.48-2.246,3.748,3.748,0,0,1,1.344-1.547,3.378,3.378,0,0,1,1.871-.559,3.166,3.166,0,0,1,2.563,1.086,4.7,4.7,0,0,1,.914,3.109v.6H-22.52a3,3,0,0,0,.73,2.02,2.3,2.3,0,0,0,1.777.77,2.517,2.517,0,0,0,1.3-.312,3.259,3.259,0,0,0,.93-.828l.883.688A3.55,3.55,0,0,1-20.09.156Zm-.18-7.578a1.928,1.928,0,0,0-1.469.637A3.1,3.1,0,0,0-22.473-5h4.234v-.109a2.753,2.753,0,0,0-.594-1.707A1.815,1.815,0,0,0-20.27-7.422Zm6.516-1.031.047,1.063a3.08,3.08,0,0,1,2.531-1.219q2.68,0,2.7,3.023V0H-9.918V-5.594a1.946,1.946,0,0,0-.418-1.352,1.675,1.675,0,0,0-1.277-.437,2.086,2.086,0,0,0-1.234.375,2.546,2.546,0,0,0-.828.984V0h-1.445V-8.453Zm4.781-3.3a1.942,1.942,0,0,1-.48,1.367,1.561,1.561,0,0,1-1.2.523,1.76,1.76,0,0,1-.555-.078,2.993,2.993,0,0,1-.613-.32,2.656,2.656,0,0,0-.547-.293,1.338,1.338,0,0,0-.387-.051.717.717,0,0,0-.547.246.892.892,0,0,0-.227.629l-.969-.055a2.039,2.039,0,0,1,.473-1.383,1.516,1.516,0,0,1,1.2-.547,1.457,1.457,0,0,1,.492.078,3.587,3.587,0,0,1,.594.3,3.494,3.494,0,0,0,.574.3,1.319,1.319,0,0,0,.441.07.7.7,0,0,0,.559-.266.932.932,0,0,0,.223-.617Zm2.3,7.445a4.993,4.993,0,0,1,.488-2.234A3.643,3.643,0,0,1-4.828-8.07,3.7,3.7,0,0,1-2.84-8.609a3.565,3.565,0,0,1,2.793,1.2A4.6,4.6,0,0,1,1.02-4.234v.1A5.036,5.036,0,0,1,.547-1.918,3.589,3.589,0,0,1-.8-.391a3.743,3.743,0,0,1-2.02.547,3.556,3.556,0,0,1-2.785-1.2A4.575,4.575,0,0,1-6.676-4.2Zm1.453.172A3.616,3.616,0,0,0-4.57-1.875a2.088,2.088,0,0,0,1.746.852,2.075,2.075,0,0,0,1.75-.863A3.955,3.955,0,0,0-.426-4.3a3.61,3.61,0,0,0-.66-2.254A2.1,2.1,0,0,0-2.84-7.422a2.075,2.075,0,0,0-1.727.852A3.925,3.925,0,0,0-5.223-4.133ZM8.363,0H6.918V-12H8.363Zm3.883,0H10.8V-8.453h1.445ZM10.684-10.7a.863.863,0,0,1,.215-.594.807.807,0,0,1,.637-.242.819.819,0,0,1,.641.242.854.854,0,0,1,.219.594.826.826,0,0,1-.219.586.834.834,0,0,1-.641.234.821.821,0,0,1-.637-.234A.834.834,0,0,1,10.684-10.7Zm5.242,2.242.047,1.063A3.08,3.08,0,0,1,18.5-8.609q2.68,0,2.7,3.023V0H19.762V-5.594a1.946,1.946,0,0,0-.418-1.352,1.675,1.675,0,0,0-1.277-.437,2.086,2.086,0,0,0-1.234.375A2.546,2.546,0,0,0,16-6.023V0H14.559V-8.453ZM26.895.156A3.693,3.693,0,0,1,24.1-.973a4.19,4.19,0,0,1-1.078-3.02v-.266A5.073,5.073,0,0,1,23.5-6.5a3.748,3.748,0,0,1,1.344-1.547,3.378,3.378,0,0,1,1.871-.559,3.166,3.166,0,0,1,2.563,1.086,4.7,4.7,0,0,1,.914,3.109v.6H24.465a3,3,0,0,0,.73,2.02,2.3,2.3,0,0,0,1.777.77,2.517,2.517,0,0,0,1.3-.312,3.259,3.259,0,0,0,.93-.828l.883.688A3.55,3.55,0,0,1,26.895.156Zm-.18-7.578a1.928,1.928,0,0,0-1.469.637A3.1,3.1,0,0,0,24.512-5h4.234v-.109a2.753,2.753,0,0,0-.594-1.707A1.815,1.815,0,0,0,26.715-7.422ZM37.082,0a3.036,3.036,0,0,1-.2-.891A3.225,3.225,0,0,1,34.473.156a2.984,2.984,0,0,1-2.051-.707,2.287,2.287,0,0,1-.8-1.793,2.39,2.39,0,0,1,1-2.051,4.733,4.733,0,0,1,2.824-.73h1.406v-.664A1.623,1.623,0,0,0,36.4-7a1.821,1.821,0,0,0-1.336-.449,2.107,2.107,0,0,0-1.3.391,1.151,1.151,0,0,0-.523.945H31.793a2,2,0,0,1,.449-1.223,3.066,3.066,0,0,1,1.219-.934,4.1,4.1,0,0,1,1.691-.344,3.342,3.342,0,0,1,2.289.73A2.635,2.635,0,0,1,38.3-5.867v3.891a4.757,4.757,0,0,0,.3,1.852V0Zm-2.4-1.1a2.54,2.54,0,0,0,1.289-.352,2.127,2.127,0,0,0,.883-.914V-4.1H35.723q-2.656,0-2.656,1.555a1.316,1.316,0,0,0,.453,1.063A1.742,1.742,0,0,0,34.684-1.1ZM42.137,0H40.691V-12h1.445Zm-75,12.57a3.073,3.073,0,0,1,2.5-1.18q2.68,0,2.7,3.023V20h-1.445V14.406a1.946,1.946,0,0,0-.418-1.352,1.675,1.675,0,0,0-1.277-.437,2.086,2.086,0,0,0-1.234.375,2.546,2.546,0,0,0-.828.984V20h-1.445V8h1.445Zm6.984,3.125a4.993,4.993,0,0,1,.488-2.234,3.643,3.643,0,0,1,1.359-1.531,3.7,3.7,0,0,1,1.988-.539,3.565,3.565,0,0,1,2.793,1.2,4.6,4.6,0,0,1,1.066,3.18v.1a5.036,5.036,0,0,1-.473,2.215,3.589,3.589,0,0,1-1.352,1.527,3.743,3.743,0,0,1-2.02.547,3.556,3.556,0,0,1-2.785-1.2A4.575,4.575,0,0,1-25.879,15.8Zm1.453.172a3.616,3.616,0,0,0,.652,2.258,2.088,2.088,0,0,0,1.746.852,2.075,2.075,0,0,0,1.75-.863,3.955,3.955,0,0,0,.648-2.418,3.61,3.61,0,0,0-.66-2.254,2.1,2.1,0,0,0-1.754-.863,2.075,2.075,0,0,0-1.727.852A3.925,3.925,0,0,0-24.426,15.867Zm12.141-3.023A4.331,4.331,0,0,0-13,12.789,1.9,1.9,0,0,0-14.926,14v6h-1.445V11.547h1.406l.023.977a2.251,2.251,0,0,1,2.016-1.133,1.477,1.477,0,0,1,.641.109ZM-9.387,20h-1.445V11.547h1.445ZM-10.949,9.3a.863.863,0,0,1,.215-.594.807.807,0,0,1,.637-.242.819.819,0,0,1,.641.242.854.854,0,0,1,.219.594.826.826,0,0,1-.219.586.834.834,0,0,1-.641.234.821.821,0,0,1-.637-.234A.834.834,0,0,1-10.949,9.3Zm5.234,9.516H-.77V20H-7.48V18.938l4.664-6.2H-7.41v-1.2H-1V12.57ZM.348,15.7a4.993,4.993,0,0,1,.488-2.234A3.643,3.643,0,0,1,2.2,11.93a3.7,3.7,0,0,1,1.988-.539,3.565,3.565,0,0,1,2.793,1.2,4.6,4.6,0,0,1,1.066,3.18v.1a5.036,5.036,0,0,1-.473,2.215,3.589,3.589,0,0,1-1.352,1.527,3.743,3.743,0,0,1-2.02.547,3.556,3.556,0,0,1-2.785-1.2A4.575,4.575,0,0,1,.348,15.8Zm1.453.172a3.616,3.616,0,0,0,.652,2.258,2.088,2.088,0,0,0,1.746.852,2.075,2.075,0,0,0,1.75-.863A3.955,3.955,0,0,0,6.6,15.7a3.61,3.61,0,0,0-.66-2.254,2.1,2.1,0,0,0-1.754-.863,2.075,2.075,0,0,0-1.727.852A3.925,3.925,0,0,0,1.8,15.867Zm9.422-4.32.047,1.063A3.08,3.08,0,0,1,13.8,11.391q2.68,0,2.7,3.023V20H15.059V14.406a1.946,1.946,0,0,0-.418-1.352,1.675,1.675,0,0,0-1.277-.437,2.086,2.086,0,0,0-1.234.375,2.546,2.546,0,0,0-.828.984V20H9.855V11.547ZM20.645,9.5v2.047h1.578v1.117H20.645v5.242a1.171,1.171,0,0,0,.211.762.888.888,0,0,0,.719.254,3.5,3.5,0,0,0,.688-.094V20a4.19,4.19,0,0,1-1.109.156,1.8,1.8,0,0,1-1.461-.586,2.517,2.517,0,0,1-.492-1.664V12.664H17.66V11.547H19.2V9.5ZM29.129,20a3.036,3.036,0,0,1-.2-.891,3.225,3.225,0,0,1-2.406,1.047,2.984,2.984,0,0,1-2.051-.707,2.287,2.287,0,0,1-.8-1.793,2.39,2.39,0,0,1,1-2.051,4.733,4.733,0,0,1,2.824-.73H28.9v-.664A1.623,1.623,0,0,0,28.449,13a1.821,1.821,0,0,0-1.336-.449,2.107,2.107,0,0,0-1.3.391,1.151,1.151,0,0,0-.523.945H23.84a2,2,0,0,1,.449-1.223,3.066,3.066,0,0,1,1.219-.934,4.1,4.1,0,0,1,1.691-.344,3.342,3.342,0,0,1,2.289.73,2.635,2.635,0,0,1,.859,2.012v3.891a4.757,4.757,0,0,0,.3,1.852V20Zm-2.4-1.1a2.54,2.54,0,0,0,1.289-.352,2.127,2.127,0,0,0,.883-.914V15.9H27.77q-2.656,0-2.656,1.555a1.316,1.316,0,0,0,.453,1.063A1.742,1.742,0,0,0,26.73,18.9ZM34.184,20H32.738V8h1.445Z" transform="translate(1117 3789)" fill="#12263f"/>
    <g id="Grupo_100249" data-name="Grupo 100249" transform="translate(0 1)">
      <path id="Trazado_107299" data-name="Trazado 107299" d="M-4542.9-8162.294h92.451" transform="translate(5671 11701)" fill="none" stroke="#000" stroke-width="1"/>
      <path id="Polígono_10" data-name="Polígono 10" d="M5,0l5,8H0Z" transform="translate(1227 3534) rotate(90)"/>
    </g>
    <path id="Trazado_107303" data-name="Trazado 107303" d="M9.688-3.609A4.185,4.185,0,0,1,8.355-.824a4.365,4.365,0,0,1-2.98.98,4.008,4.008,0,0,1-3.23-1.445A5.815,5.815,0,0,1,.93-5.156V-6.25A6.481,6.481,0,0,1,1.5-9.039,4.231,4.231,0,0,1,3.1-10.887a4.47,4.47,0,0,1,2.406-.645A4.11,4.11,0,0,1,8.414-10.52a4.235,4.235,0,0,1,1.273,2.8H8.18a3.254,3.254,0,0,0-.848-1.969A2.569,2.569,0,0,0,5.508-10.3,2.685,2.685,0,0,0,3.254-9.234a4.875,4.875,0,0,0-.816,3.023v1.1a5.011,5.011,0,0,0,.773,2.945A2.5,2.5,0,0,0,5.375-1.07a2.887,2.887,0,0,0,1.918-.566A3.143,3.143,0,0,0,8.18-3.609Zm1.438-.7a4.993,4.993,0,0,1,.488-2.234A3.643,3.643,0,0,1,12.973-8.07a3.7,3.7,0,0,1,1.988-.539,3.565,3.565,0,0,1,2.793,1.2,4.6,4.6,0,0,1,1.066,3.18v.1a5.036,5.036,0,0,1-.473,2.215A3.589,3.589,0,0,1,17-.391a3.743,3.743,0,0,1-2.02.547,3.556,3.556,0,0,1-2.785-1.2A4.575,4.575,0,0,1,11.125-4.2Zm1.453.172a3.616,3.616,0,0,0,.652,2.258,2.088,2.088,0,0,0,1.746.852,2.075,2.075,0,0,0,1.75-.863A3.955,3.955,0,0,0,17.375-4.3a3.61,3.61,0,0,0-.66-2.254,2.1,2.1,0,0,0-1.754-.863,2.075,2.075,0,0,0-1.727.852A3.925,3.925,0,0,0,12.578-4.133ZM22-8.453l.047,1.063a3.08,3.08,0,0,1,2.531-1.219q2.68,0,2.7,3.023V0H25.836V-5.594a1.946,1.946,0,0,0-.418-1.352,1.675,1.675,0,0,0-1.277-.437,2.086,2.086,0,0,0-1.234.375,2.546,2.546,0,0,0-.828.984V0H20.633V-8.453ZM31.422-10.5v2.047H33v1.117H31.422v5.242a1.171,1.171,0,0,0,.211.762.888.888,0,0,0,.719.254,3.5,3.5,0,0,0,.688-.094V0A4.19,4.19,0,0,1,31.93.156,1.8,1.8,0,0,1,30.469-.43a2.517,2.517,0,0,1-.492-1.664V-7.336H28.438V-8.453h1.539V-10.5ZM38.2.156A3.693,3.693,0,0,1,35.4-.973a4.19,4.19,0,0,1-1.078-3.02v-.266A5.073,5.073,0,0,1,34.8-6.5a3.748,3.748,0,0,1,1.344-1.547,3.378,3.378,0,0,1,1.871-.559,3.166,3.166,0,0,1,2.563,1.086,4.7,4.7,0,0,1,.914,3.109v.6H35.766a3,3,0,0,0,.73,2.02,2.3,2.3,0,0,0,1.777.77,2.517,2.517,0,0,0,1.3-.312,3.259,3.259,0,0,0,.93-.828l.883.688A3.55,3.55,0,0,1,38.2.156Zm-.18-7.578a1.928,1.928,0,0,0-1.469.637A3.1,3.1,0,0,0,35.813-5h4.234v-.109a2.753,2.753,0,0,0-.594-1.707A1.815,1.815,0,0,0,38.016-7.422Zm6.516-1.031.047,1.063a3.08,3.08,0,0,1,2.531-1.219q2.68,0,2.7,3.023V0H48.367V-5.594a1.946,1.946,0,0,0-.418-1.352,1.675,1.675,0,0,0-1.277-.437,2.086,2.086,0,0,0-1.234.375,2.546,2.546,0,0,0-.828.984V0H43.164V-8.453ZM55.5.156A3.693,3.693,0,0,1,52.7-.973a4.19,4.19,0,0,1-1.078-3.02v-.266a5.073,5.073,0,0,1,.48-2.246,3.748,3.748,0,0,1,1.344-1.547,3.378,3.378,0,0,1,1.871-.559,3.166,3.166,0,0,1,2.563,1.086A4.7,4.7,0,0,1,58.8-4.414v.6H53.07a3,3,0,0,0,.73,2.02,2.3,2.3,0,0,0,1.777.77,2.517,2.517,0,0,0,1.3-.312,3.259,3.259,0,0,0,.93-.828l.883.688A3.55,3.55,0,0,1,55.5.156Zm-.18-7.578a1.928,1.928,0,0,0-1.469.637A3.1,3.1,0,0,0,53.117-5h4.234v-.109a2.753,2.753,0,0,0-.594-1.707A1.815,1.815,0,0,0,55.32-7.422Zm4.8,3.125a4.952,4.952,0,0,1,.922-3.129,2.915,2.915,0,0,1,2.414-1.184A2.932,2.932,0,0,1,65.8-7.594V-12H67.25V0H65.922l-.07-.906A2.943,2.943,0,0,1,63.438.156a2.887,2.887,0,0,1-2.395-1.2,5.008,5.008,0,0,1-.926-3.141Zm1.445.164a3.749,3.749,0,0,0,.594,2.25A1.92,1.92,0,0,0,63.8-1.07,2.109,2.109,0,0,0,65.8-2.3V-6.187a2.125,2.125,0,0,0-1.992-1.2,1.929,1.929,0,0,0-1.656.82A4.128,4.128,0,0,0,61.563-4.133ZM69.109-4.3A4.993,4.993,0,0,1,69.6-6.539,3.643,3.643,0,0,1,70.957-8.07a3.7,3.7,0,0,1,1.988-.539,3.565,3.565,0,0,1,2.793,1.2A4.6,4.6,0,0,1,76.8-4.234v.1a5.036,5.036,0,0,1-.473,2.215A3.589,3.589,0,0,1,74.98-.391a3.743,3.743,0,0,1-2.02.547,3.556,3.556,0,0,1-2.785-1.2A4.575,4.575,0,0,1,69.109-4.2Zm1.453.172a3.616,3.616,0,0,0,.652,2.258,2.088,2.088,0,0,0,1.746.852,2.075,2.075,0,0,0,1.75-.863A3.955,3.955,0,0,0,75.359-4.3a3.61,3.61,0,0,0-.66-2.254,2.1,2.1,0,0,0-1.754-.863,2.075,2.075,0,0,0-1.727.852A3.925,3.925,0,0,0,70.563-4.133ZM82.7-7.156a4.331,4.331,0,0,0-.711-.055A1.9,1.9,0,0,0,80.063-6V0H78.617V-8.453h1.406l.023.977a2.251,2.251,0,0,1,2.016-1.133A1.477,1.477,0,0,1,82.7-8.5ZM2.828,18.773H8.219V20H1.32V8.625H2.828ZM11.273,20H9.828V11.547h1.445ZM9.711,9.3a.863.863,0,0,1,.215-.594.807.807,0,0,1,.637-.242.819.819,0,0,1,.641.242.854.854,0,0,1,.219.594.826.826,0,0,1-.219.586.834.834,0,0,1-.641.234.821.821,0,0,1-.637-.234A.834.834,0,0,1,9.711,9.3Zm5.242,2.242L15,12.609a3.08,3.08,0,0,1,2.531-1.219q2.68,0,2.7,3.023V20H18.789V14.406a1.946,1.946,0,0,0-.418-1.352,1.675,1.675,0,0,0-1.277-.437,2.086,2.086,0,0,0-1.234.375,2.546,2.546,0,0,0-.828.984V20H13.586V11.547Zm10.969,8.609a3.693,3.693,0,0,1-2.8-1.129,4.19,4.19,0,0,1-1.078-3.02v-.266a5.073,5.073,0,0,1,.48-2.246,3.748,3.748,0,0,1,1.344-1.547,3.378,3.378,0,0,1,1.871-.559A3.166,3.166,0,0,1,28.3,12.477a4.7,4.7,0,0,1,.914,3.109v.6H23.492a3,3,0,0,0,.73,2.02,2.3,2.3,0,0,0,1.777.77,2.517,2.517,0,0,0,1.3-.312,3.259,3.259,0,0,0,.93-.828l.883.688A3.55,3.55,0,0,1,25.922,20.156Zm-.18-7.578a1.928,1.928,0,0,0-1.469.637A3.1,3.1,0,0,0,23.539,15h4.234v-.109a2.753,2.753,0,0,0-.594-1.707A1.815,1.815,0,0,0,25.742,12.578ZM36.109,20a3.036,3.036,0,0,1-.2-.891A3.225,3.225,0,0,1,33.5,20.156a2.984,2.984,0,0,1-2.051-.707,2.287,2.287,0,0,1-.8-1.793,2.39,2.39,0,0,1,1-2.051,4.733,4.733,0,0,1,2.824-.73h1.406v-.664A1.623,1.623,0,0,0,35.43,13a1.821,1.821,0,0,0-1.336-.449,2.107,2.107,0,0,0-1.3.391,1.151,1.151,0,0,0-.523.945H30.82a2,2,0,0,1,.449-1.223,3.066,3.066,0,0,1,1.219-.934,4.1,4.1,0,0,1,1.691-.344,3.342,3.342,0,0,1,2.289.73,2.635,2.635,0,0,1,.859,2.012v3.891a4.757,4.757,0,0,0,.3,1.852V20Zm-2.4-1.1A2.54,2.54,0,0,0,35,18.547a2.127,2.127,0,0,0,.883-.914V15.9H34.75q-2.656,0-2.656,1.555a1.316,1.316,0,0,0,.453,1.063A1.742,1.742,0,0,0,33.711,18.9Zm9.969-6.055a4.331,4.331,0,0,0-.711-.055A1.9,1.9,0,0,0,41.039,14v6H39.594V11.547H41l.023.977a2.251,2.251,0,0,1,2.016-1.133,1.477,1.477,0,0,1,.641.109Zm3.063,5.93h5.391V20h-6.9V8.625h1.508ZM58.836,20a3.036,3.036,0,0,1-.2-.891,3.225,3.225,0,0,1-2.406,1.047,2.984,2.984,0,0,1-2.051-.707,2.287,2.287,0,0,1-.8-1.793,2.39,2.39,0,0,1,1-2.051,4.733,4.733,0,0,1,2.824-.73h1.406v-.664A1.623,1.623,0,0,0,58.156,13a1.821,1.821,0,0,0-1.336-.449,2.107,2.107,0,0,0-1.3.391,1.151,1.151,0,0,0-.523.945H53.547A2,2,0,0,1,54,12.668a3.066,3.066,0,0,1,1.219-.934,4.1,4.1,0,0,1,1.691-.344,3.342,3.342,0,0,1,2.289.73,2.635,2.635,0,0,1,.859,2.012v3.891a4.757,4.757,0,0,0,.3,1.852V20Zm-2.4-1.1a2.54,2.54,0,0,0,1.289-.352,2.127,2.127,0,0,0,.883-.914V15.9H57.477q-2.656,0-2.656,1.555a1.316,1.316,0,0,0,.453,1.063A1.742,1.742,0,0,0,56.438,18.9Zm8.531-1.016,1.969-6.336h1.547l-3.4,9.758q-.789,2.109-2.508,2.109l-.273-.023-.539-.1V22.117l.391.031a1.923,1.923,0,0,0,1.145-.3,2.148,2.148,0,0,0,.676-1.086l.32-.859-3.016-8.359h1.578Zm4.3-2.187a4.993,4.993,0,0,1,.488-2.234,3.643,3.643,0,0,1,1.359-1.531,3.7,3.7,0,0,1,1.988-.539,3.565,3.565,0,0,1,2.793,1.2,4.6,4.6,0,0,1,1.066,3.18v.1a5.036,5.036,0,0,1-.473,2.215,3.589,3.589,0,0,1-1.352,1.527,3.743,3.743,0,0,1-2.02.547,3.556,3.556,0,0,1-2.785-1.2A4.575,4.575,0,0,1,69.273,15.8Zm1.453.172a3.616,3.616,0,0,0,.652,2.258,2.211,2.211,0,0,0,3.5-.012,3.955,3.955,0,0,0,.648-2.418,3.61,3.61,0,0,0-.66-2.254,2.1,2.1,0,0,0-1.754-.863,2.075,2.075,0,0,0-1.727.852A3.925,3.925,0,0,0,70.727,15.867ZM84,19.164a3.07,3.07,0,0,1-2.477.992,2.628,2.628,0,0,1-2.059-.785,3.4,3.4,0,0,1-.715-2.324v-5.5H80.2v5.461q0,1.922,1.563,1.922a2.163,2.163,0,0,0,2.2-1.234V11.547h1.445V20H84.031ZM89.563,9.5v2.047h1.578v1.117H89.563v5.242a1.171,1.171,0,0,0,.211.762.888.888,0,0,0,.719.254,3.5,3.5,0,0,0,.688-.094V20a4.19,4.19,0,0,1-1.109.156,1.8,1.8,0,0,1-1.461-.586,2.517,2.517,0,0,1-.492-1.664V12.664H86.578V11.547h1.539V9.5Z" transform="translate(1201 3563)" fill="#12263f"/>
    <g id="Grupo_100250" data-name="Grupo 100250" transform="translate(0 180.724)">
      <path id="Trazado_107299-2" data-name="Trazado 107299" d="M-4542.9-8162.294h92.451" transform="translate(5671 11701)" fill="none" stroke="#000" stroke-width="1"/>
      <path id="Polígono_10-2" data-name="Polígono 10" d="M5,0l5,8H0Z" transform="translate(1227 3534) rotate(90)"/>
    </g>
    <path id="Trazado_107302" data-name="Trazado 107302" d="M5.086-1.992l3.25-9.383H9.977L5.758,0H4.43L.219-11.375H1.852ZM12.844,0H11.4V-8.453h1.445ZM11.281-10.7a.863.863,0,0,1,.215-.594.807.807,0,0,1,.637-.242.819.819,0,0,1,.641.242.854.854,0,0,1,.219.594.826.826,0,0,1-.219.586.834.834,0,0,1-.641.234.821.821,0,0,1-.637-.234A.834.834,0,0,1,11.281-10.7ZM18.664.156a3.693,3.693,0,0,1-2.8-1.129,4.19,4.19,0,0,1-1.078-3.02v-.266A5.073,5.073,0,0,1,15.27-6.5a3.748,3.748,0,0,1,1.344-1.547,3.378,3.378,0,0,1,1.871-.559,3.166,3.166,0,0,1,2.563,1.086,4.7,4.7,0,0,1,.914,3.109v.6H16.234a3,3,0,0,0,.73,2.02,2.3,2.3,0,0,0,1.777.77,2.517,2.517,0,0,0,1.3-.312,3.259,3.259,0,0,0,.93-.828l.883.688A3.55,3.55,0,0,1,18.664.156Zm-.18-7.578a1.928,1.928,0,0,0-1.469.637A3.1,3.1,0,0,0,16.281-5h4.234v-.109a2.753,2.753,0,0,0-.594-1.707A1.815,1.815,0,0,0,18.484-7.422Zm12.633,5.43,1.625-6.461h1.445L31.727,0H30.555L28.5-6.406,26.5,0H25.328L22.875-8.453h1.438l1.664,6.328,1.969-6.328h1.164Z" transform="translate(1236 3725)" fill="#12263f"/>
  </g>
</svg>
