<svg xmlns="http://www.w3.org/2000/svg" width="991" height="460" viewBox="0 0 991 460">
  <g id="Grupo_100259" data-name="Grupo 100259" transform="translate(-329 -872)">
    <path id="Trazado_107314" data-name="Trazado 107314" d="M5.933-3.48,8.481-12.8h3.445L7.62,0H4.245L-.026-12.8H3.393ZM15.847,0H12.876V-9.51h2.971ZM12.7-11.971a1.334,1.334,0,0,1,.457-1.043,1.718,1.718,0,0,1,1.187-.407,1.718,1.718,0,0,1,1.187.407,1.334,1.334,0,0,1,.457,1.043,1.334,1.334,0,0,1-.457,1.043,1.718,1.718,0,0,1-1.187.407,1.718,1.718,0,0,1-1.187-.407A1.334,1.334,0,0,1,12.7-11.971ZM22.271.176a4.889,4.889,0,0,1-3.542-1.305,4.507,4.507,0,0,1-1.354-3.4v-.246a5.84,5.84,0,0,1,.541-2.575,3.955,3.955,0,0,1,1.578-1.727,4.763,4.763,0,0,1,2.461-.611,4.117,4.117,0,0,1,3.164,1.244,4.887,4.887,0,0,1,1.16,3.467v1.151H20.391a2.135,2.135,0,0,0,.694,1.257,2.066,2.066,0,0,0,1.389.457,2.662,2.662,0,0,0,2.2-.984l1.354,1.6A3.784,3.784,0,0,1,24.456-.277,5.3,5.3,0,0,1,22.271.176ZM21.938-7.4q-1.3,0-1.547,1.723h2.988v-.229a1.467,1.467,0,0,0-.36-1.1A1.434,1.434,0,0,0,21.938-7.4ZM35.684-3.9l.958-5.607H39.48L37.239,0h-2.5L33.161-5.643,31.579,0h-2.5L26.833-9.51h2.839l.94,5.739L32.124-9.51h2.065Z" transform="translate(1173 1165)" fill="#12263f"/>
    <path id="Trazado_107304" data-name="Trazado 107304" d="M0,0H254V67H0Z" transform="translate(673 872)" fill="#ffca28"/>
    <path id="Trazado_107305" data-name="Trazado 107305" d="M8.235-2.391H4.008L3.27,0h-3.3L4.667-12.8h2.9L12.3,0H8.982ZM4.746-4.772H7.5L6.117-9.211ZM17.112-2.109a1.317,1.317,0,0,0,.967-.338,1.241,1.241,0,0,0,.334-.945H21.19A3.288,3.288,0,0,1,20.07-.826a4.168,4.168,0,0,1-2.887,1,4.22,4.22,0,0,1-3.27-1.3,5.125,5.125,0,0,1-1.2-3.6v-.123A5.792,5.792,0,0,1,13.25-7.4a3.872,3.872,0,0,1,1.534-1.7,4.573,4.573,0,0,1,2.373-.593A4.116,4.116,0,0,1,20.1-8.657a3.647,3.647,0,0,1,1.09,2.786H18.413A1.626,1.626,0,0,0,18.053-7a1.244,1.244,0,0,0-.967-.4q-1.151,0-1.345,1.468a10.357,10.357,0,0,0-.062,1.283,4.068,4.068,0,0,0,.343,1.986A1.187,1.187,0,0,0,17.112-2.109Zm8.78-9.765V-9.51h1.564v2.057H25.893V-3.1a1.111,1.111,0,0,0,.193.747,1.037,1.037,0,0,0,.765.211,4.345,4.345,0,0,0,.738-.053V-.079a5.466,5.466,0,0,1-1.67.255A3.1,3.1,0,0,1,23.66-.545a2.954,2.954,0,0,1-.729-2.188v-4.72H21.718V-9.51h1.213v-2.364ZM31.746,0H28.775V-9.51h2.971ZM28.6-11.971a1.334,1.334,0,0,1,.457-1.043,1.718,1.718,0,0,1,1.187-.407,1.718,1.718,0,0,1,1.187.407,1.334,1.334,0,0,1,.457,1.043,1.334,1.334,0,0,1-.457,1.043,1.718,1.718,0,0,1-1.187.407,1.718,1.718,0,0,1-1.187-.407A1.334,1.334,0,0,1,28.6-11.971Zm8.763,8.446,1.5-5.985h3.12L38.883,0H35.859l-3.1-9.51h3.129ZM45.993,0H43.022V-9.51h2.971ZM42.847-11.971a1.334,1.334,0,0,1,.457-1.043,1.718,1.718,0,0,1,1.187-.407,1.718,1.718,0,0,1,1.187.407,1.334,1.334,0,0,1,.457,1.043,1.334,1.334,0,0,1-.457,1.043,1.718,1.718,0,0,1-1.187.407,1.718,1.718,0,0,1-1.187-.407A1.334,1.334,0,0,1,42.847-11.971Zm8.42.1V-9.51h1.564v2.057H51.267V-3.1a1.111,1.111,0,0,0,.193.747,1.037,1.037,0,0,0,.765.211,4.345,4.345,0,0,0,.738-.053V-.079a5.466,5.466,0,0,1-1.67.255,3.1,3.1,0,0,1-2.259-.721A2.954,2.954,0,0,1,48.3-2.733v-4.72H47.092V-9.51H48.3v-2.364ZM57.8-4.148,59.379-9.51h3.173l-3.876,11.1-.167.4a2.944,2.944,0,0,1-2.918,1.846,4.642,4.642,0,0,1-1.222-.175V1.556h.387a2.026,2.026,0,0,0,.954-.18A1.094,1.094,0,0,0,56.2.729L56.435.1,53.13-9.51h3.164Z" transform="translate(769 911)" fill="#12263f"/>
    <path id="Trazado_106995" data-name="Trazado 106995" d="M-6933-10745.391v42.164" transform="translate(7733.5 11684.391)" fill="none" stroke="#343434" stroke-width="2"/>
    <path id="Trazado_107306" data-name="Trazado 107306" d="M8,0l8,14H0Z" transform="translate(808 988) rotate(180)" fill="#12263f"/>
    <path id="Trazado_107307" data-name="Trazado 107307" d="M0,0H254V67H0Z" transform="translate(801 1002)" fill="#a9ebf4"/>
    <path id="Trazado_107308" data-name="Trazado 107308" d="M5.933-3.48,8.481-12.8h3.445L7.62,0H4.245L-.026-12.8H3.393ZM15.847,0H12.876V-9.51h2.971ZM12.7-11.971a1.334,1.334,0,0,1,.457-1.043,1.718,1.718,0,0,1,1.187-.407,1.718,1.718,0,0,1,1.187.407,1.334,1.334,0,0,1,.457,1.043,1.334,1.334,0,0,1-.457,1.043,1.718,1.718,0,0,1-1.187.407,1.718,1.718,0,0,1-1.187-.407A1.334,1.334,0,0,1,12.7-11.971ZM22.271.176a4.889,4.889,0,0,1-3.542-1.305,4.507,4.507,0,0,1-1.354-3.4v-.246a5.84,5.84,0,0,1,.541-2.575,3.955,3.955,0,0,1,1.578-1.727,4.763,4.763,0,0,1,2.461-.611,4.117,4.117,0,0,1,3.164,1.244,4.887,4.887,0,0,1,1.16,3.467v1.151H20.391a2.135,2.135,0,0,0,.694,1.257,2.066,2.066,0,0,0,1.389.457,2.662,2.662,0,0,0,2.2-.984l1.354,1.6A3.784,3.784,0,0,1,24.456-.277,5.3,5.3,0,0,1,22.271.176ZM21.938-7.4q-1.3,0-1.547,1.723h2.988v-.229a1.467,1.467,0,0,0-.36-1.1A1.434,1.434,0,0,0,21.938-7.4ZM35.684-3.9l.958-5.607H39.48L37.239,0h-2.5L33.161-5.643,31.579,0h-2.5L26.833-9.51h2.839l.94,5.739L32.124-9.51h2.065Zm15.469,2.32A4.96,4.96,0,0,1,49.069-.308a8.984,8.984,0,0,1-3.006.483,5.36,5.36,0,0,1-4.017-1.538,6.226,6.226,0,0,1-1.608-4.28L40.43-6.75a7.637,7.637,0,0,1,.668-3.3,4.96,4.96,0,0,1,1.912-2.171,5.407,5.407,0,0,1,2.878-.76A5.669,5.669,0,0,1,49.6-11.887a4.637,4.637,0,0,1,1.542,3.265H48.173a2.426,2.426,0,0,0-.686-1.529,2.212,2.212,0,0,0-1.494-.457,2.013,2.013,0,0,0-1.793.984,5.256,5.256,0,0,0-.642,2.813v.773a5.145,5.145,0,0,0,.655,2.878,2.316,2.316,0,0,0,2.061.962,2.592,2.592,0,0,0,1.793-.536V-4.72H45.923V-6.838h5.229Zm7.409-5.247-.976-.07a1.752,1.752,0,0,0-1.793.879V0H52.831V-9.51h2.777l.1,1.222a2.294,2.294,0,0,1,2.083-1.4,2.888,2.888,0,0,1,.826.105Zm.378,1.986a5.613,5.613,0,0,1,.554-2.536,3.96,3.96,0,0,1,1.591-1.709,4.791,4.791,0,0,1,2.435-.6,4.373,4.373,0,0,1,3.366,1.323,5.076,5.076,0,0,1,1.23,3.6v.105A4.925,4.925,0,0,1,66.88-1.129,4.384,4.384,0,0,1,63.536.176a4.434,4.434,0,0,1-3.261-1.217,4.761,4.761,0,0,1-1.327-3.3Zm2.962.185a3.538,3.538,0,0,0,.413,1.934,1.376,1.376,0,0,0,1.222.615q1.582,0,1.617-2.435v-.3q0-2.558-1.635-2.558-1.485,0-1.608,2.206Zm13.184,3.63a3.054,3.054,0,0,1-2.54,1.2,3,3,0,0,1-2.369-.91,3.826,3.826,0,0,1-.8-2.615V-9.51h2.962v6.179a1.065,1.065,0,0,0,1.187,1.222,1.548,1.548,0,0,0,1.45-.729V-9.51H77.95V0H75.173ZM88.4-4.685a5.735,5.735,0,0,1-1,3.538A3.2,3.2,0,0,1,84.709.176a2.742,2.742,0,0,1-2.153-.958V3.656H79.594V-9.51h2.769l.088.879a2.742,2.742,0,0,1,2.241-1.055,3.224,3.224,0,0,1,2.733,1.3A5.805,5.805,0,0,1,88.4-4.825Zm-2.962-.185q0-2.531-1.477-2.531a1.394,1.394,0,0,0-1.406.756V-2.9a1.439,1.439,0,0,0,1.424.791q1.415,0,1.459-2.443Z" transform="translate(884 1041)" fill="#12263f"/>
    <path id="Trazado_106996" data-name="Trazado 106996" d="M-7054-10432.474v-161.94h520.127v27.068" transform="translate(7727 11693)" fill="none" stroke="#000" stroke-width="2"/>
    <path id="Trazado_106997" data-name="Trazado 106997" d="M-6798.5-10631v66.67" transform="translate(7727 11700)" fill="none" stroke="#21214b" stroke-width="2"/>
    <path id="Trazado_107309" data-name="Trazado 107309" d="M0,0H254V67H0Z" transform="translate(535 1126)" fill="#a9ebf4"/>
    <path id="Trazado_107310" data-name="Trazado 107310" d="M5.933-3.48,8.481-12.8h3.445L7.62,0H4.245L-.026-12.8H3.393ZM15.847,0H12.876V-9.51h2.971ZM12.7-11.971a1.334,1.334,0,0,1,.457-1.043,1.718,1.718,0,0,1,1.187-.407,1.718,1.718,0,0,1,1.187.407,1.334,1.334,0,0,1,.457,1.043,1.334,1.334,0,0,1-.457,1.043,1.718,1.718,0,0,1-1.187.407,1.718,1.718,0,0,1-1.187-.407A1.334,1.334,0,0,1,12.7-11.971ZM22.271.176a4.889,4.889,0,0,1-3.542-1.305,4.507,4.507,0,0,1-1.354-3.4v-.246a5.84,5.84,0,0,1,.541-2.575,3.955,3.955,0,0,1,1.578-1.727,4.763,4.763,0,0,1,2.461-.611,4.117,4.117,0,0,1,3.164,1.244,4.887,4.887,0,0,1,1.16,3.467v1.151H20.391a2.135,2.135,0,0,0,.694,1.257,2.066,2.066,0,0,0,1.389.457,2.662,2.662,0,0,0,2.2-.984l1.354,1.6A3.784,3.784,0,0,1,24.456-.277,5.3,5.3,0,0,1,22.271.176ZM21.938-7.4q-1.3,0-1.547,1.723h2.988v-.229a1.467,1.467,0,0,0-.36-1.1A1.434,1.434,0,0,0,21.938-7.4ZM35.684-3.9l.958-5.607H39.48L37.239,0h-2.5L33.161-5.643,31.579,0h-2.5L26.833-9.51h2.839l.94,5.739L32.124-9.51h2.065Zm15.469,2.32A4.96,4.96,0,0,1,49.069-.308a8.984,8.984,0,0,1-3.006.483,5.36,5.36,0,0,1-4.017-1.538,6.226,6.226,0,0,1-1.608-4.28L40.43-6.75a7.637,7.637,0,0,1,.668-3.3,4.96,4.96,0,0,1,1.912-2.171,5.407,5.407,0,0,1,2.878-.76A5.669,5.669,0,0,1,49.6-11.887a4.637,4.637,0,0,1,1.542,3.265H48.173a2.426,2.426,0,0,0-.686-1.529,2.212,2.212,0,0,0-1.494-.457,2.013,2.013,0,0,0-1.793.984,5.256,5.256,0,0,0-.642,2.813v.773a5.145,5.145,0,0,0,.655,2.878,2.316,2.316,0,0,0,2.061.962,2.592,2.592,0,0,0,1.793-.536V-4.72H45.923V-6.838h5.229Zm7.409-5.247-.976-.07a1.752,1.752,0,0,0-1.793.879V0H52.831V-9.51h2.777l.1,1.222a2.294,2.294,0,0,1,2.083-1.4,2.888,2.888,0,0,1,.826.105Zm.378,1.986a5.613,5.613,0,0,1,.554-2.536,3.96,3.96,0,0,1,1.591-1.709,4.791,4.791,0,0,1,2.435-.6,4.373,4.373,0,0,1,3.366,1.323,5.076,5.076,0,0,1,1.23,3.6v.105A4.925,4.925,0,0,1,66.88-1.129,4.384,4.384,0,0,1,63.536.176a4.434,4.434,0,0,1-3.261-1.217,4.761,4.761,0,0,1-1.327-3.3Zm2.962.185a3.538,3.538,0,0,0,.413,1.934,1.376,1.376,0,0,0,1.222.615q1.582,0,1.617-2.435v-.3q0-2.558-1.635-2.558-1.485,0-1.608,2.206Zm13.184,3.63a3.054,3.054,0,0,1-2.54,1.2,3,3,0,0,1-2.369-.91,3.826,3.826,0,0,1-.8-2.615V-9.51h2.962v6.179a1.065,1.065,0,0,0,1.187,1.222,1.548,1.548,0,0,0,1.45-.729V-9.51H77.95V0H75.173ZM88.4-4.685a5.735,5.735,0,0,1-1,3.538A3.2,3.2,0,0,1,84.709.176a2.742,2.742,0,0,1-2.153-.958V3.656H79.594V-9.51h2.769l.088.879a2.742,2.742,0,0,1,2.241-1.055,3.224,3.224,0,0,1,2.733,1.3A5.805,5.805,0,0,1,88.4-4.825Zm-2.962-.185q0-2.531-1.477-2.531a1.394,1.394,0,0,0-1.406.756V-2.9a1.439,1.439,0,0,0,1.424.791q1.415,0,1.459-2.443Z" transform="translate(618 1165)" fill="#12263f"/>
    <path id="Trazado_107311" data-name="Trazado 107311" d="M0,0H254V67H0Z" transform="translate(800 1126)" fill="#dee4f0"/>
    <path id="Trazado_107312" data-name="Trazado 107312" d="M5.933-3.48,8.481-12.8h3.445L7.62,0H4.245L-.026-12.8H3.393ZM15.847,0H12.876V-9.51h2.971ZM12.7-11.971a1.334,1.334,0,0,1,.457-1.043,1.718,1.718,0,0,1,1.187-.407,1.718,1.718,0,0,1,1.187.407,1.334,1.334,0,0,1,.457,1.043,1.334,1.334,0,0,1-.457,1.043,1.718,1.718,0,0,1-1.187.407,1.718,1.718,0,0,1-1.187-.407A1.334,1.334,0,0,1,12.7-11.971ZM22.271.176a4.889,4.889,0,0,1-3.542-1.305,4.507,4.507,0,0,1-1.354-3.4v-.246a5.84,5.84,0,0,1,.541-2.575,3.955,3.955,0,0,1,1.578-1.727,4.763,4.763,0,0,1,2.461-.611,4.117,4.117,0,0,1,3.164,1.244,4.887,4.887,0,0,1,1.16,3.467v1.151H20.391a2.135,2.135,0,0,0,.694,1.257,2.066,2.066,0,0,0,1.389.457,2.662,2.662,0,0,0,2.2-.984l1.354,1.6A3.784,3.784,0,0,1,24.456-.277,5.3,5.3,0,0,1,22.271.176ZM21.938-7.4q-1.3,0-1.547,1.723h2.988v-.229a1.467,1.467,0,0,0-.36-1.1A1.434,1.434,0,0,0,21.938-7.4ZM35.684-3.9l.958-5.607H39.48L37.239,0h-2.5L33.161-5.643,31.579,0h-2.5L26.833-9.51h2.839l.94,5.739L32.124-9.51h2.065Z" transform="translate(907 1165)" fill="#12263f"/>
    <path id="Trazado_107313" data-name="Trazado 107313" d="M0,0H254V67H0Z" transform="translate(1066 1126)" fill="#dee4f0"/>
    <path id="Trazado_106998" data-name="Trazado 106998" d="M-7304.615-10435.354v-30.33h503.576v30.33" transform="translate(7727 11700)" fill="none" stroke="#21214b" stroke-width="2"/>
    <path id="Trazado_107316" data-name="Trazado 107316" d="M0,0H186V67H0Z" transform="translate(329 1265)" fill="#dee4f0"/>
    <path id="Trazado_107319" data-name="Trazado 107319" d="M5.933-3.48,8.481-12.8h3.445L7.62,0H4.245L-.026-12.8H3.393ZM15.847,0H12.876V-9.51h2.971ZM12.7-11.971a1.334,1.334,0,0,1,.457-1.043,1.718,1.718,0,0,1,1.187-.407,1.718,1.718,0,0,1,1.187.407,1.334,1.334,0,0,1,.457,1.043,1.334,1.334,0,0,1-.457,1.043,1.718,1.718,0,0,1-1.187.407,1.718,1.718,0,0,1-1.187-.407A1.334,1.334,0,0,1,12.7-11.971ZM22.271.176a4.889,4.889,0,0,1-3.542-1.305,4.507,4.507,0,0,1-1.354-3.4v-.246a5.84,5.84,0,0,1,.541-2.575,3.955,3.955,0,0,1,1.578-1.727,4.763,4.763,0,0,1,2.461-.611,4.117,4.117,0,0,1,3.164,1.244,4.887,4.887,0,0,1,1.16,3.467v1.151H20.391a2.135,2.135,0,0,0,.694,1.257,2.066,2.066,0,0,0,1.389.457,2.662,2.662,0,0,0,2.2-.984l1.354,1.6A3.784,3.784,0,0,1,24.456-.277,5.3,5.3,0,0,1,22.271.176ZM21.938-7.4q-1.3,0-1.547,1.723h2.988v-.229a1.467,1.467,0,0,0-.36-1.1A1.434,1.434,0,0,0,21.938-7.4ZM35.684-3.9l.958-5.607H39.48L37.239,0h-2.5L33.161-5.643,31.579,0h-2.5L26.833-9.51h2.839l.94,5.739L32.124-9.51h2.065Z" transform="translate(402 1304)" fill="#12263f"/>
    <path id="Trazado_107317" data-name="Trazado 107317" d="M0,0H186V67H0Z" transform="translate(581 1265)" fill="#dee4f0"/>
    <path id="Trazado_107320" data-name="Trazado 107320" d="M5.933-3.48,8.481-12.8h3.445L7.62,0H4.245L-.026-12.8H3.393ZM15.847,0H12.876V-9.51h2.971ZM12.7-11.971a1.334,1.334,0,0,1,.457-1.043,1.718,1.718,0,0,1,1.187-.407,1.718,1.718,0,0,1,1.187.407,1.334,1.334,0,0,1,.457,1.043,1.334,1.334,0,0,1-.457,1.043,1.718,1.718,0,0,1-1.187.407,1.718,1.718,0,0,1-1.187-.407A1.334,1.334,0,0,1,12.7-11.971ZM22.271.176a4.889,4.889,0,0,1-3.542-1.305,4.507,4.507,0,0,1-1.354-3.4v-.246a5.84,5.84,0,0,1,.541-2.575,3.955,3.955,0,0,1,1.578-1.727,4.763,4.763,0,0,1,2.461-.611,4.117,4.117,0,0,1,3.164,1.244,4.887,4.887,0,0,1,1.16,3.467v1.151H20.391a2.135,2.135,0,0,0,.694,1.257,2.066,2.066,0,0,0,1.389.457,2.662,2.662,0,0,0,2.2-.984l1.354,1.6A3.784,3.784,0,0,1,24.456-.277,5.3,5.3,0,0,1,22.271.176ZM21.938-7.4q-1.3,0-1.547,1.723h2.988v-.229a1.467,1.467,0,0,0-.36-1.1A1.434,1.434,0,0,0,21.938-7.4ZM35.684-3.9l.958-5.607H39.48L37.239,0h-2.5L33.161-5.643,31.579,0h-2.5L26.833-9.51h2.839l.94,5.739L32.124-9.51h2.065Z" transform="translate(654 1304)" fill="#12263f"/>
    <path id="Trazado_107318" data-name="Trazado 107318" d="M0,0H186V67H0Z" transform="translate(833 1265)" fill="#dee4f0"/>
    <path id="Trazado_107321" data-name="Trazado 107321" d="M5.933-3.48,8.481-12.8h3.445L7.62,0H4.245L-.026-12.8H3.393ZM15.847,0H12.876V-9.51h2.971ZM12.7-11.971a1.334,1.334,0,0,1,.457-1.043,1.718,1.718,0,0,1,1.187-.407,1.718,1.718,0,0,1,1.187.407,1.334,1.334,0,0,1,.457,1.043,1.334,1.334,0,0,1-.457,1.043,1.718,1.718,0,0,1-1.187.407,1.718,1.718,0,0,1-1.187-.407A1.334,1.334,0,0,1,12.7-11.971ZM22.271.176a4.889,4.889,0,0,1-3.542-1.305,4.507,4.507,0,0,1-1.354-3.4v-.246a5.84,5.84,0,0,1,.541-2.575,3.955,3.955,0,0,1,1.578-1.727,4.763,4.763,0,0,1,2.461-.611,4.117,4.117,0,0,1,3.164,1.244,4.887,4.887,0,0,1,1.16,3.467v1.151H20.391a2.135,2.135,0,0,0,.694,1.257,2.066,2.066,0,0,0,1.389.457,2.662,2.662,0,0,0,2.2-.984l1.354,1.6A3.784,3.784,0,0,1,24.456-.277,5.3,5.3,0,0,1,22.271.176ZM21.938-7.4q-1.3,0-1.547,1.723h2.988v-.229a1.467,1.467,0,0,0-.36-1.1A1.434,1.434,0,0,0,21.938-7.4ZM35.684-3.9l.958-5.607H39.48L37.239,0h-2.5L33.161-5.643,31.579,0h-2.5L26.833-9.51h2.839l.94,5.739L32.124-9.51h2.065Z" transform="translate(906 1304)" fill="#12263f"/>
    <path id="Trazado_107315" data-name="Trazado 107315" d="M5.933-3.48,8.481-12.8h3.445L7.62,0H4.245L-.026-12.8H3.393ZM15.847,0H12.876V-9.51h2.971ZM12.7-11.971a1.334,1.334,0,0,1,.457-1.043,1.718,1.718,0,0,1,1.187-.407,1.718,1.718,0,0,1,1.187.407,1.334,1.334,0,0,1,.457,1.043,1.334,1.334,0,0,1-.457,1.043,1.718,1.718,0,0,1-1.187.407,1.718,1.718,0,0,1-1.187-.407A1.334,1.334,0,0,1,12.7-11.971ZM22.271.176a4.889,4.889,0,0,1-3.542-1.305,4.507,4.507,0,0,1-1.354-3.4v-.246a5.84,5.84,0,0,1,.541-2.575,3.955,3.955,0,0,1,1.578-1.727,4.763,4.763,0,0,1,2.461-.611,4.117,4.117,0,0,1,3.164,1.244,4.887,4.887,0,0,1,1.16,3.467v1.151H20.391a2.135,2.135,0,0,0,.694,1.257,2.066,2.066,0,0,0,1.389.457,2.662,2.662,0,0,0,2.2-.984l1.354,1.6A3.784,3.784,0,0,1,24.456-.277,5.3,5.3,0,0,1,22.271.176ZM21.938-7.4q-1.3,0-1.547,1.723h2.988v-.229a1.467,1.467,0,0,0-.36-1.1A1.434,1.434,0,0,0,21.938-7.4ZM35.684-3.9l.958-5.607H39.48L37.239,0h-2.5L33.161-5.643,31.579,0h-2.5L26.833-9.51h2.839l.94,5.739L32.124-9.51h2.065Z" transform="translate(1173 1166)" fill="#12263f"/>
  </g>
</svg>
