<svg xmlns="http://www.w3.org/2000/svg" width="84" height="84" viewBox="0 0 84 84">
  <g id="Grupo_99771" data-name="Grupo 99771" transform="translate(-315 -3185)">
    <g id="Grupo_99770" data-name="Grupo 99770" transform="translate(0 2296)">
      <rect id="Rectángulo_33786" data-name="Rectángulo 33786" width="84" height="84" rx="10" transform="translate(315 889)" fill="#fff"/>
    </g>
    <path id="Trazado_106937" data-name="Trazado 106937" d="M184.234.791a2.506,2.506,0,0,0-3.654,0l-7.026,7-.324.324a31.025,31.025,0,0,0-14.039-3.138h-.154A31.022,31.022,0,0,0,145,8.117l-.325-.324-7.026-7a2.506,2.506,0,0,0-3.654,0,2.513,2.513,0,0,0,0,3.651l6.8,6.8a28.316,28.316,0,0,0-5.9,5.3,30.759,30.759,0,0,0-7.134,18.188c0,.072-.011.143-.014.215q-.033.706-.033,1.418h62.812q0-.712-.033-1.418c0-.072-.011-.143-.015-.215a30.749,30.749,0,0,0-7.134-18.188,28.3,28.3,0,0,0-5.9-5.3l6.8-6.8A2.513,2.513,0,0,0,184.234.791ZM146.021,27.212a3.924,3.924,0,1,1,3.924-3.924A3.924,3.924,0,0,1,146.021,27.212Zm26.186,0a3.924,3.924,0,1,1,3.924-3.924A3.924,3.924,0,0,1,172.208,27.212Z" transform="translate(197.885 3207.707)" fill="#a6d864"/>
  </g>
</svg>
