<svg xmlns="http://www.w3.org/2000/svg" width="145" height="135" viewBox="0 0 145 135">
  <g id="Grupo_99958" data-name="Grupo 99958" transform="translate(-279 -2727)">
    <rect id="Rectángulo_33953" data-name="Rectángulo 33953" width="145" height="135" rx="10" transform="translate(279 2727)" fill="#f3f9ff"/>
    <path id="Trazado_107035" data-name="Trazado 107035" d="M280.706,7.5,256.333,50.1l24.373,42.6h5.143V7.5Z" transform="translate(95.224 2744.785)" fill="#5cdaff"/>
    <path id="Trazado_107036" data-name="Trazado 107036" d="M83.5,7.5V92.706h54V74.591l-5.143-5.143L137.5,64.3V59.161l-5.143-5.029,5.143-5.258V7.5Z" transform="translate(238.426 2744.785)" fill="#a3ebff"/>
    <path id="Trazado_107037" data-name="Trazado 107037" d="M343.643,338.833l-5.143,5.143,5.143,5.143h5.143V338.833Z" transform="translate(27.144 2470.256)" fill="#ffa726"/>
    <path id="Trazado_107038" data-name="Trazado 107038" d="M273.786,338.833,263.5,343.976l10.286,5.143H281.5V338.833Z" transform="translate(89.286 2470.256)" fill="#ffca28"/>
    <path id="Trazado_107039" data-name="Trazado 107039" d="M268.643,338.833l-5.143,5.143,5.143,5.143h5.143V338.833Z" transform="translate(89.286 2470.256)" fill="#cffbff"/>
    <path id="Trazado_107040" data-name="Trazado 107040" d="M113.5,338.833h30.859v10.286H113.5Z" transform="translate(213.57 2470.256)" fill="#fff"/>
    <path id="Trazado_107041" data-name="Trazado 107041" d="M343.643,248.833l-5.143,5.143,5.143,5.143h5.143V248.833Z" transform="translate(27.144 2544.826)" fill="#4dd0e1"/>
    <path id="Trazado_107042" data-name="Trazado 107042" d="M273.786,248.833,263.5,253.976l10.286,5.143H281.5V248.833Z" transform="translate(89.286 2544.826)" fill="#a9ebf4"/>
    <path id="Trazado_107043" data-name="Trazado 107043" d="M268.643,248.833l-5.143,5.143,5.143,5.143h5.143V248.833Z" transform="translate(89.286 2544.826)" fill="#cffbff"/>
    <path id="Trazado_107044" data-name="Trazado 107044" d="M113.5,248.833h30.859v10.286H113.5Z" transform="translate(213.57 2544.826)" fill="#fff"/>
    <circle id="Elipse_1751" data-name="Elipse 1751" cx="12.858" cy="12.858" r="12.858" transform="translate(338.643 2760.114)" fill="#fff"/>
    <path id="Trazado_107045" data-name="Trazado 107045" d="M256,83.167V98.6a7.715,7.715,0,0,0,0-15.43Z" transform="translate(95.497 2682.091)" fill="#44c5eb"/>
    <path id="Trazado_107046" data-name="Trazado 107046" d="M221.29,90.882c0-4.261-1.151-7.715-2.572-7.715a7.715,7.715,0,1,0,0,15.43C220.139,98.6,221.29,95.143,221.29,90.882Z" transform="translate(132.782 2682.091)" fill="#5cdaff"/>
    <circle id="Elipse_1752" data-name="Elipse 1752" cx="1.286" cy="1.286" r="1.286" transform="translate(330.927 2812.947)"/>
    <circle id="Elipse_1753" data-name="Elipse 1753" cx="1.286" cy="1.286" r="1.286" transform="translate(336.07 2812.947)"/>
    <circle id="Elipse_1754" data-name="Elipse 1754" cx="1.286" cy="1.286" r="1.286" transform="translate(341.214 2812.947)"/>
    <circle id="Elipse_1755" data-name="Elipse 1755" cx="1.286" cy="1.286" r="1.286" transform="translate(346.357 2812.947)"/>
    <circle id="Elipse_1756" data-name="Elipse 1756" cx="1.286" cy="1.286" r="1.286" transform="translate(351.5 2812.947)"/>
    <circle id="Elipse_1757" data-name="Elipse 1757" cx="1.286" cy="1.286" r="1.286" transform="translate(356.643 2812.947)"/>
    <path id="Trazado_107047" data-name="Trazado 107047" d="M291.476,428.833h-5.143v5.143h5.143a2.572,2.572,0,0,0,0-5.143Z" transform="translate(70.367 2395.686)" fill="#ffca28"/>
    <path id="Trazado_107048" data-name="Trazado 107048" d="M201.906,431.4a2.572,2.572,0,0,0-2.572-2.572H183.9a2.572,2.572,0,1,0,0,5.143h15.43A2.571,2.571,0,0,0,201.906,431.4Z" transform="translate(157.366 2395.686)" fill="#ffa726"/>
    <circle id="Elipse_1758" data-name="Elipse 1758" cx="1.286" cy="1.286" r="1.286" transform="translate(330.927 2812.947)"/>
    <circle id="Elipse_1759" data-name="Elipse 1759" cx="1.286" cy="1.286" r="1.286" transform="translate(336.07 2812.947)"/>
    <circle id="Elipse_1760" data-name="Elipse 1760" cx="1.286" cy="1.286" r="1.286" transform="translate(341.214 2812.947)"/>
    <circle id="Elipse_1761" data-name="Elipse 1761" cx="1.286" cy="1.286" r="1.286" transform="translate(346.357 2812.947)"/>
    <circle id="Elipse_1762" data-name="Elipse 1762" cx="1.286" cy="1.286" r="1.286" transform="translate(351.5 2812.947)"/>
    <circle id="Elipse_1763" data-name="Elipse 1763" cx="1.286" cy="1.286" r="1.286" transform="translate(356.643 2812.947)"/>
    <path id="Trazado_107049" data-name="Trazado 107049" d="M136.433,0H77.286A1.286,1.286,0,0,0,76,1.286V52.947a1.286,1.286,0,0,0,2.572,0V2.572h56.576V85.206H78.572V58.09a1.286,1.286,0,0,0-2.572,0v28.4a1.286,1.286,0,0,0,1.286,1.286h59.147a1.286,1.286,0,0,0,1.286-1.286V1.286A1.286,1.286,0,0,0,136.433,0Z" transform="translate(244.641 2751)"/>
    <path id="Trazado_107050" data-name="Trazado 107050" d="M221.506,84.668a9,9,0,1,0-9,9A9.011,9.011,0,0,0,221.506,84.668Zm-15.43,0a6.429,6.429,0,1,1,6.429,6.429A6.436,6.436,0,0,1,206.077,84.668Z" transform="translate(138.995 2688.305)"/>
    <path id="Trazado_107051" data-name="Trazado 107051" d="M201.793,59.811a14.144,14.144,0,1,0-14.144,14.144A14.16,14.16,0,0,0,201.793,59.811Zm-25.716,0a11.572,11.572,0,1,1,11.572,11.572A11.585,11.585,0,0,1,176.077,59.811Z" transform="translate(163.852 2713.162)"/>
    <path id="Trazado_107052" data-name="Trazado 107052" d="M106,242.619v10.286a1.286,1.286,0,0,0,1.286,1.286h48.861a1.286,1.286,0,0,0,1.286-1.286V242.619a1.286,1.286,0,0,0-1.286-1.286H107.286A1.286,1.286,0,0,0,106,242.619Zm48.861,9H144.574V243.9h10.286ZM108.572,243.9H142v7.715H108.572Z" transform="translate(219.784 2551.041)"/>
    <path id="Trazado_107053" data-name="Trazado 107053" d="M106,342.905a1.286,1.286,0,0,0,1.286,1.286h48.861a1.286,1.286,0,0,0,1.286-1.286V332.619a1.286,1.286,0,0,0-1.286-1.286H107.286A1.286,1.286,0,0,0,106,332.619Zm48.861-1.286H144.574V333.9h10.286ZM108.572,333.9H142v7.715H108.572Z" transform="translate(219.784 2476.471)"/>
    <path id="Trazado_107054" data-name="Trazado 107054" d="M177.69,421.333a3.857,3.857,0,0,0,0,7.715h20.573a3.857,3.857,0,1,0,0-7.715Zm21.859,3.857a1.287,1.287,0,0,1-1.286,1.286H177.69a1.286,1.286,0,1,1,0-2.572h20.573A1.287,1.287,0,0,1,199.549,425.19Z" transform="translate(163.58 2401.9)"/>
  </g>
</svg>
