<svg xmlns="http://www.w3.org/2000/svg" width="145" height="135" viewBox="0 0 145 135">
  <g id="Grupo_99968" data-name="Grupo 99968" transform="translate(-279 -2915)">
    <g id="Grupo_99957" data-name="Grupo 99957" transform="translate(-5 380)">
      <rect id="Rectángulo_33953" data-name="Rectángulo 33953" width="145" height="135" rx="10" transform="translate(284 2535)" fill="#f3f9ff"/>
    </g>
    <g id="base-de-datos-en-la-nube" transform="translate(307 2942)">
      <g id="Grupo_99966" data-name="Grupo 99966" transform="translate(2.419 2.419)">
        <g id="Grupo_99959" data-name="Grupo 99959" transform="translate(22.71 19.871)">
          <path id="Trazado_107055" data-name="Trazado 107055" d="M54.9,16H36.452a7.11,7.11,0,0,1-5.677,2.839H18V58.581a2.847,2.847,0,0,0,2.839,2.839H47.154a8.441,8.441,0,0,1,6.33-2.839,8.351,8.351,0,0,1,4.258,1.15V18.839A2.847,2.847,0,0,0,54.9,16Z" transform="translate(-18 -16)" fill="#ffca28"/>
        </g>
        <g id="Grupo_99960" data-name="Grupo 99960" transform="translate(0)">
          <path id="Trazado_107056" data-name="Trazado 107056" d="M43.161,21.871a7.11,7.11,0,0,1-5.677,2.839H9.1a7.1,7.1,0,1,1,0-14.194A8.513,8.513,0,0,1,25.462,7.223a7,7,0,0,1,10.106,3.591,7.2,7.2,0,0,1,1.916-.3,7.1,7.1,0,0,1,7.1,7.1A7.013,7.013,0,0,1,43.161,21.871Z" transform="translate(-2 -2)" fill="#a9ebf4"/>
        </g>
        <g id="Grupo_99961" data-name="Grupo 99961" transform="translate(42.581 62.452)">
          <path id="Trazado_107057" data-name="Trazado 107057" d="M51.871,47.15a8.512,8.512,0,0,1,3.591,4.074,7,7,0,0,1,10.106,3.591,7.2,7.2,0,0,1,1.916-.3,7.1,7.1,0,1,1,0,14.194H39.1a7.1,7.1,0,1,1,0-14.194A8.5,8.5,0,0,1,51.871,47.15Z" transform="translate(-32 -46)" fill="#e6e9ed"/>
        </g>
        <g id="Grupo_99962" data-name="Grupo 99962" transform="translate(19.871 75.226)">
          <ellipse id="Elipse_1764" data-name="Elipse 1764" cx="3" cy="2.5" rx="3" ry="2.5" transform="translate(-0.29 0.354)" fill="#ff826e"/>
        </g>
        <g id="Grupo_99963" data-name="Grupo 99963" transform="translate(31.226 75.226)">
          <circle id="Elipse_1765" data-name="Elipse 1765" cx="2.5" cy="2.5" r="2.5" transform="translate(0.355 0.354)" fill="#ff826e"/>
        </g>
        <g id="Grupo_99964" data-name="Grupo 99964" transform="translate(59.613 4.258)">
          <ellipse id="Elipse_1766" data-name="Elipse 1766" cx="3" cy="2.5" rx="3" ry="2.5" transform="translate(-0.032 0.322)" fill="#ff826e"/>
        </g>
        <g id="Grupo_99965" data-name="Grupo 99965" transform="translate(48.258 4.258)">
          <circle id="Elipse_1767" data-name="Elipse 1767" cx="2.5" cy="2.5" r="2.5" transform="translate(0.323 0.322)" fill="#ff826e"/>
        </g>
      </g>
      <g id="Grupo_99967" data-name="Grupo 99967" transform="translate(1 1)">
        <path id="Trazado_107058" data-name="Trazado 107058" d="M21,27h2.839v2.839H21Z" transform="translate(7.387 9.903)"/>
        <path id="Trazado_107059" data-name="Trazado 107059" d="M29,27h2.839v2.839H29Z" transform="translate(10.742 9.903)"/>
        <path id="Trazado_107060" data-name="Trazado 107060" d="M25,27h2.839v2.839H25Z" transform="translate(9.065 9.903)"/>
        <path id="Trazado_107061" data-name="Trazado 107061" d="M25,43h2.839v2.839H25Z" transform="translate(9.065 16.613)"/>
        <path id="Trazado_107062" data-name="Trazado 107062" d="M21,43h2.839v2.839H21Z" transform="translate(7.387 16.613)"/>
        <path id="Trazado_107063" data-name="Trazado 107063" d="M29,43h2.839v2.839H29Z" transform="translate(10.742 16.613)"/>
        <path id="Trazado_107064" data-name="Trazado 107064" d="M37,19h2.839v2.839H37Z" transform="translate(14.097 6.548)"/>
        <path id="Trazado_107065" data-name="Trazado 107065" d="M41,19h2.839v2.839H41Z" transform="translate(15.774 6.548)"/>
        <path id="Trazado_107066" data-name="Trazado 107066" d="M33,19h2.839v2.839H33Z" transform="translate(12.419 6.548)"/>
        <path id="Trazado_107067" data-name="Trazado 107067" d="M33,35h2.839v2.839H33Z" transform="translate(12.419 13.258)"/>
        <path id="Trazado_107068" data-name="Trazado 107068" d="M41,35h2.839v2.839H41Z" transform="translate(15.774 13.258)"/>
        <path id="Trazado_107069" data-name="Trazado 107069" d="M37,35h2.839v2.839H37Z" transform="translate(14.097 13.258)"/>
        <path id="Trazado_107070" data-name="Trazado 107070" d="M27.258,54a4.258,4.258,0,1,0,4.258,4.258A4.263,4.263,0,0,0,27.258,54Zm0,5.677a1.419,1.419,0,1,1,1.419-1.419A1.42,1.42,0,0,1,27.258,59.677Z" transform="translate(8.226 21.226)"/>
        <path id="Trazado_107071" data-name="Trazado 107071" d="M24.587,66.754a4.252,4.252,0,0,0-4,2.839H14.651a1.42,1.42,0,0,1-1.419-1.419V29.019l6.093,6.093,2.007-2.007-9.52-9.52-9.52,9.52L4.3,35.113l6.093-6.093V68.174a4.263,4.263,0,0,0,4.258,4.258H20.59a4.251,4.251,0,1,0,4-5.677Zm0,5.677a1.419,1.419,0,1,1,1.419-1.419A1.42,1.42,0,0,1,24.587,72.432Z" transform="translate(-0.458 8.472)"/>
        <path id="Trazado_107072" data-name="Trazado 107072" d="M39.258,12.516A4.258,4.258,0,1,0,35,8.258,4.263,4.263,0,0,0,39.258,12.516Zm0-5.677a1.419,1.419,0,1,1-1.419,1.419A1.42,1.42,0,0,1,39.258,6.839Z" transform="translate(13.258 0.258)"/>
        <path id="Trazado_107073" data-name="Trazado 107073" d="M47.258,12.516a4.252,4.252,0,0,0,4-2.839h5.939A1.42,1.42,0,0,1,58.613,11.1V50.251L52.52,44.158l-2.007,2.007,9.52,9.52,9.52-9.52-2.007-2.007-6.093,6.093V11.1a4.263,4.263,0,0,0-4.258-4.258H51.255a4.251,4.251,0,1,0-4,5.677Zm0-5.677a1.419,1.419,0,1,1-1.419,1.419A1.42,1.42,0,0,1,47.258,6.839Z" transform="translate(16.613 0.258)"/>
        <path id="Trazado_107074" data-name="Trazado 107074" d="M80.484,71.968a7.278,7.278,0,0,0-1.109.087,8.437,8.437,0,0,0-7.408-4.345,8.237,8.237,0,0,0-2.864.515,9.9,9.9,0,0,0-2.813-2.978V25.129a4.263,4.263,0,0,0-4.258-4.258H45.923A8.493,8.493,0,0,0,37.9,9.516a7.278,7.278,0,0,0-1.109.087,8.437,8.437,0,0,0-7.408-4.345,8.237,8.237,0,0,0-2.864.515A9.936,9.936,0,0,0,8.185,9.62,8.517,8.517,0,0,0,9.516,26.548H23.71V64.871a4.263,4.263,0,0,0,4.258,4.258H51.648a9.822,9.822,0,0,0-.883,2.942A8.517,8.517,0,0,0,52.1,89H80.484a8.516,8.516,0,0,0,0-17.032ZM63.452,54.935h-36.9V46.419h36.9Zm-36.9-11.355V35.065h36.9v8.516ZM3.839,18.032a5.683,5.683,0,0,1,5.677-5.677h1.419V10.935a7.1,7.1,0,0,1,13.64-2.749L25.2,9.664l1.391-.8a5.6,5.6,0,0,1,8.082,2.871l.464,1.2,1.241-.346A5.664,5.664,0,1,1,37.9,23.71H9.516A5.683,5.683,0,0,1,3.839,18.032ZM37.9,26.548a8.492,8.492,0,0,0,6.33-2.839h17.8a1.42,1.42,0,0,1,1.419,1.419v7.1h-36.9V26.548ZM26.548,64.871v-7.1h36.9v6.1a9.822,9.822,0,0,0-9.772,2.411H27.968a1.42,1.42,0,0,1-1.419-1.419Zm53.935,21.29H52.1a5.677,5.677,0,1,1,0-11.355h1.419V73.387a7.1,7.1,0,0,1,13.64-2.749l.622,1.478,1.391-.8a5.6,5.6,0,0,1,8.082,2.871l.464,1.2,1.241-.346a5.664,5.664,0,1,1,1.529,11.115Z" transform="translate(-1 -1)"/>
        <path id="Trazado_107075" data-name="Trazado 107075" d="M52,55h2.839v2.839H52Z" transform="translate(20.387 21.645)"/>
        <path id="Trazado_107076" data-name="Trazado 107076" d="M44,55h2.839v2.839H44Z" transform="translate(17.032 21.645)"/>
        <path id="Trazado_107077" data-name="Trazado 107077" d="M48,55h2.839v2.839H48Z" transform="translate(18.71 21.645)"/>
        <path id="Trazado_107078" data-name="Trazado 107078" d="M40,55h2.839v2.839H40Z" transform="translate(15.355 21.645)"/>
        <path id="Trazado_107079" data-name="Trazado 107079" d="M18,11h2.839v2.839H18Z" transform="translate(6.129 3.194)"/>
        <path id="Trazado_107080" data-name="Trazado 107080" d="M10,11h2.839v2.839H10Z" transform="translate(2.774 3.194)"/>
        <path id="Trazado_107081" data-name="Trazado 107081" d="M14,11h2.839v2.839H14Z" transform="translate(4.452 3.194)"/>
        <path id="Trazado_107082" data-name="Trazado 107082" d="M22,11h2.839v2.839H22Z" transform="translate(7.806 3.194)"/>
      </g>
    </g>
  </g>
</svg>
