<svg xmlns="http://www.w3.org/2000/svg" width="145" height="135" viewBox="0 0 145 135">
  <g id="Grupo_100261" data-name="Grupo 100261" transform="translate(-279 -3107)">
    <g id="Grupo_99969" data-name="Grupo 99969" transform="translate(0 192)">
      <g id="Grupo_99957" data-name="Grupo 99957" transform="translate(-5 380)">
        <rect id="Rectángulo_33953" data-name="Rectángulo 33953" width="145" height="135" rx="10" transform="translate(284 2535)" fill="#f3f9ff"/>
      </g>
    </g>
    <g id="disco-duro" transform="translate(273.083 3133.451)">
      <g id="Grupo_99973" data-name="Grupo 99973" transform="translate(46.753 1.269)">
        <path id="Trazado_107083" data-name="Trazado 107083" d="M113.281,91.56H61.361a8.377,8.377,0,0,1-8.377-8.377V15.877A8.377,8.377,0,0,1,61.361,7.5h51.92a8.377,8.377,0,0,1,8.377,8.377V83.183A8.377,8.377,0,0,1,113.281,91.56Z" transform="translate(-52.984 -7.5)" fill="#99e6fc"/>
        <path id="Trazado_107084" data-name="Trazado 107084" d="M66.38,91.56H61.361a8.378,8.378,0,0,1-8.377-8.377V15.877A8.378,8.378,0,0,1,61.361,7.5H66.38A8.378,8.378,0,0,0,58,15.877V83.183A8.378,8.378,0,0,0,66.38,91.56Z" transform="translate(-52.984 -7.5)" fill="#62dbfb"/>
        <path id="Trazado_107085" data-name="Trazado 107085" d="M144.247,75.082a28.572,28.572,0,1,1-8.068-19.894,28.561,28.561,0,0,1,8.068,19.894Z" transform="translate(-81.347 -39.92)" fill="#ffca28"/>
        <path id="Trazado_107086" data-name="Trazado 107086" d="M137.9,56.9,97.511,97.288a28.477,28.477,0,0,1-8.32-16.021L121.878,48.58A28.477,28.477,0,0,1,137.9,56.9Z" transform="translate(-83.067 -41.632)" fill="#ffa726"/>
        <circle id="Elipse_1768" data-name="Elipse 1768" cx="6.128" cy="6.128" r="6.128" transform="translate(28.209 29.033)" fill="#024c67"/>
        <path id="Trazado_107087" data-name="Trazado 107087" d="M266.55,269.895a2.5,2.5,0,0,0-.2,3.311l12.99,16.525a5.016,5.016,0,1,0,7.043-7.043L269.861,269.7A2.5,2.5,0,0,0,266.55,269.895Z" transform="translate(-229.82 -224.906)" fill="#4dd0e1"/>
        <g id="Grupo_99972" data-name="Grupo 99972" transform="translate(5.34 5.513)">
          <g id="Grupo_99970" data-name="Grupo 99970">
            <circle id="Elipse_1769" data-name="Elipse 1769" cx="3.375" cy="3.375" r="3.375" transform="translate(51.244)" fill="#f9f7f8"/>
            <circle id="Elipse_1770" data-name="Elipse 1770" cx="3.375" cy="3.375" r="3.375" fill="#f9f7f8"/>
          </g>
          <g id="Grupo_99971" data-name="Grupo 99971" transform="translate(51.244 66.284)">
            <circle id="Elipse_1771" data-name="Elipse 1771" cx="3.375" cy="3.375" r="3.375" fill="#f9f7f8"/>
          </g>
        </g>
        <path id="Trazado_107088" data-name="Trazado 107088" d="M87.934,438.748h28.853a3.375,3.375,0,1,0,0-6.749H87.934a3.375,3.375,0,1,0,0,6.749Z" transform="translate(-79.219 -360.201)" fill="#fef056"/>
      </g>
      <g id="Grupo_99974" data-name="Grupo 99974" transform="translate(45.484)">
        <path id="Trazado_107089" data-name="Trazado 107089" d="M107.05,0H55.13a9.657,9.657,0,0,0-9.646,9.646V76.952A9.657,9.657,0,0,0,55.13,86.6h51.92a9.657,9.657,0,0,0,9.646-9.646V9.646A9.657,9.657,0,0,0,107.05,0Zm7.109,76.952a7.117,7.117,0,0,1-7.109,7.109H55.13a7.117,7.117,0,0,1-7.109-7.109V9.646A7.117,7.117,0,0,1,55.13,2.537h51.92a7.117,7.117,0,0,1,7.109,7.109Z" transform="translate(-45.484)"/>
        <path id="Trazado_107090" data-name="Trazado 107090" d="M227.062,179.055a7.4,7.4,0,1,0-7.4,7.4A7.4,7.4,0,0,0,227.062,179.055Zm-12.256,0a4.859,4.859,0,1,1,4.859,4.859A4.865,4.865,0,0,1,214.806,179.055Z" transform="translate(-184.06 -142.625)"/>
        <path id="Trazado_107091" data-name="Trazado 107091" d="M134.875,95.417a6.247,6.247,0,0,0-2.4-4.943L131.1,89.39a29.547,29.547,0,0,0,8.2-20.539,29.829,29.829,0,0,0-54-17.487,1.269,1.269,0,0,0,2.054,1.489,27.3,27.3,0,0,1,49.409,16,27.038,27.038,0,0,1-7.665,18.963l-3.6-2.827a1.269,1.269,0,0,0-1.568,1.994l6.979,5.487a3.747,3.747,0,1,1-5.262,5.261L112.654,81.2a1.23,1.23,0,0,1,1.727-1.727l4.895,3.848a1.268,1.268,0,1,0,1.568-1.995l-4.895-3.848a3.767,3.767,0,0,0-5.289,5.291l8.972,11.414A27.307,27.307,0,0,1,84.525,57.743a1.268,1.268,0,0,0-2.317-1.034,29.843,29.843,0,0,0,39.051,39.547L123.65,99.3a6.288,6.288,0,0,0,4.566,2.39q.187.011.374.011a6.283,6.283,0,0,0,6.284-6.282Z" transform="translate(-73.856 -32.42)"/>
        <path id="Trazado_107092" data-name="Trazado 107092" d="M384.679,32.6a4.643,4.643,0,1,0,4.643,4.643A4.648,4.648,0,0,0,384.679,32.6Zm0,6.749a2.106,2.106,0,1,1,2.106-2.106A2.109,2.109,0,0,1,384.679,39.346Z" transform="translate(-323.451 -27.084)"/>
        <path id="Trazado_107093" data-name="Trazado 107093" d="M81.7,41.883a4.643,4.643,0,1,0-4.643-4.643A4.648,4.648,0,0,0,81.7,41.883Zm0-6.749A2.106,2.106,0,1,1,79.6,37.239,2.109,2.109,0,0,1,81.7,35.133Z" transform="translate(-71.719 -27.083)"/>
        <path id="Trazado_107094" data-name="Trazado 107094" d="M384.679,424.5a4.643,4.643,0,1,0,4.643,4.643A4.648,4.648,0,0,0,384.679,424.5Zm0,6.749a2.106,2.106,0,1,1,2.106-2.106A2.108,2.108,0,0,1,384.679,431.247Z" transform="translate(-323.451 -352.7)"/>
        <path id="Trazado_107095" data-name="Trazado 107095" d="M110.556,424.5H81.7a4.643,4.643,0,1,0,0,9.286h3.868a1.269,1.269,0,0,0,0-2.537H81.7a2.106,2.106,0,1,1,0-4.211h28.853a2.106,2.106,0,1,1,0,4.211H91.379a1.269,1.269,0,0,0,0,2.537h19.177a4.643,4.643,0,1,0,0-9.286Z" transform="translate(-71.719 -352.702)"/>
      </g>
    </g>
  </g>
</svg>
