<svg xmlns="http://www.w3.org/2000/svg" width="145" height="135" viewBox="0 0 145 135">
  <g id="Grupo_99976" data-name="Grupo 99976" transform="translate(-279 -3306)">
    <g id="Grupo_99975" data-name="Grupo 99975" transform="translate(0 391)">
      <g id="Grupo_99957" data-name="Grupo 99957" transform="translate(-5 380)">
        <rect id="Rectángulo_33953" data-name="Rectángulo 33953" width="145" height="135" rx="10" transform="translate(284 2535)" fill="#f3f9ff"/>
      </g>
    </g>
    <g id="notificaciones" transform="translate(311.034 3333.76)">
      <circle id="Elipse_1772" data-name="Elipse 1772" cx="6.379" cy="6.379" r="6.379" transform="translate(28.815 2.094)" fill="#f8ad3e"/>
      <path id="Trazado_107096" data-name="Trazado 107096" d="M168.382,19.872a6.379,6.379,0,0,1,4.05-5.938,6.379,6.379,0,1,0,0,11.877,6.38,6.38,0,0,1-4.05-5.938Z" transform="translate(-134.91 -11.398)" fill="#ed8d00"/>
      <path id="Trazado_107097" data-name="Trazado 107097" d="M92.8,105.048l-25.22,7.542-25.22-7.542a18.069,18.069,0,0,0,1.756-7.354c.45-17.8,3.618-35.139,23.464-35.139S90.591,79.892,91.042,97.694a18.088,18.088,0,0,0,1.755,7.354Z" transform="translate(-32.384 -52.844)" fill="#f4e74d"/>
      <path id="Trazado_107098" data-name="Trazado 107098" d="M47.015,105.048a18.069,18.069,0,0,0,1.756-7.354c.432-17.081,3.369-33.731,21.135-35.052-.75-.056-1.524-.087-2.329-.087-19.846,0-23.014,17.337-23.464,35.139a18.069,18.069,0,0,1-1.756,7.354l25.22,7.542,2.329-.7Z" transform="translate(-32.384 -52.844)" fill="#f8ad3e"/>
      <path id="Trazado_107099" data-name="Trazado 107099" d="M130.482,404.741v3.947a11.539,11.539,0,0,0,23.079,0v-3.947Z" transform="translate(-106.828 -341.91)" fill="#f4e74d"/>
      <path id="Trazado_107100" data-name="Trazado 107100" d="M135.139,408.688v-3.947h-4.657v3.947a11.549,11.549,0,0,0,13.868,11.3A11.543,11.543,0,0,1,135.139,408.688Z" transform="translate(-106.828 -341.91)" fill="#f8ad3e"/>
      <path id="Trazado_107101" data-name="Trazado 107101" d="M66.98,351.368h-50.9a4.564,4.564,0,0,1-4.408-5.725,21.176,21.176,0,0,1,3.179-6.871,17.3,17.3,0,0,0,1.457-2.489H66.751a17.3,17.3,0,0,0,1.457,2.489,21.173,21.173,0,0,1,3.179,6.871A4.564,4.564,0,0,1,66.98,351.368Z" transform="translate(-6.338 -284.079)" fill="#f8ad3e"/>
      <path id="Trazado_107102" data-name="Trazado 107102" d="M16.333,345.644a21.173,21.173,0,0,1,3.179-6.871,17.3,17.3,0,0,0,1.457-2.489H16.312a17.3,17.3,0,0,1-1.457,2.489,21.174,21.174,0,0,0-3.179,6.871,4.564,4.564,0,0,0,4.408,5.725h4.657A4.564,4.564,0,0,1,16.333,345.644Z" transform="translate(-6.338 -284.08)" fill="#ed8d00"/>
      <circle id="Elipse_1773" data-name="Elipse 1773" cx="17.192" cy="17.192" r="17.192" transform="translate(46.706 1.164)" fill="#ff7f5a"/>
      <path id="Trazado_107103" data-name="Trazado 107103" d="M300.826,47.027A17.191,17.191,0,0,1,289.1,17.263a17.194,17.194,0,1,0,18.793,28.249A17.129,17.129,0,0,1,300.826,47.027Z" transform="translate(-232.27 -14.583)" fill="#ff5d29"/>
      <path id="Trazado_107107" data-name="Trazado 107107" d="M372.273,86.248a1.164,1.164,0,0,0,1.164-1.164V71.918a1.164,1.164,0,0,0-1.164-1.164h-3.146a1.164,1.164,0,0,0,0,2.329h1.982v12A1.164,1.164,0,0,0,372.273,86.248Z" transform="translate(-307.443 -59.77)"/>
      <path id="Trazado_107108" data-name="Trazado 107108" d="M78.965,7.869A1.164,1.164,0,0,0,77.055,9.2,16.029,16.029,0,1,1,74.111,6,1.164,1.164,0,1,0,75.6,4.209a18.357,18.357,0,0,0-28.62,7.036,20.436,20.436,0,0,0-4.31-1.739,7.543,7.543,0,1,0-14.943,0,20.021,20.021,0,0,0-5.114,2.2,20.422,20.422,0,0,0-7.458,8.371c-3.693,7.276-4.39,17.045-4.584,24.743a16.867,16.867,0,0,1-3,9.2,22.277,22.277,0,0,0-3.353,7.248,5.727,5.727,0,0,0,5.535,7.182H22.6a12.7,12.7,0,0,0,25.18,0H60.642a5.727,5.727,0,0,0,5.534-7.182,22.279,22.279,0,0,0-3.353-7.248A16.16,16.16,0,0,1,61.464,51.7h0a17.027,17.027,0,0,1-1.642-6.88c-.082-3.242-.248-6.1-.5-8.686A18.359,18.359,0,0,0,78.965,7.869ZM30,8.98a5.215,5.215,0,1,1,10.38,0A31.34,31.34,0,0,0,30,8.98Zm5.19,68.173a10.348,10.348,0,0,1-10.24-8.7h20.48a10.348,10.348,0,0,1-10.24,8.7Zm21.7-41.825C57.865,44,56.9,46.216,58.662,51.04h-33.4a1.164,1.164,0,0,0,0,2.329H59.7a18.481,18.481,0,0,0,1.222,2,19.963,19.963,0,0,1,3,6.494,3.4,3.4,0,0,1-3.28,4.267H9.747a3.4,3.4,0,0,1-3.282-4.267,19.959,19.959,0,0,1,3-6.494,18.469,18.469,0,0,0,1.222-1.995h9.915a1.164,1.164,0,0,0,0-2.329H11.726a19.486,19.486,0,0,0,1.168-6.16c.188-7.453.851-16.888,4.333-23.748A17.355,17.355,0,0,1,29.4,11.476c4.881-1.1,11.83-.875,16.8,2a18.427,18.427,0,0,0,10.692,21.85Z" transform="translate(0 0)"/>
    </g>
  </g>
</svg>
