<svg xmlns="http://www.w3.org/2000/svg" width="367.074" height="599.99" viewBox="0 0 367.074 599.99">
  <g id="Grupo_100239" data-name="Grupo 100239" transform="translate(-9.15 -8.072)">
    <g id="Grupo_100015" data-name="Grupo 100015" transform="translate(9.15 8.072)">
      <g id="Grupo_99987" data-name="Grupo 99987">
        <g id="Grupo_99984" data-name="Grupo 99984">
          <g id="Grupo_99981" data-name="Grupo 99981">
            <path id="Trazado_107118" data-name="Trazado 107118" d="M104.4,197.1H21.854a12.72,12.72,0,0,1-12.7-12.7V20.776a12.72,12.72,0,0,1,12.7-12.7H104.4a12.72,12.72,0,0,1,12.7,12.7V184.4A12.72,12.72,0,0,1,104.4,197.1Z" transform="translate(-9.15 -8.072)" fill="#fff"/>
          </g>
          <g id="Grupo_99982" data-name="Grupo 99982">
            <path id="Trazado_107119" data-name="Trazado 107119" d="M104.4,197.1H21.854a12.72,12.72,0,0,1-12.7-12.7V20.776a12.72,12.72,0,0,1,12.7-12.7H104.4a12.72,12.72,0,0,1,12.7,12.7V184.4A12.72,12.72,0,0,1,104.4,197.1ZM21.854,10.392a10.4,10.4,0,0,0-10.38,10.384V184.4a10.394,10.394,0,0,0,10.38,10.384H104.4a10.394,10.394,0,0,0,10.38-10.384V20.776A10.4,10.4,0,0,0,104.4,10.392Z" transform="translate(-9.15 -8.072)"/>
          </g>
          <g id="Grupo_99983" data-name="Grupo 99983">
            <path id="Trazado_107120" data-name="Trazado 107120" d="M104.4,197.1H21.854a12.72,12.72,0,0,1-12.7-12.7V20.776a12.72,12.72,0,0,1,12.7-12.7H104.4a12.72,12.72,0,0,1,12.7,12.7V184.4A12.72,12.72,0,0,1,104.4,197.1ZM21.854,10.392a10.4,10.4,0,0,0-10.38,10.384V184.4a10.394,10.394,0,0,0,10.38,10.384H104.4a10.394,10.394,0,0,0,10.38-10.384V20.776A10.4,10.4,0,0,0,104.4,10.392Z" transform="translate(-9.15 -8.072)" fill="#4e4f4f"/>
          </g>
        </g>
        <g id="Grupo_99985" data-name="Grupo 99985" transform="translate(0 21.657)">
          <path id="Trazado_107121" data-name="Trazado 107121" d="M115.942,17.037H10.31a1.16,1.16,0,1,1,0-2.32H115.942a1.16,1.16,0,1,1,0,2.32Z" transform="translate(-9.15 -14.717)" fill="#4e4f4f"/>
        </g>
        <g id="Grupo_99986" data-name="Grupo 99986" transform="translate(0 164.119)">
          <path id="Trazado_107122" data-name="Trazado 107122" d="M115.942,60.753H10.31a1.162,1.162,0,0,1,0-2.324H115.942a1.162,1.162,0,1,1,0,2.324Z" transform="translate(-9.15 -58.429)" fill="#4e4f4f"/>
        </g>
      </g>
      <g id="Grupo_100012" data-name="Grupo 100012" transform="translate(2.156 23.642)">
        <rect id="Rectángulo_33966" data-name="Rectángulo 33966" width="103.477" height="140.476" fill="#f7fbfc"/>
        <g id="Grupo_99988" data-name="Grupo 99988" transform="translate(4.232 51.271)">
          <path id="Rectángulo_33967" data-name="Rectángulo 33967" d="M.042,0H18.409a.044.044,0,0,1,.044.044V16.828a.04.04,0,0,1-.04.04H.043A.043.043,0,0,1,0,16.826V.042A.042.042,0,0,1,.042,0Z" fill="#b4bcbe"/>
        </g>
        <g id="Grupo_99989" data-name="Grupo 99989" transform="translate(29.606 51.271)">
          <path id="Rectángulo_33968" data-name="Rectángulo 33968" d="M.042,0H18.413a.042.042,0,0,1,.042.042V16.828a.04.04,0,0,1-.04.04H.042A.042.042,0,0,1,0,16.826V.042A.042.042,0,0,1,.042,0Z" fill="#b4bcbe"/>
        </g>
        <g id="Grupo_99990" data-name="Grupo 99990" transform="translate(54.983 51.271)">
          <path id="Rectángulo_33969" data-name="Rectángulo 33969" d="M.042,0H18.411a.043.043,0,0,1,.043.043V16.826a.043.043,0,0,1-.043.043H.043A.043.043,0,0,1,0,16.826V.042A.042.042,0,0,1,.042,0Z" fill="#92d3d9"/>
        </g>
        <g id="Grupo_99991" data-name="Grupo 99991" transform="translate(4.232 73.525)">
          <path id="Trazado_107123" data-name="Trazado 107123" d="M29.563,54.618a.137.137,0,0,1-.14.13H11.253a.143.143,0,0,1-.143-.13V38.013a.135.135,0,0,1,.143-.127h18.17a.131.131,0,0,1,.14.127Z" transform="translate(-11.11 -37.886)" fill="#92d3d9"/>
        </g>
        <g id="Grupo_99992" data-name="Grupo 99992" transform="translate(29.607 73.525)">
          <path id="Trazado_107124" data-name="Trazado 107124" d="M37.349,54.618a.134.134,0,0,1-.137.13H19.036a.14.14,0,0,1-.14-.13V38.013a.133.133,0,0,1,.14-.127H37.212a.128.128,0,0,1,.137.127Z" transform="translate(-18.896 -37.886)" fill="#b4bcbe"/>
        </g>
        <g id="Grupo_99993" data-name="Grupo 99993" transform="translate(54.983 73.524)">
          <rect id="Rectángulo_33970" data-name="Rectángulo 33970" width="18.453" height="16.862" rx="0.043" fill="#b4bcbe"/>
        </g>
        <g id="Grupo_99994" data-name="Grupo 99994" transform="translate(4.232 95.772)">
          <path id="Trazado_107125" data-name="Trazado 107125" d="M29.563,61.448a.135.135,0,0,1-.14.127H11.253a.14.14,0,0,1-.143-.127V44.839a.138.138,0,0,1,.143-.127h18.17a.133.133,0,0,1,.14.127Z" transform="translate(-11.11 -44.712)" fill="#b4bcbe"/>
        </g>
        <g id="Grupo_99995" data-name="Grupo 99995" transform="translate(29.607 95.772)">
          <path id="Trazado_107126" data-name="Trazado 107126" d="M37.349,61.448a.132.132,0,0,1-.137.127H19.036a.137.137,0,0,1-.14-.127V44.839a.135.135,0,0,1,.14-.127H37.212a.13.13,0,0,1,.137.127Z" transform="translate(-18.896 -44.712)" fill="#b4bcbe"/>
        </g>
        <g id="Grupo_99996" data-name="Grupo 99996" transform="translate(54.983 95.771)">
          <path id="Rectángulo_33971" data-name="Rectángulo 33971" d="M.039,0H18.411a.043.043,0,0,1,.043.043V16.819a.043.043,0,0,1-.043.043H.043A.043.043,0,0,1,0,16.819V.039A.039.039,0,0,1,.039,0Z" fill="#92d3d9"/>
        </g>
        <g id="Grupo_99997" data-name="Grupo 99997" transform="translate(4.232 118.025)">
          <path id="Trazado_107127" data-name="Trazado 107127" d="M29.563,68.276a.135.135,0,0,1-.14.13H11.253a.14.14,0,0,1-.143-.13V51.667a.14.14,0,0,1,.143-.127h18.17a.135.135,0,0,1,.14.127Z" transform="translate(-11.11 -51.54)" fill="#b4bcbe"/>
        </g>
        <g id="Grupo_99998" data-name="Grupo 99998" transform="translate(29.607 118.025)">
          <path id="Trazado_107128" data-name="Trazado 107128" d="M37.349,68.276a.132.132,0,0,1-.137.13H19.036a.137.137,0,0,1-.14-.13V51.667a.137.137,0,0,1,.14-.127H37.212a.132.132,0,0,1,.137.127Z" transform="translate(-18.896 -51.54)" fill="#b4bcbe"/>
        </g>
        <g id="Grupo_99999" data-name="Grupo 99999" transform="translate(54.983 118.025)">
          <path id="Trazado_107129" data-name="Trazado 107129" d="M45.135,68.276a.133.133,0,0,1-.14.13H26.822a.137.137,0,0,1-.14-.13V51.667a.137.137,0,0,1,.14-.127H44.995a.133.133,0,0,1,.14.127Z" transform="translate(-26.682 -51.54)" fill="#b4bcbe"/>
        </g>
        <g id="Grupo_100000" data-name="Grupo 100000" transform="translate(80.019 51.271)">
          <path id="Rectángulo_33972" data-name="Rectángulo 33972" d="M.042,0H18.413a.042.042,0,0,1,.042.042V16.825a.043.043,0,0,1-.043.043H.04a.04.04,0,0,1-.04-.04V.042A.042.042,0,0,1,.042,0Z" fill="#b4bcbe"/>
        </g>
        <g id="Grupo_100001" data-name="Grupo 100001" transform="translate(4.232 29.001)">
          <path id="Rectángulo_33973" data-name="Rectángulo 33973" d="M.041,0H18.409a.044.044,0,0,1,.044.044V16.828a.04.04,0,0,1-.04.04H.04a.04.04,0,0,1-.04-.04V.041A.041.041,0,0,1,.041,0Z" fill="#b4bcbe"/>
        </g>
        <g id="Grupo_100002" data-name="Grupo 100002" transform="translate(29.606 29.001)">
          <path id="Rectángulo_33974" data-name="Rectángulo 33974" d="M.041,0H18.412a.043.043,0,0,1,.043.043V16.828a.04.04,0,0,1-.04.04H.042A.042.042,0,0,1,0,16.826V.041A.041.041,0,0,1,.041,0Z" fill="#b4bcbe"/>
        </g>
        <g id="Grupo_100003" data-name="Grupo 100003" transform="translate(54.983 29.001)">
          <path id="Rectángulo_33975" data-name="Rectángulo 33975" d="M.041,0h18.37a.043.043,0,0,1,.043.043V16.826a.043.043,0,0,1-.043.043H.043A.043.043,0,0,1,0,16.826V.041A.041.041,0,0,1,.041,0Z" fill="#b4bcbe"/>
        </g>
        <g id="Grupo_100004" data-name="Grupo 100004" transform="translate(80.019 29.001)">
          <path id="Rectángulo_33976" data-name="Rectángulo 33976" d="M.041,0H18.412a.043.043,0,0,1,.043.043V16.828a.04.04,0,0,1-.04.04H.043A.043.043,0,0,1,0,16.826V.041A.041.041,0,0,1,.041,0Z" fill="#b4bcbe"/>
        </g>
        <g id="Grupo_100005" data-name="Grupo 100005" transform="translate(4.232 6.736)">
          <path id="Trazado_107130" data-name="Trazado 107130" d="M29.563,34.122a.138.138,0,0,1-.14.134H11.253a.143.143,0,0,1-.143-.134V17.52a.138.138,0,0,1,.143-.127h18.17a.133.133,0,0,1,.14.127Z" transform="translate(-11.11 -17.393)" fill="#b4bcbe"/>
        </g>
        <g id="Grupo_100006" data-name="Grupo 100006" transform="translate(29.607 6.736)">
          <path id="Trazado_107131" data-name="Trazado 107131" d="M37.349,34.122a.135.135,0,0,1-.137.134H19.036a.14.14,0,0,1-.14-.134V17.52a.135.135,0,0,1,.14-.127H37.212a.13.13,0,0,1,.137.127Z" transform="translate(-18.896 -17.393)" fill="#92d3d9"/>
        </g>
        <g id="Grupo_100007" data-name="Grupo 100007" transform="translate(54.983 6.735)">
          <path id="Rectángulo_33977" data-name="Rectángulo 33977" d="M.041,0h18.37a.043.043,0,0,1,.043.043V16.822a.043.043,0,0,1-.043.043H.043A.043.043,0,0,1,0,16.822V.041A.041.041,0,0,1,.041,0Z" fill="#b4bcbe"/>
        </g>
        <g id="Grupo_100008" data-name="Grupo 100008" transform="translate(80.02 6.736)">
          <path id="Trazado_107132" data-name="Trazado 107132" d="M52.817,34.122a.14.14,0,0,1-.14.134H34.5a.138.138,0,0,1-.14-.134V17.52a.133.133,0,0,1,.14-.127H52.677a.135.135,0,0,1,.14.127Z" transform="translate(-34.364 -17.393)" fill="#b4bcbe"/>
        </g>
        <g id="Grupo_100009" data-name="Grupo 100009" transform="translate(80.02 73.525)">
          <path id="Trazado_107133" data-name="Trazado 107133" d="M52.817,54.618a.14.14,0,0,1-.14.13H34.5a.137.137,0,0,1-.14-.13V38.013a.131.131,0,0,1,.14-.127H52.677a.133.133,0,0,1,.14.127Z" transform="translate(-34.364 -37.886)" fill="#b4bcbe"/>
        </g>
        <g id="Grupo_100010" data-name="Grupo 100010" transform="translate(80.02 95.772)">
          <path id="Trazado_107134" data-name="Trazado 107134" d="M52.817,61.448a.137.137,0,0,1-.14.127H34.5a.135.135,0,0,1-.14-.127V44.839a.133.133,0,0,1,.14-.127H52.677a.135.135,0,0,1,.14.127Z" transform="translate(-34.364 -44.712)" fill="#92d3d9"/>
        </g>
        <g id="Grupo_100011" data-name="Grupo 100011" transform="translate(80.02 118.025)">
          <path id="Trazado_107135" data-name="Trazado 107135" d="M52.817,68.276a.137.137,0,0,1-.14.13H34.5a.135.135,0,0,1-.14-.13V51.667a.135.135,0,0,1,.14-.127H52.677a.137.137,0,0,1,.14.127Z" transform="translate(-34.364 -51.54)" fill="#92d3d9"/>
        </g>
      </g>
      <g id="Grupo_100014" data-name="Grupo 100014" transform="translate(0.336 164.455)">
        <g id="Grupo_100013" data-name="Grupo 100013">
          <path id="Trazado_107136" data-name="Trazado 107136" d="M115.709,60.181H10.078a.825.825,0,0,1,0-1.649H115.709a.825.825,0,0,1,0,1.649Z" transform="translate(-9.253 -58.532)"/>
        </g>
      </g>
    </g>
    <g id="Grupo_100031" data-name="Grupo 100031" transform="translate(138.71 8.072)">
      <g id="Grupo_100022" data-name="Grupo 100022">
        <g id="Grupo_100019" data-name="Grupo 100019">
          <g id="Grupo_100016" data-name="Grupo 100016">
            <path id="Trazado_107137" data-name="Trazado 107137" d="M144.154,197.1H61.607a12.72,12.72,0,0,1-12.7-12.7V20.776a12.72,12.72,0,0,1,12.7-12.7h82.547a12.72,12.72,0,0,1,12.7,12.7V184.4A12.72,12.72,0,0,1,144.154,197.1Z" transform="translate(-48.903 -8.072)" fill="#fff"/>
          </g>
          <g id="Grupo_100017" data-name="Grupo 100017">
            <path id="Trazado_107138" data-name="Trazado 107138" d="M144.154,197.1H61.607a12.72,12.72,0,0,1-12.7-12.7V20.776a12.72,12.72,0,0,1,12.7-12.7h82.547a12.72,12.72,0,0,1,12.7,12.7V184.4A12.72,12.72,0,0,1,144.154,197.1ZM61.607,10.392a10.4,10.4,0,0,0-10.38,10.384V184.4a10.394,10.394,0,0,0,10.38,10.384h82.547A10.394,10.394,0,0,0,154.538,184.4V20.776a10.4,10.4,0,0,0-10.384-10.384Z" transform="translate(-48.903 -8.072)"/>
          </g>
          <g id="Grupo_100018" data-name="Grupo 100018">
            <path id="Trazado_107139" data-name="Trazado 107139" d="M144.154,197.1H61.607a12.72,12.72,0,0,1-12.7-12.7V20.776a12.72,12.72,0,0,1,12.7-12.7h82.547a12.72,12.72,0,0,1,12.7,12.7V184.4A12.72,12.72,0,0,1,144.154,197.1ZM61.607,10.392a10.4,10.4,0,0,0-10.38,10.384V184.4a10.394,10.394,0,0,0,10.38,10.384h82.547A10.394,10.394,0,0,0,154.538,184.4V20.776a10.4,10.4,0,0,0-10.384-10.384Z" transform="translate(-48.903 -8.072)" fill="#4e4f4f"/>
          </g>
        </g>
        <g id="Grupo_100020" data-name="Grupo 100020" transform="translate(0 21.657)">
          <path id="Trazado_107140" data-name="Trazado 107140" d="M155.7,17.037H50.063a1.16,1.16,0,1,1,0-2.32H155.7a1.16,1.16,0,1,1,0,2.32Z" transform="translate(-48.903 -14.717)" fill="#4e4f4f"/>
        </g>
        <g id="Grupo_100021" data-name="Grupo 100021" transform="translate(0 164.119)">
          <path id="Trazado_107141" data-name="Trazado 107141" d="M155.7,60.753H50.063a1.162,1.162,0,0,1,0-2.324H155.7a1.162,1.162,0,0,1,0,2.324Z" transform="translate(-48.903 -58.429)" fill="#4e4f4f"/>
        </g>
      </g>
      <g id="Grupo_100030" data-name="Grupo 100030" transform="translate(2.292 23.976)">
        <rect id="Rectángulo_33978" data-name="Rectángulo 33978" width="103.34" height="140.142" fill="#f7fbfc"/>
        <g id="Grupo_100023" data-name="Grupo 100023" transform="translate(4.249 4.335)">
          <path id="Rectángulo_33979" data-name="Rectángulo 33979" d="M.036,0H94.809a.035.035,0,0,1,.035.035V14.765a.034.034,0,0,1-.034.034H.034A.034.034,0,0,1,0,14.766V.036A.036.036,0,0,1,.036,0Z" fill="#b4bcbe"/>
        </g>
        <g id="Grupo_100024" data-name="Grupo 100024" transform="translate(4.249 23.861)">
          <path id="Rectángulo_33980" data-name="Rectángulo 33980" d="M.034,0H94.809a.035.035,0,0,1,.035.035V14.763a.034.034,0,0,1-.034.034H.034A.034.034,0,0,1,0,14.763V.034A.034.034,0,0,1,.034,0Z" fill="#f9835b"/>
        </g>
        <g id="Grupo_100025" data-name="Grupo 100025" transform="translate(4.249 43.384)">
          <path id="Rectángulo_33981" data-name="Rectángulo 33981" d="M.034,0H94.809a.035.035,0,0,1,.035.035V14.762a.034.034,0,0,1-.034.034H.034A.034.034,0,0,1,0,14.762V.034A.034.034,0,0,1,.034,0Z" fill="#b4bcbe"/>
        </g>
        <g id="Grupo_100026" data-name="Grupo 100026" transform="translate(4.249 62.913)">
          <rect id="Rectángulo_33982" data-name="Rectángulo 33982" width="94.844" height="14.796" rx="0.034" fill="#b4bcbe"/>
        </g>
        <g id="Grupo_100027" data-name="Grupo 100027" transform="translate(4.264 82.347)">
          <rect id="Rectángulo_33983" data-name="Rectángulo 33983" width="94.844" height="14.797" rx="0.034" fill="#b4bcbe"/>
        </g>
        <g id="Grupo_100028" data-name="Grupo 100028" transform="translate(4.278 101.781)">
          <path id="Rectángulo_33984" data-name="Rectángulo 33984" d="M.034,0H94.809a.035.035,0,0,1,.035.035V14.763a.034.034,0,0,1-.034.034H.034A.034.034,0,0,1,0,14.763V.034A.034.034,0,0,1,.034,0Z" fill="#b4bcbe"/>
        </g>
        <g id="Grupo_100029" data-name="Grupo 100029" transform="translate(4.294 121.214)">
          <path id="Rectángulo_33985" data-name="Rectángulo 33985" d="M.034,0H94.809a.035.035,0,0,1,.035.035V14.763a.034.034,0,0,1-.034.034H.034A.034.034,0,0,1,0,14.763V.034A.034.034,0,0,1,.034,0Z" fill="#b4bcbe"/>
        </g>
      </g>
    </g>
    <g id="Grupo_100044" data-name="Grupo 100044" transform="translate(268.273 8.072)">
      <g id="Grupo_100038" data-name="Grupo 100038">
        <g id="Grupo_100035" data-name="Grupo 100035">
          <g id="Grupo_100032" data-name="Grupo 100032">
            <path id="Trazado_107142" data-name="Trazado 107142" d="M183.9,197.1H101.361a12.718,12.718,0,0,1-12.7-12.7V20.776a12.718,12.718,0,0,1,12.7-12.7H183.9a12.72,12.72,0,0,1,12.7,12.7V184.4A12.72,12.72,0,0,1,183.9,197.1Z" transform="translate(-88.657 -8.072)" fill="#fff"/>
          </g>
          <g id="Grupo_100033" data-name="Grupo 100033">
            <path id="Trazado_107143" data-name="Trazado 107143" d="M183.9,197.1H101.361a12.718,12.718,0,0,1-12.7-12.7V20.776a12.718,12.718,0,0,1,12.7-12.7H183.9a12.72,12.72,0,0,1,12.7,12.7V184.4A12.72,12.72,0,0,1,183.9,197.1ZM101.361,10.392A10.4,10.4,0,0,0,90.978,20.776V184.4a10.394,10.394,0,0,0,10.384,10.384H183.9A10.394,10.394,0,0,0,194.288,184.4V20.776A10.4,10.4,0,0,0,183.9,10.392Z" transform="translate(-88.657 -8.072)"/>
          </g>
          <g id="Grupo_100034" data-name="Grupo 100034">
            <path id="Trazado_107144" data-name="Trazado 107144" d="M183.9,197.1H101.361a12.718,12.718,0,0,1-12.7-12.7V20.776a12.718,12.718,0,0,1,12.7-12.7H183.9a12.72,12.72,0,0,1,12.7,12.7V184.4A12.72,12.72,0,0,1,183.9,197.1ZM101.361,10.392A10.4,10.4,0,0,0,90.978,20.776V184.4a10.394,10.394,0,0,0,10.384,10.384H183.9A10.394,10.394,0,0,0,194.288,184.4V20.776A10.4,10.4,0,0,0,183.9,10.392Z" transform="translate(-88.657 -8.072)" fill="#4e4f4f"/>
          </g>
        </g>
        <g id="Grupo_100036" data-name="Grupo 100036" transform="translate(0 21.657)">
          <path id="Trazado_107145" data-name="Trazado 107145" d="M195.449,17.037H89.817a1.16,1.16,0,1,1,0-2.32H195.449a1.16,1.16,0,1,1,0,2.32Z" transform="translate(-88.657 -14.717)" fill="#4e4f4f"/>
        </g>
        <g id="Grupo_100037" data-name="Grupo 100037" transform="translate(0 164.119)">
          <path id="Trazado_107146" data-name="Trazado 107146" d="M195.449,60.753H89.817a1.162,1.162,0,0,1,0-2.324H195.449a1.162,1.162,0,0,1,0,2.324Z" transform="translate(-88.657 -58.429)" fill="#4e4f4f"/>
        </g>
      </g>
      <g id="Grupo_100043" data-name="Grupo 100043" transform="translate(2.32 23.976)">
        <rect id="Rectángulo_33986" data-name="Rectángulo 33986" width="103.311" height="140.142" fill="#f7fbfc"/>
        <g id="Grupo_100039" data-name="Grupo 100039" transform="translate(4.248 4.401)">
          <path id="Trazado_107147" data-name="Trazado 107147" d="M185.486,42.122a.13.13,0,0,1-.108.14h-94.6a.132.132,0,0,1-.111-.14v-25.2c0-.075.055-.143.111-.143h94.6c.055,0,.108.068.108.143Z" transform="translate(-90.672 -16.779)" fill="#b4bcbe"/>
        </g>
        <g id="Grupo_100040" data-name="Grupo 100040" transform="translate(4.248 36.819)">
          <path id="Trazado_107148" data-name="Trazado 107148" d="M185.486,54.471c0,.085-.052.15-.108.15h-94.6c-.055,0-.111-.065-.111-.15v-27.6a.127.127,0,0,1,.111-.14h94.6c.055,0,.108.055.108.14Z" transform="translate(-90.672 -26.726)" fill="#92d3d9"/>
        </g>
        <g id="Grupo_100041" data-name="Grupo 100041" transform="translate(4.248 71.982)">
          <path id="Trazado_107149" data-name="Trazado 107149" d="M185.486,65.26c0,.088-.052.153-.108.153h-94.6c-.055,0-.111-.065-.111-.153v-27.6a.129.129,0,0,1,.111-.143h94.6c.055,0,.108.055.108.143Z" transform="translate(-90.672 -37.515)" fill="#b4bcbe"/>
        </g>
        <g id="Grupo_100042" data-name="Grupo 100042" transform="translate(4.248 107.148)">
          <path id="Trazado_107150" data-name="Trazado 107150" d="M185.486,76.05c0,.085-.052.15-.108.15h-94.6c-.055,0-.111-.065-.111-.15v-27.6a.127.127,0,0,1,.111-.14h94.6c.055,0,.108.055.108.14Z" transform="translate(-90.672 -48.305)" fill="#b4bcbe"/>
        </g>
      </g>
    </g>
    <g id="Grupo_100058" data-name="Grupo 100058" transform="translate(137.868 419.033)">
      <g id="Grupo_100051" data-name="Grupo 100051">
        <g id="Grupo_100048" data-name="Grupo 100048">
          <g id="Grupo_100045" data-name="Grupo 100045">
            <path id="Trazado_107151" data-name="Trazado 107151" d="M223.658,197.1H141.114a12.718,12.718,0,0,1-12.7-12.7V20.776a12.718,12.718,0,0,1,12.7-12.7h82.544a12.72,12.72,0,0,1,12.7,12.7V184.4A12.72,12.72,0,0,1,223.658,197.1Z" transform="translate(-128.41 -8.072)" fill="#fff"/>
          </g>
          <g id="Grupo_100046" data-name="Grupo 100046">
            <path id="Trazado_107152" data-name="Trazado 107152" d="M223.658,197.1H141.114a12.718,12.718,0,0,1-12.7-12.7V20.776a12.718,12.718,0,0,1,12.7-12.7h82.544a12.72,12.72,0,0,1,12.7,12.7V184.4A12.72,12.72,0,0,1,223.658,197.1ZM141.114,10.392A10.4,10.4,0,0,0,130.73,20.776V184.4a10.394,10.394,0,0,0,10.384,10.384h82.544A10.394,10.394,0,0,0,234.041,184.4V20.776a10.4,10.4,0,0,0-10.384-10.384Z" transform="translate(-128.41 -8.072)"/>
          </g>
          <g id="Grupo_100047" data-name="Grupo 100047">
            <path id="Trazado_107153" data-name="Trazado 107153" d="M223.658,197.1H141.114a12.718,12.718,0,0,1-12.7-12.7V20.776a12.718,12.718,0,0,1,12.7-12.7h82.544a12.72,12.72,0,0,1,12.7,12.7V184.4A12.72,12.72,0,0,1,223.658,197.1ZM141.114,10.392A10.4,10.4,0,0,0,130.73,20.776V184.4a10.394,10.394,0,0,0,10.384,10.384h82.544A10.394,10.394,0,0,0,234.041,184.4V20.776a10.4,10.4,0,0,0-10.384-10.384Z" transform="translate(-128.41 -8.072)" fill="#4e4f4f"/>
          </g>
        </g>
        <g id="Grupo_100049" data-name="Grupo 100049" transform="translate(0 21.657)">
          <path id="Trazado_107154" data-name="Trazado 107154" d="M235.2,17.037H129.57a1.16,1.16,0,1,1,0-2.32H235.2a1.16,1.16,0,1,1,0,2.32Z" transform="translate(-128.41 -14.717)" fill="#4e4f4f"/>
        </g>
        <g id="Grupo_100050" data-name="Grupo 100050" transform="translate(0 164.119)">
          <path id="Trazado_107155" data-name="Trazado 107155" d="M235.2,60.753H129.57a1.162,1.162,0,0,1,0-2.324H235.2a1.162,1.162,0,0,1,0,2.324Z" transform="translate(-128.41 -58.429)" fill="#4e4f4f"/>
        </g>
      </g>
      <g id="Grupo_100057" data-name="Grupo 100057" transform="translate(2.51 23.976)">
        <rect id="Rectángulo_33987" data-name="Rectángulo 33987" width="103.12" height="140.142" fill="#f7fbfc"/>
        <g id="Grupo_100052" data-name="Grupo 100052" transform="translate(4.236 5.085)">
          <path id="Trazado_107156" data-name="Trazado 107156" d="M225.122,52.266c0,.114-.046.2-.108.2h-94.42c-.059,0-.114-.085-.114-.2V17.188c0-.1.055-.2.114-.2h94.42c.062,0,.108.095.108.2Z" transform="translate(-130.48 -16.989)" fill="#b4bcbe"/>
        </g>
        <g id="Grupo_100053" data-name="Grupo 100053" transform="translate(4.236 46.118)">
          <path id="Trazado_107157" data-name="Trazado 107157" d="M156.612,76.36c0,.143-.046.254-.108.254h-25.91c-.059,0-.114-.111-.114-.254V29.817c0-.143.055-.238.114-.238H156.5c.062,0,.108.095.108.238Z" transform="translate(-130.48 -29.579)" fill="#b4bcbe"/>
        </g>
        <g id="Grupo_100054" data-name="Grupo 100054" transform="translate(72.756 46.118)">
          <path id="Trazado_107158" data-name="Trazado 107158" d="M177.626,76.36c0,.143-.046.254-.108.254H151.612c-.065,0-.108-.111-.108-.254V29.817c0-.143.042-.238.108-.238h25.907c.062,0,.108.095.108.238Z" transform="translate(-151.504 -29.579)" fill="#b4bcbe"/>
        </g>
        <g id="Grupo_100055" data-name="Grupo 100055" transform="translate(37.016 46.118)">
          <path id="Trazado_107159" data-name="Trazado 107159" d="M169.629,76.36c0,.143-.046.254-.114.254H140.642c-.062,0-.1-.111-.1-.254V29.817c0-.143.042-.238.1-.238h28.873c.068,0,.114.095.114.238Z" transform="translate(-140.538 -29.579)" fill="#f9835b"/>
        </g>
        <g id="Grupo_100056" data-name="Grupo 100056" transform="translate(4.236 98.7)">
          <path id="Trazado_107160" data-name="Trazado 107160" d="M225.122,81c0,.111-.046.2-.108.2h-94.42c-.059,0-.114-.088-.114-.2V45.909c0-.1.055-.2.114-.2h94.42c.062,0,.108.091.108.2Z" transform="translate(-130.48 -45.713)" fill="#b4bcbe"/>
        </g>
      </g>
    </g>
    <g id="Grupo_100080" data-name="Grupo 100080" transform="translate(268.267 419.033)">
      <g id="Grupo_100065" data-name="Grupo 100065">
        <g id="Grupo_100062" data-name="Grupo 100062">
          <g id="Grupo_100059" data-name="Grupo 100059">
            <path id="Trazado_107161" data-name="Trazado 107161" d="M263.411,197.1H180.864a12.717,12.717,0,0,1-12.7-12.7V20.776a12.717,12.717,0,0,1,12.7-12.7h82.547a12.718,12.718,0,0,1,12.7,12.7V184.4A12.718,12.718,0,0,1,263.411,197.1Z" transform="translate(-168.163 -8.072)" fill="#fff"/>
          </g>
          <g id="Grupo_100060" data-name="Grupo 100060">
            <path id="Trazado_107162" data-name="Trazado 107162" d="M263.411,197.1H180.864a12.717,12.717,0,0,1-12.7-12.7V20.776a12.717,12.717,0,0,1,12.7-12.7h82.547a12.718,12.718,0,0,1,12.7,12.7V184.4A12.718,12.718,0,0,1,263.411,197.1ZM180.864,10.392a10.4,10.4,0,0,0-10.38,10.384V184.4a10.394,10.394,0,0,0,10.38,10.384h82.547A10.394,10.394,0,0,0,273.794,184.4V20.776a10.4,10.4,0,0,0-10.384-10.384Z" transform="translate(-168.163 -8.072)"/>
          </g>
          <g id="Grupo_100061" data-name="Grupo 100061">
            <path id="Trazado_107163" data-name="Trazado 107163" d="M263.411,197.1H180.864a12.717,12.717,0,0,1-12.7-12.7V20.776a12.717,12.717,0,0,1,12.7-12.7h82.547a12.718,12.718,0,0,1,12.7,12.7V184.4A12.718,12.718,0,0,1,263.411,197.1ZM180.864,10.392a10.4,10.4,0,0,0-10.38,10.384V184.4a10.394,10.394,0,0,0,10.38,10.384h82.547A10.394,10.394,0,0,0,273.794,184.4V20.776a10.4,10.4,0,0,0-10.384-10.384Z" transform="translate(-168.163 -8.072)" fill="#4e4f4f"/>
          </g>
        </g>
        <g id="Grupo_100063" data-name="Grupo 100063" transform="translate(0 21.657)">
          <path id="Trazado_107164" data-name="Trazado 107164" d="M274.955,17.037H169.323a1.16,1.16,0,1,1,0-2.32H274.955a1.16,1.16,0,0,1,0,2.32Z" transform="translate(-168.163 -14.717)" fill="#4e4f4f"/>
        </g>
        <g id="Grupo_100064" data-name="Grupo 100064" transform="translate(0 164.119)">
          <path id="Trazado_107165" data-name="Trazado 107165" d="M274.955,60.753H169.323a1.162,1.162,0,0,1,0-2.324H274.955a1.162,1.162,0,0,1,0,2.324Z" transform="translate(-168.163 -58.429)" fill="#4e4f4f"/>
        </g>
      </g>
      <g id="Grupo_100079" data-name="Grupo 100079" transform="translate(2.335 23.976)">
        <rect id="Rectángulo_33988" data-name="Rectángulo 33988" width="103.296" height="140.142" fill="#f7fbfc"/>
        <g id="Grupo_100069" data-name="Grupo 100069" transform="translate(4.255 6.881)">
          <g id="Grupo_100066" data-name="Grupo 100066">
            <path id="Trazado_107166" data-name="Trazado 107166" d="M196.352,43c0,.108-.052.2-.111.2H170.293c-.065,0-.108-.095-.108-.2V17.736c0-.1.042-.2.108-.2h25.949c.059,0,.111.091.111.2Z" transform="translate(-170.185 -17.54)" fill="#b4bcbe"/>
          </g>
          <g id="Grupo_100067" data-name="Grupo 100067" transform="translate(68.617)">
            <path id="Trazado_107167" data-name="Trazado 107167" d="M217.413,43c0,.108-.052.2-.114.2H191.353c-.062,0-.114-.095-.114-.2V17.736c0-.1.052-.2.114-.2H217.3c.062,0,.114.091.114.2Z" transform="translate(-191.239 -17.54)" fill="#b4bcbe"/>
          </g>
          <g id="Grupo_100068" data-name="Grupo 100068" transform="translate(31.529)">
            <path id="Trazado_107168" data-name="Trazado 107168" d="M211.583,43c0,.108-.049.2-.108.2h-31.5c-.062,0-.114-.095-.114-.2V17.736c0-.1.052-.2.114-.2h31.5c.059,0,.108.091.108.2Z" transform="translate(-179.859 -17.54)" fill="#b4bcbe"/>
          </g>
        </g>
        <g id="Grupo_100073" data-name="Grupo 100073" transform="translate(4.255 108.435)">
          <g id="Grupo_100070" data-name="Grupo 100070">
            <path id="Trazado_107169" data-name="Trazado 107169" d="M196.352,74.16c0,.111-.052.2-.111.2H170.293c-.065,0-.108-.085-.108-.2V48.9c0-.108.042-.2.108-.2h25.949c.059,0,.111.088.111.2Z" transform="translate(-170.185 -48.7)" fill="#b4bcbe"/>
          </g>
          <g id="Grupo_100071" data-name="Grupo 100071" transform="translate(68.617)">
            <path id="Trazado_107170" data-name="Trazado 107170" d="M217.413,74.16c0,.111-.052.2-.114.2H191.353c-.062,0-.114-.085-.114-.2V48.9c0-.108.052-.2.114-.2H217.3c.062,0,.114.088.114.2Z" transform="translate(-191.239 -48.7)" fill="#b4bcbe"/>
          </g>
          <g id="Grupo_100072" data-name="Grupo 100072" transform="translate(31.529)">
            <path id="Trazado_107171" data-name="Trazado 107171" d="M211.583,74.16c0,.111-.049.2-.108.2h-31.5c-.062,0-.114-.085-.114-.2V48.9c0-.108.052-.2.114-.2h31.5c.059,0,.108.088.108.2Z" transform="translate(-179.859 -48.7)" fill="#b4bcbe"/>
          </g>
        </g>
        <g id="Grupo_100074" data-name="Grupo 100074" transform="translate(82.982 40.685)">
          <path id="Trazado_107172" data-name="Trazado 107172" d="M210.405,52.486c0,.108-.052.2-.114.2H194.455c-.065,0-.114-.088-.114-.2V28.108c0-.111.049-.2.114-.2h15.836c.062,0,.114.085.114.2Z" transform="translate(-194.341 -27.912)" fill="#b4bcbe"/>
        </g>
        <g id="Grupo_100075" data-name="Grupo 100075" transform="translate(82.982 75.515)">
          <path id="Trazado_107173" data-name="Trazado 107173" d="M210.405,63.173c0,.108-.052.2-.114.2H194.455c-.065,0-.114-.091-.114-.2V38.791c0-.108.049-.192.114-.192h15.836c.062,0,.114.085.114.192Z" transform="translate(-194.341 -38.599)" fill="#b4bcbe"/>
        </g>
        <g id="Grupo_100076" data-name="Grupo 100076" transform="translate(4.255 40.685)">
          <path id="Trazado_107174" data-name="Trazado 107174" d="M186.243,52.486c0,.108-.052.2-.114.2H170.293c-.065,0-.108-.088-.108-.2V28.108c0-.111.042-.2.108-.2h15.836c.062,0,.114.085.114.2Z" transform="translate(-170.185 -27.912)" fill="#b4bcbe"/>
        </g>
        <g id="Grupo_100077" data-name="Grupo 100077" transform="translate(4.255 75.515)">
          <path id="Trazado_107175" data-name="Trazado 107175" d="M186.243,63.173c0,.108-.052.2-.114.2H170.293c-.065,0-.108-.091-.108-.2V38.791c0-.108.042-.192.108-.192h15.836c.062,0,.114.085.114.192Z" transform="translate(-170.185 -38.599)" fill="#b4bcbe"/>
        </g>
        <g id="Grupo_100078" data-name="Grupo 100078" transform="translate(25.505 40.685)">
          <path id="Trazado_107176" data-name="Trazado 107176" d="M228.994,87.316c0,.108-.049.2-.114.2H176.816c-.065,0-.111-.091-.111-.2V28.108c0-.111.046-.2.111-.2H228.88c.065,0,.114.085.114.2Z" transform="translate(-176.705 -27.912)" fill="#92d3d9"/>
        </g>
      </g>
    </g>
    <g id="Grupo_100150" data-name="Grupo 100150" transform="translate(9.153 419.033)">
      <g id="Grupo_100128" data-name="Grupo 100128">
        <g id="Grupo_100125" data-name="Grupo 100125">
          <g id="Grupo_100122" data-name="Grupo 100122">
            <path id="Trazado_107207" data-name="Trazado 107207" d="M223.658,260.2H141.114a12.719,12.719,0,0,1-12.7-12.707V83.874a12.717,12.717,0,0,1,12.7-12.7h82.544a12.719,12.719,0,0,1,12.7,12.7V247.495A12.721,12.721,0,0,1,223.658,260.2Z" transform="translate(-128.41 -71.173)" fill="#fff"/>
          </g>
          <g id="Grupo_100123" data-name="Grupo 100123">
            <path id="Trazado_107208" data-name="Trazado 107208" d="M223.658,260.2H141.114a12.719,12.719,0,0,1-12.7-12.707V83.874a12.717,12.717,0,0,1,12.7-12.7h82.544a12.719,12.719,0,0,1,12.7,12.7V247.495A12.721,12.721,0,0,1,223.658,260.2ZM141.114,73.493a10.394,10.394,0,0,0-10.384,10.38V247.495a10.394,10.394,0,0,0,10.384,10.384h82.544a10.394,10.394,0,0,0,10.384-10.384V83.874a10.394,10.394,0,0,0-10.384-10.38Z" transform="translate(-128.41 -71.173)"/>
          </g>
          <g id="Grupo_100124" data-name="Grupo 100124">
            <path id="Trazado_107209" data-name="Trazado 107209" d="M223.658,260.2H141.114a12.719,12.719,0,0,1-12.7-12.707V83.874a12.717,12.717,0,0,1,12.7-12.7h82.544a12.719,12.719,0,0,1,12.7,12.7V247.495A12.721,12.721,0,0,1,223.658,260.2ZM141.114,73.493a10.394,10.394,0,0,0-10.384,10.38V247.495a10.394,10.394,0,0,0,10.384,10.384h82.544a10.394,10.394,0,0,0,10.384-10.384V83.874a10.394,10.394,0,0,0-10.384-10.38Z" transform="translate(-128.41 -71.173)" fill="#4e4f4f"/>
          </g>
        </g>
        <g id="Grupo_100126" data-name="Grupo 100126" transform="translate(0 21.654)">
          <path id="Trazado_107210" data-name="Trazado 107210" d="M235.2,80.137H129.57a1.16,1.16,0,1,1,0-2.32H235.2a1.16,1.16,0,1,1,0,2.32Z" transform="translate(-128.41 -77.817)" fill="#4e4f4f"/>
        </g>
        <g id="Grupo_100127" data-name="Grupo 100127" transform="translate(0 164.116)">
          <path id="Trazado_107211" data-name="Trazado 107211" d="M235.2,123.853H129.57a1.162,1.162,0,0,1,0-2.324H235.2a1.162,1.162,0,0,1,0,2.324Z" transform="translate(-128.41 -121.529)" fill="#4e4f4f"/>
        </g>
      </g>
      <g id="Grupo_100149" data-name="Grupo 100149" transform="translate(2.356 23.975)">
        <rect id="Rectángulo_33990" data-name="Rectángulo 33990" width="103.275" height="140.142" fill="#f7fbfc"/>
        <g id="Grupo_100135" data-name="Grupo 100135" transform="translate(78.275 23.774)">
          <g id="Grupo_100129" data-name="Grupo 100129">
            <path id="Trazado_107212" data-name="Trazado 107212" d="M173.9,96.208c0,.108-.049.192-.114.192H153.264c-.062,0-.114-.085-.114-.192V86.023c0-.111.052-.2.114-.2h20.523c.065,0,.114.088.114.2Z" transform="translate(-153.15 -85.824)" fill="#b4bcbe"/>
          </g>
          <g id="Grupo_100130" data-name="Grupo 100130" transform="translate(0 16.403)">
            <path id="Trazado_107213" data-name="Trazado 107213" d="M173.9,101.254c0,.1-.049.192-.114.192H153.264c-.062,0-.114-.091-.114-.192v-10.2c0-.1.052-.2.114-.2h20.523c.065,0,.114.1.114.2Z" transform="translate(-153.15 -90.857)" fill="#b4bcbe"/>
          </g>
          <g id="Grupo_100131" data-name="Grupo 100131" transform="translate(0 32.823)">
            <path id="Trazado_107214" data-name="Trazado 107214" d="M173.9,106.275c0,.111-.049.2-.114.2H153.264c-.062,0-.114-.085-.114-.2V96.091c0-.111.052-.2.114-.2h20.523c.065,0,.114.085.114.2Z" transform="translate(-153.15 -95.895)" fill="#b4bcbe"/>
          </g>
          <g id="Grupo_100132" data-name="Grupo 100132" transform="translate(0 49.232)">
            <path id="Trazado_107215" data-name="Trazado 107215" d="M173.9,111.314c0,.111-.049.2-.114.2H153.264c-.062,0-.114-.088-.114-.2V101.126c0-.1.052-.2.114-.2h20.523c.065,0,.114.091.114.2Z" transform="translate(-153.15 -100.93)" fill="#b4bcbe"/>
          </g>
          <g id="Grupo_100133" data-name="Grupo 100133" transform="translate(0 65.642)">
            <path id="Trazado_107216" data-name="Trazado 107216" d="M173.9,116.352c0,.108-.049.2-.114.2H153.264c-.062,0-.114-.094-.114-.2V106.157c0-.1.052-.192.114-.192h20.523c.065,0,.114.091.114.192Z" transform="translate(-153.15 -105.965)" fill="#b4bcbe"/>
          </g>
          <g id="Grupo_100134" data-name="Grupo 100134" transform="translate(0 82.058)">
            <path id="Trazado_107217" data-name="Trazado 107217" d="M173.9,121.382c0,.111-.049.2-.114.2H153.264c-.062,0-.114-.088-.114-.2V111.2c0-.114.052-.2.114-.2h20.523c.065,0,.114.085.114.2Z" transform="translate(-153.15 -111.002)" fill="#b4bcbe"/>
          </g>
        </g>
        <g id="Grupo_100138" data-name="Grupo 100138" transform="translate(23.254 6.058)">
          <g id="Grupo_100136" data-name="Grupo 100136">
            <path id="Trazado_107218" data-name="Trazado 107218" d="M212.039,84.113c0,.111-.049.2-.114.2H136.382c-.065,0-.114-.085-.114-.2v-3.53c0-.1.049-.2.114-.2h75.543c.065,0,.114.091.114.2Z" transform="translate(-136.268 -80.388)" fill="#b4bcbe"/>
          </g>
          <g id="Grupo_100137" data-name="Grupo 100137" transform="translate(0 8.415)">
            <path id="Trazado_107219" data-name="Trazado 107219" d="M212.039,86.689c0,.111-.049.2-.114.2H136.382c-.065,0-.114-.088-.114-.2V83.166c0-.111.049-.2.114-.2h75.543c.065,0,.114.085.114.2Z" transform="translate(-136.268 -82.97)" fill="#b4bcbe"/>
          </g>
        </g>
        <g id="Grupo_100141" data-name="Grupo 100141" transform="translate(23.254 120.818)">
          <g id="Grupo_100139" data-name="Grupo 100139">
            <path id="Trazado_107220" data-name="Trazado 107220" d="M212.039,119.319c0,.108-.049.2-.114.2H136.382c-.065,0-.114-.091-.114-.2v-3.526c0-.108.049-.192.114-.192h75.543c.065,0,.114.085.114.192Z" transform="translate(-136.268 -115.6)" fill="#b4bcbe"/>
          </g>
          <g id="Grupo_100140" data-name="Grupo 100140" transform="translate(0 8.409)">
            <path id="Trazado_107221" data-name="Trazado 107221" d="M212.039,121.908c0,.1-.049.2-.114.2H136.382c-.065,0-.114-.094-.114-.2v-3.533c0-.1.049-.2.114-.2h75.543c.065,0,.114.091.114.2Z" transform="translate(-136.268 -118.18)" fill="#b4bcbe"/>
          </g>
        </g>
        <g id="Grupo_100142" data-name="Grupo 100142" transform="translate(23.254 23.774)">
          <path id="Trazado_107222" data-name="Trazado 107222" d="M186.941,86.023c0-.111-.046-.2-.107-.2H136.382c-.065,0-.114.088-.114.2v92.24c0,.111.049.2.114.2h50.451c.062,0,.107-.088.107-.2Z" transform="translate(-136.268 -85.824)" fill="#92d3d9"/>
        </g>
        <g id="Grupo_100148" data-name="Grupo 100148" transform="translate(4.247 6.058)">
          <g id="Grupo_100143" data-name="Grupo 100143">
            <path id="Trazado_107223" data-name="Trazado 107223" d="M144.721,100.516c0,.1-.052.2-.114.2H130.553c-.059,0-.117-.1-.117-.2V80.584c0-.1.059-.2.117-.2h14.053c.062,0,.114.091.114.2Z" transform="translate(-130.436 -80.388)" fill="#b4bcbe"/>
          </g>
          <g id="Grupo_100144" data-name="Grupo 100144" transform="translate(0 26.999)">
            <path id="Trazado_107224" data-name="Trazado 107224" d="M144.721,108.8c0,.111-.052.2-.114.2H130.553c-.059,0-.117-.085-.117-.2V88.864c0-.108.059-.192.117-.192h14.053c.062,0,.114.085.114.192Z" transform="translate(-130.436 -88.672)" fill="#b4bcbe"/>
          </g>
          <g id="Grupo_100145" data-name="Grupo 100145" transform="translate(0 53.991)">
            <path id="Trazado_107225" data-name="Trazado 107225" d="M144.721,117.092c0,.1-.052.192-.114.192H130.553c-.059,0-.117-.088-.117-.192V97.15c0-.111.059-.2.117-.2h14.053c.062,0,.114.085.114.2Z" transform="translate(-130.436 -96.954)" fill="#b4bcbe"/>
          </g>
          <g id="Grupo_100146" data-name="Grupo 100146" transform="translate(0 80.983)">
            <path id="Trazado_107226" data-name="Trazado 107226" d="M144.721,125.374c0,.111-.052.205-.114.205H130.553c-.059,0-.117-.094-.117-.205V105.438c0-.1.059-.2.117-.2h14.053c.062,0,.114.1.114.2Z" transform="translate(-130.436 -105.236)" fill="#b4bcbe"/>
          </g>
          <g id="Grupo_100147" data-name="Grupo 100147" transform="translate(0 107.991)">
            <path id="Trazado_107227" data-name="Trazado 107227" d="M144.721,133.651c0,.114-.052.2-.114.2H130.553c-.059,0-.117-.088-.117-.2V113.719c0-.111.059-.2.117-.2h14.053c.062,0,.114.085.114.2Z" transform="translate(-130.436 -113.523)" fill="#b4bcbe"/>
          </g>
        </g>
      </g>
    </g>
    <g id="Grupo_100169" data-name="Grupo 100169" transform="translate(268.273 213.726)">
      <g id="Grupo_100157" data-name="Grupo 100157">
        <g id="Grupo_100154" data-name="Grupo 100154">
          <g id="Grupo_100151" data-name="Grupo 100151">
            <path id="Trazado_107228" data-name="Trazado 107228" d="M183.9,260.2H101.361a12.719,12.719,0,0,1-12.7-12.707V83.874a12.717,12.717,0,0,1,12.7-12.7H183.9a12.719,12.719,0,0,1,12.7,12.7V247.495A12.721,12.721,0,0,1,183.9,260.2Z" transform="translate(-88.657 -71.173)" fill="#fff"/>
          </g>
          <g id="Grupo_100152" data-name="Grupo 100152">
            <path id="Trazado_107229" data-name="Trazado 107229" d="M183.9,260.2H101.361a12.719,12.719,0,0,1-12.7-12.707V83.874a12.717,12.717,0,0,1,12.7-12.7H183.9a12.719,12.719,0,0,1,12.7,12.7V247.495A12.721,12.721,0,0,1,183.9,260.2ZM101.361,73.493a10.394,10.394,0,0,0-10.384,10.38V247.495a10.394,10.394,0,0,0,10.384,10.384H183.9a10.394,10.394,0,0,0,10.384-10.384V83.874A10.394,10.394,0,0,0,183.9,73.493Z" transform="translate(-88.657 -71.173)"/>
          </g>
          <g id="Grupo_100153" data-name="Grupo 100153">
            <path id="Trazado_107230" data-name="Trazado 107230" d="M183.9,260.2H101.361a12.719,12.719,0,0,1-12.7-12.707V83.874a12.717,12.717,0,0,1,12.7-12.7H183.9a12.719,12.719,0,0,1,12.7,12.7V247.495A12.721,12.721,0,0,1,183.9,260.2ZM101.361,73.493a10.394,10.394,0,0,0-10.384,10.38V247.495a10.394,10.394,0,0,0,10.384,10.384H183.9a10.394,10.394,0,0,0,10.384-10.384V83.874A10.394,10.394,0,0,0,183.9,73.493Z" transform="translate(-88.657 -71.173)" fill="#4e4f4f"/>
          </g>
        </g>
        <g id="Grupo_100155" data-name="Grupo 100155" transform="translate(0 21.654)">
          <path id="Trazado_107231" data-name="Trazado 107231" d="M195.449,80.137H89.817a1.16,1.16,0,1,1,0-2.32H195.449a1.16,1.16,0,1,1,0,2.32Z" transform="translate(-88.657 -77.817)" fill="#4e4f4f"/>
        </g>
        <g id="Grupo_100156" data-name="Grupo 100156" transform="translate(0 164.116)">
          <path id="Trazado_107232" data-name="Trazado 107232" d="M195.449,123.853H89.817a1.162,1.162,0,0,1,0-2.324H195.449a1.162,1.162,0,0,1,0,2.324Z" transform="translate(-88.657 -121.529)" fill="#4e4f4f"/>
        </g>
      </g>
      <g id="Grupo_100168" data-name="Grupo 100168" transform="translate(2.361 23.975)">
        <rect id="Rectángulo_33991" data-name="Rectángulo 33991" width="103.27" height="140.142" fill="#f7fbfc"/>
        <g id="Grupo_100158" data-name="Grupo 100158" transform="translate(24.162 60.69)">
          <path id="Trazado_107233" data-name="Trazado 107233" d="M151.734,145.135c0,.108-.049.2-.114.2H96.906c-.062,0-.111-.095-.111-.2V97.353c0-.114.049-.2.111-.2H151.62c.065,0,.114.088.114.2Z" transform="translate(-96.795 -97.151)" fill="#f9835b"/>
        </g>
        <g id="Grupo_100159" data-name="Grupo 100159" transform="translate(4.246 60.69)">
          <path id="Trazado_107234" data-name="Trazado 107234" d="M106.435,145.135c0,.108-.052.2-.108.2H90.795c-.055,0-.111-.095-.111-.2V97.353c0-.114.055-.2.111-.2h15.533c.055,0,.108.088.108.2Z" transform="translate(-90.684 -97.151)" fill="#b4bcbe"/>
        </g>
        <g id="Grupo_100160" data-name="Grupo 100160" transform="translate(83.266 60.69)">
          <path id="Trazado_107235" data-name="Trazado 107235" d="M130.681,145.135c0,.108-.055.2-.108.2h-15.53c-.062,0-.114-.095-.114-.2V97.353c0-.114.052-.2.114-.2h15.53c.052,0,.108.088.108.2Z" transform="translate(-114.93 -97.151)" fill="#b4bcbe"/>
        </g>
        <g id="Grupo_100161" data-name="Grupo 100161" transform="translate(24.162 7.192)">
          <path id="Trazado_107236" data-name="Trazado 107236" d="M151.734,128.72c0,.111-.049.2-.114.2H96.906c-.062,0-.111-.085-.111-.2V80.932c0-.1.049-.2.111-.2H151.62c.065,0,.114.091.114.2Z" transform="translate(-96.795 -80.736)" fill="#f9835b"/>
        </g>
        <g id="Grupo_100165" data-name="Grupo 100165" transform="translate(4.246 113.586)">
          <g id="Grupo_100162" data-name="Grupo 100162" transform="translate(0 16.103)">
            <path id="Trazado_107237" data-name="Trazado 107237" d="M160.045,122.083c0,.114-.046.2-.111.2H90.795c-.055,0-.111-.081-.111-.2v-3.565c0-.111.055-.2.111-.2h69.139c.065,0,.111.085.111.2Z" transform="translate(-90.684 -118.322)" fill="#b4bcbe"/>
          </g>
          <g id="Grupo_100163" data-name="Grupo 100163" transform="translate(0 8.057)">
            <path id="Trazado_107238" data-name="Trazado 107238" d="M185.456,119.611c0,.1-.055.192-.108.192H90.795c-.055,0-.111-.088-.111-.192v-3.575c0-.1.055-.183.111-.183h94.554c.052,0,.108.078.108.183Z" transform="translate(-90.684 -115.853)" fill="#b4bcbe"/>
          </g>
          <g id="Grupo_100164" data-name="Grupo 100164">
            <path id="Trazado_107239" data-name="Trazado 107239" d="M185.456,117.142c0,.1-.055.2-.108.2H90.795c-.055,0-.111-.091-.111-.2V113.57c0-.1.055-.189.111-.189h94.554c.052,0,.108.091.108.189Z" transform="translate(-90.684 -113.381)" fill="#949899"/>
          </g>
        </g>
        <g id="Grupo_100166" data-name="Grupo 100166" transform="translate(4.246 7.192)">
          <path id="Trazado_107240" data-name="Trazado 107240" d="M106.435,128.72c0,.111-.052.2-.108.2H90.795c-.055,0-.111-.085-.111-.2V80.932c0-.1.055-.2.111-.2h15.533c.055,0,.108.091.108.2Z" transform="translate(-90.684 -80.736)" fill="#b4bcbe"/>
        </g>
        <g id="Grupo_100167" data-name="Grupo 100167" transform="translate(83.266 7.192)">
          <path id="Trazado_107241" data-name="Trazado 107241" d="M130.681,128.72c0,.111-.055.2-.108.2h-15.53c-.062,0-.114-.085-.114-.2V80.932c0-.1.052-.2.114-.2h15.53c.052,0,.108.091.108.2Z" transform="translate(-114.93 -80.736)" fill="#b4bcbe"/>
        </g>
      </g>
    </g>
    <g id="Grupo_100190" data-name="Grupo 100190" transform="translate(138.71 213.726)">
      <g id="Grupo_100176" data-name="Grupo 100176">
        <g id="Grupo_100173" data-name="Grupo 100173">
          <g id="Grupo_100170" data-name="Grupo 100170">
            <path id="Trazado_107242" data-name="Trazado 107242" d="M144.154,260.2H61.607a12.721,12.721,0,0,1-12.7-12.707V83.874a12.719,12.719,0,0,1,12.7-12.7h82.547a12.719,12.719,0,0,1,12.7,12.7V247.495A12.721,12.721,0,0,1,144.154,260.2Z" transform="translate(-48.903 -71.173)" fill="#fff"/>
          </g>
          <g id="Grupo_100171" data-name="Grupo 100171">
            <path id="Trazado_107243" data-name="Trazado 107243" d="M144.154,260.2H61.607a12.721,12.721,0,0,1-12.7-12.707V83.874a12.719,12.719,0,0,1,12.7-12.7h82.547a12.719,12.719,0,0,1,12.7,12.7V247.495A12.721,12.721,0,0,1,144.154,260.2ZM61.607,73.493a10.393,10.393,0,0,0-10.38,10.38V247.495a10.394,10.394,0,0,0,10.38,10.384h82.547a10.394,10.394,0,0,0,10.384-10.384V83.874a10.394,10.394,0,0,0-10.384-10.38Z" transform="translate(-48.903 -71.173)"/>
          </g>
          <g id="Grupo_100172" data-name="Grupo 100172">
            <path id="Trazado_107244" data-name="Trazado 107244" d="M144.154,260.2H61.607a12.721,12.721,0,0,1-12.7-12.707V83.874a12.719,12.719,0,0,1,12.7-12.7h82.547a12.719,12.719,0,0,1,12.7,12.7V247.495A12.721,12.721,0,0,1,144.154,260.2ZM61.607,73.493a10.393,10.393,0,0,0-10.38,10.38V247.495a10.394,10.394,0,0,0,10.38,10.384h82.547a10.394,10.394,0,0,0,10.384-10.384V83.874a10.394,10.394,0,0,0-10.384-10.38Z" transform="translate(-48.903 -71.173)" fill="#4e4f4f"/>
          </g>
        </g>
        <g id="Grupo_100174" data-name="Grupo 100174" transform="translate(0 21.654)">
          <path id="Trazado_107245" data-name="Trazado 107245" d="M155.7,80.137H50.063a1.16,1.16,0,1,1,0-2.32H155.7a1.16,1.16,0,1,1,0,2.32Z" transform="translate(-48.903 -77.817)" fill="#4e4f4f"/>
        </g>
        <g id="Grupo_100175" data-name="Grupo 100175" transform="translate(0 164.116)">
          <path id="Trazado_107246" data-name="Trazado 107246" d="M155.7,123.853H50.063a1.162,1.162,0,0,1,0-2.324H155.7a1.162,1.162,0,0,1,0,2.324Z" transform="translate(-48.903 -121.529)" fill="#4e4f4f"/>
        </g>
      </g>
      <g id="Grupo_100189" data-name="Grupo 100189" transform="translate(2.379 23.974)">
        <path id="Trazado_107247" data-name="Trazado 107247" d="M49.64,78.529c0,.036-.007.072-.007.108V218.671H152.888V78.637l-.007-.108Z" transform="translate(-49.633 -78.529)" fill="#f7fbfc"/>
        <g id="Grupo_100177" data-name="Grupo 100177" transform="translate(4.25 7.108)">
          <path id="Trazado_107248" data-name="Trazado 107248" d="M102.975,166.806c0,.108-.052.2-.111.2H51.048c-.062,0-.111-.088-.111-.2v-85.9c0-.1.049-.2.111-.2h51.817c.059,0,.111.091.111.2Z" transform="translate(-50.937 -80.71)" fill="#f9835b"/>
        </g>
        <g id="Grupo_100183" data-name="Grupo 100183" transform="translate(60.564 7.108)">
          <g id="Grupo_100178" data-name="Grupo 100178">
            <path id="Trazado_107249" data-name="Trazado 107249" d="M106.657,92.831c0,.108-.049.192-.111.192H68.33c-.065,0-.114-.085-.114-.192V80.906c0-.1.049-.2.114-.2h38.216c.062,0,.111.091.111.2Z" transform="translate(-68.216 -80.71)" fill="#b4bcbe"/>
          </g>
          <g id="Grupo_100179" data-name="Grupo 100179" transform="translate(0 18.489)">
            <path id="Trazado_107250" data-name="Trazado 107250" d="M106.657,98.507c0,.111-.049.2-.111.2H68.33c-.065,0-.114-.088-.114-.2V86.585c0-.1.049-.2.114-.2h38.216c.062,0,.111.1.111.2Z" transform="translate(-68.216 -86.383)" fill="#b4bcbe"/>
          </g>
          <g id="Grupo_100180" data-name="Grupo 100180" transform="translate(0 36.984)">
            <path id="Trazado_107251" data-name="Trazado 107251" d="M106.657,104.182c0,.111-.049.2-.111.2H68.33c-.065,0-.114-.085-.114-.2V92.254c0-.1.049-.2.114-.2h38.216c.062,0,.111.091.111.2Z" transform="translate(-68.216 -92.058)" fill="#b4bcbe"/>
          </g>
          <g id="Grupo_100181" data-name="Grupo 100181" transform="translate(0 55.483)">
            <path id="Trazado_107252" data-name="Trazado 107252" d="M106.657,109.851c0,.108-.049.2-.111.2H68.33c-.065,0-.114-.091-.114-.2V97.93c0-.1.049-.2.114-.2h38.216c.062,0,.111.094.111.2Z" transform="translate(-68.216 -97.734)" fill="#b4bcbe"/>
          </g>
          <g id="Grupo_100182" data-name="Grupo 100182" transform="translate(0 73.972)">
            <path id="Trazado_107253" data-name="Trazado 107253" d="M106.657,115.531c0,.108-.049.2-.111.2H68.33c-.065,0-.114-.088-.114-.2V103.6c0-.1.049-.2.114-.2h38.216c.062,0,.111.091.111.2Z" transform="translate(-68.216 -103.407)" fill="#b4bcbe"/>
          </g>
        </g>
        <g id="Grupo_100188" data-name="Grupo 100188" transform="translate(4.25 100.319)">
          <g id="Grupo_100184" data-name="Grupo 100184" transform="translate(0 29.15)">
            <path id="Trazado_107254" data-name="Trazado 107254" d="M120.291,122.908c0,.114-.052.2-.111.2H51.048c-.062,0-.111-.081-.111-.2v-4.462c0-.111.049-.192.111-.192H120.18c.059,0,.111.081.111.192Z" transform="translate(-50.937 -118.254)" fill="#b4bcbe"/>
          </g>
          <g id="Grupo_100185" data-name="Grupo 100185" transform="translate(0 19.268)">
            <path id="Trazado_107255" data-name="Trazado 107255" d="M145.693,119.883c0,.111-.049.189-.111.189H51.048c-.062,0-.111-.078-.111-.189v-4.468c0-.114.049-.192.111-.192h94.534c.062,0,.111.078.111.192Z" transform="translate(-50.937 -115.222)" fill="#b4bcbe"/>
          </g>
          <g id="Grupo_100186" data-name="Grupo 100186" transform="translate(0 9.39)">
            <path id="Trazado_107256" data-name="Trazado 107256" d="M145.693,116.852c0,.108-.049.2-.111.2H51.048c-.062,0-.111-.088-.111-.2v-4.465c0-.1.049-.2.111-.2h94.534c.062,0,.111.095.111.2Z" transform="translate(-50.937 -112.191)" fill="#b4bcbe"/>
          </g>
          <g id="Grupo_100187" data-name="Grupo 100187">
            <path id="Trazado_107257" data-name="Trazado 107257" d="M145.693,113.967c0,.111-.049.192-.111.192H51.048c-.062,0-.111-.081-.111-.192V109.5c0-.108.049-.189.111-.189h94.534c.062,0,.111.081.111.189Z" transform="translate(-50.937 -109.31)" fill="#b4bcbe"/>
          </g>
        </g>
      </g>
    </g>
    <g id="Grupo_100238" data-name="Grupo 100238" transform="translate(9.15 213.726)">
      <g id="Grupo_100197" data-name="Grupo 100197">
        <g id="Grupo_100194" data-name="Grupo 100194">
          <g id="Grupo_100191" data-name="Grupo 100191">
            <path id="Trazado_107258" data-name="Trazado 107258" d="M104.4,260.2H21.854a12.721,12.721,0,0,1-12.7-12.707V83.874a12.719,12.719,0,0,1,12.7-12.7H104.4a12.719,12.719,0,0,1,12.7,12.7V247.495A12.721,12.721,0,0,1,104.4,260.2Z" transform="translate(-9.15 -71.173)" fill="#fff"/>
          </g>
          <g id="Grupo_100192" data-name="Grupo 100192">
            <path id="Trazado_107259" data-name="Trazado 107259" d="M104.4,260.2H21.854a12.721,12.721,0,0,1-12.7-12.707V83.874a12.719,12.719,0,0,1,12.7-12.7H104.4a12.719,12.719,0,0,1,12.7,12.7V247.495A12.721,12.721,0,0,1,104.4,260.2ZM21.854,73.493a10.393,10.393,0,0,0-10.38,10.38V247.495a10.394,10.394,0,0,0,10.38,10.384H104.4a10.394,10.394,0,0,0,10.38-10.384V83.874a10.393,10.393,0,0,0-10.38-10.38Z" transform="translate(-9.15 -71.173)"/>
          </g>
          <g id="Grupo_100193" data-name="Grupo 100193">
            <path id="Trazado_107260" data-name="Trazado 107260" d="M104.4,260.2H21.854a12.721,12.721,0,0,1-12.7-12.707V83.874a12.719,12.719,0,0,1,12.7-12.7H104.4a12.719,12.719,0,0,1,12.7,12.7V247.495A12.721,12.721,0,0,1,104.4,260.2ZM21.854,73.493a10.393,10.393,0,0,0-10.38,10.38V247.495a10.394,10.394,0,0,0,10.38,10.384H104.4a10.394,10.394,0,0,0,10.38-10.384V83.874a10.393,10.393,0,0,0-10.38-10.38Z" transform="translate(-9.15 -71.173)" fill="#4e4f4f"/>
          </g>
        </g>
        <g id="Grupo_100195" data-name="Grupo 100195" transform="translate(0 21.654)">
          <path id="Trazado_107261" data-name="Trazado 107261" d="M115.942,80.137H10.31a1.16,1.16,0,1,1,0-2.32H115.942a1.16,1.16,0,1,1,0,2.32Z" transform="translate(-9.15 -77.817)" fill="#4e4f4f"/>
        </g>
        <g id="Grupo_100196" data-name="Grupo 100196" transform="translate(0 164.116)">
          <path id="Trazado_107262" data-name="Trazado 107262" d="M115.942,123.853H10.31a1.162,1.162,0,0,1,0-2.324H115.942a1.162,1.162,0,1,1,0,2.324Z" transform="translate(-9.15 -121.529)" fill="#4e4f4f"/>
        </g>
      </g>
      <g id="Grupo_100237" data-name="Grupo 100237" transform="translate(2.428 23.975)">
        <rect id="Rectángulo_33992" data-name="Rectángulo 33992" width="103.205" height="140.142" fill="#f7fbfc"/>
        <g id="Grupo_100198" data-name="Grupo 100198" transform="translate(4.38 4.845)">
          <path id="Trazado_107263" data-name="Trazado 107263" d="M95.732,85.644h-82.5a2,2,0,0,1-1.995-2V82.02a2,2,0,0,1,1.995-2h82.5a1.994,1.994,0,0,1,1.991,2v1.623A2,2,0,0,1,95.732,85.644Zm-82.5-5.071A1.441,1.441,0,0,0,11.79,82.02v1.623a1.445,1.445,0,0,0,1.444,1.447h82.5a1.449,1.449,0,0,0,1.441-1.447V82.02a1.444,1.444,0,0,0-1.441-1.447Z" transform="translate(-11.239 -80.016)" fill="#b4bcbe"/>
        </g>
        <g id="Grupo_100201" data-name="Grupo 100201" transform="translate(92.966 4.877)">
          <g id="Grupo_100200" data-name="Grupo 100200" transform="translate(0 0.503)">
            <g id="Grupo_100199" data-name="Grupo 100199">
              <path id="Trazado_107264" data-name="Trazado 107264" d="M43.172,82.458c-.13,0-.241.078-.222.166v.085a2.019,2.019,0,1,1-2.024-2.03h.362a3.456,3.456,0,0,0,1.023.264c.218,0,.14-.183-.173-.407a2.306,2.306,0,0,0-1.212-.355,2.531,2.531,0,1,0,2.513,2.529v-.085C43.429,82.536,43.3,82.458,43.172,82.458Z" transform="translate(-38.42 -80.18)" fill="#b4bcbe"/>
            </g>
          </g>
          <path id="Trazado_107265" data-name="Trazado 107265" d="M41.123,81.793c.036.01.055-.013.036-.039l-.8-1.7c-.023-.029-.039-.033-.065-.007L39.226,81.6c-.013.023-.007.042.029.049l1.867.14c.036.01.055-.013.036-.039l-.8-1.7c-.023-.029-.039-.033-.065-.007L39.226,81.6c-.013.023-.007.042.029.049Z" transform="translate(-36.612 -80.026)" fill="#b4bcbe"/>
        </g>
        <g id="Grupo_100202" data-name="Grupo 100202" transform="translate(84.657 5.657)">
          <path id="Trazado_107266" data-name="Trazado 107266" d="M37.626,83.772a1.729,1.729,0,0,1-1.069-.362,1.753,1.753,0,1,1,2.457-.323A1.736,1.736,0,0,1,37.626,83.772Zm0-3.086a1.356,1.356,0,0,0-1.066.521,1.341,1.341,0,0,0,.251,1.874,1.366,1.366,0,0,0,1.874-.251,1.33,1.33,0,0,0-1.059-2.145Z" transform="translate(-35.87 -80.265)" fill="#b4bcbe"/>
        </g>
        <path id="Trazado_107267" data-name="Trazado 107267" d="M38.5,82.431a.276.276,0,0,1-.391.046l-1.349-.971c-.121-.095.078-.156.173-.277s.042-.261.163-.166l1.356.978A.279.279,0,0,1,38.5,82.431Z" transform="translate(50.707 -72.877)" fill="#b4bcbe"/>
        <g id="Grupo_100209" data-name="Grupo 100209" transform="translate(4.142 72.801)">
          <g id="Grupo_100207" data-name="Grupo 100207" transform="translate(0 36.59)">
            <g id="Grupo_100203" data-name="Grupo 100203">
              <path id="Trazado_107268" data-name="Trazado 107268" d="M31.685,115.382c0,.134-.052.235-.114.235H11.277c-.059,0-.111-.1-.111-.235v-3.054c0-.13.052-.235.111-.235H31.571c.062,0,.114.1.114.235Z" transform="translate(-11.166 -112.094)" fill="#b4bcbe"/>
            </g>
            <g id="Grupo_100204" data-name="Grupo 100204" transform="translate(0 7.079)">
              <path id="Trazado_107269" data-name="Trazado 107269" d="M31.685,117.564c0,.127-.052.244-.114.244H11.277c-.059,0-.111-.117-.111-.244V114.5c0-.117.052-.238.111-.238H31.571c.062,0,.114.121.114.238Z" transform="translate(-11.166 -114.266)" fill="#b4bcbe"/>
            </g>
            <g id="Grupo_100205" data-name="Grupo 100205" transform="translate(0 14.171)">
              <path id="Trazado_107270" data-name="Trazado 107270" d="M31.685,119.73c0,.134-.052.238-.114.238H11.277c-.059,0-.111-.1-.111-.238v-3.044c0-.137.052-.244.111-.244H31.571c.062,0,.114.108.114.244Z" transform="translate(-11.166 -116.442)" fill="#b4bcbe"/>
            </g>
            <g id="Grupo_100206" data-name="Grupo 100206" transform="translate(0 21.269)">
              <path id="Trazado_107271" data-name="Trazado 107271" d="M31.685,121.905c0,.134-.052.238-.114.238H11.277c-.059,0-.111-.1-.111-.238v-3.047c0-.134.052-.238.111-.238H31.571c.062,0,.114.1.114.238Z" transform="translate(-11.166 -118.62)" fill="#b4bcbe"/>
            </g>
          </g>
          <g id="Grupo_100208" data-name="Grupo 100208" transform="translate(0.101)">
            <path id="Trazado_107272" data-name="Trazado 107272" d="M31.716,133.145c0,.111-.049.2-.108.2h-20.3c-.062,0-.111-.091-.111-.2v-32.08c0-.111.049-.2.111-.2h20.3c.059,0,.108.088.108.2Z" transform="translate(-11.197 -100.867)" fill="#b4bcbe"/>
          </g>
        </g>
        <g id="Grupo_100216" data-name="Grupo 100216" transform="translate(28.494 72.801)">
          <g id="Grupo_100214" data-name="Grupo 100214" transform="translate(0 36.59)">
            <g id="Grupo_100210" data-name="Grupo 100210">
              <path id="Trazado_107273" data-name="Trazado 107273" d="M39.157,115.382c0,.134-.049.235-.108.235h-20.3c-.062,0-.114-.1-.114-.235v-3.054c0-.13.052-.235.114-.235h20.3c.059,0,.108.1.108.235Z" transform="translate(-18.638 -112.094)" fill="#b4bcbe"/>
            </g>
            <g id="Grupo_100211" data-name="Grupo 100211" transform="translate(0 7.079)">
              <path id="Trazado_107274" data-name="Trazado 107274" d="M39.157,117.564c0,.127-.049.244-.108.244h-20.3c-.062,0-.114-.117-.114-.244V114.5c0-.117.052-.238.114-.238h20.3c.059,0,.108.121.108.238Z" transform="translate(-18.638 -114.266)" fill="#b4bcbe"/>
            </g>
            <g id="Grupo_100212" data-name="Grupo 100212" transform="translate(0 14.171)">
              <path id="Trazado_107275" data-name="Trazado 107275" d="M39.157,119.73c0,.134-.049.238-.108.238h-20.3c-.062,0-.114-.1-.114-.238v-3.044c0-.137.052-.244.114-.244h20.3c.059,0,.108.108.108.244Z" transform="translate(-18.638 -116.442)" fill="#b4bcbe"/>
            </g>
            <g id="Grupo_100213" data-name="Grupo 100213" transform="translate(0 21.269)">
              <path id="Trazado_107276" data-name="Trazado 107276" d="M39.157,121.905c0,.134-.049.238-.108.238h-20.3c-.062,0-.114-.1-.114-.238v-3.047c0-.134.052-.238.114-.238h20.3c.059,0,.108.1.108.238Z" transform="translate(-18.638 -118.62)" fill="#b4bcbe"/>
            </g>
          </g>
          <g id="Grupo_100215" data-name="Grupo 100215" transform="translate(0.108)">
            <path id="Trazado_107277" data-name="Trazado 107277" d="M39.19,133.145c0,.111-.052.2-.111.2h-20.3c-.062,0-.111-.091-.111-.2v-32.08c0-.111.049-.2.111-.2h20.3c.059,0,.111.088.111.2Z" transform="translate(-18.671 -100.867)" fill="#b4bcbe"/>
          </g>
        </g>
        <g id="Grupo_100223" data-name="Grupo 100223" transform="translate(52.853 72.801)">
          <g id="Grupo_100221" data-name="Grupo 100221" transform="translate(0 36.59)">
            <g id="Grupo_100217" data-name="Grupo 100217">
              <path id="Trazado_107278" data-name="Trazado 107278" d="M46.631,115.382c0,.134-.049.235-.111.235h-20.3c-.059,0-.111-.1-.111-.235v-3.054c0-.13.052-.235.111-.235h20.3c.062,0,.111.1.111.235Z" transform="translate(-26.112 -112.094)" fill="#b4bcbe"/>
            </g>
            <g id="Grupo_100218" data-name="Grupo 100218" transform="translate(0 7.079)">
              <path id="Trazado_107279" data-name="Trazado 107279" d="M46.631,117.564c0,.127-.049.244-.111.244h-20.3c-.059,0-.111-.117-.111-.244V114.5c0-.117.052-.238.111-.238h20.3c.062,0,.111.121.111.238Z" transform="translate(-26.112 -114.266)" fill="#b4bcbe"/>
            </g>
            <g id="Grupo_100219" data-name="Grupo 100219" transform="translate(0 14.171)">
              <path id="Trazado_107280" data-name="Trazado 107280" d="M46.631,119.73c0,.134-.049.238-.111.238h-20.3c-.059,0-.111-.1-.111-.238v-3.044c0-.137.052-.244.111-.244h20.3c.062,0,.111.108.111.244Z" transform="translate(-26.112 -116.442)" fill="#b4bcbe"/>
            </g>
            <g id="Grupo_100220" data-name="Grupo 100220" transform="translate(0 21.269)">
              <path id="Trazado_107281" data-name="Trazado 107281" d="M46.631,121.905c0,.134-.049.238-.111.238h-20.3c-.059,0-.111-.1-.111-.238v-3.047c0-.134.052-.238.111-.238h20.3c.062,0,.111.1.111.238Z" transform="translate(-26.112 -118.62)" fill="#b4bcbe"/>
            </g>
          </g>
          <g id="Grupo_100222" data-name="Grupo 100222" transform="translate(0.104)">
            <path id="Trazado_107282" data-name="Trazado 107282" d="M46.66,133.145c0,.111-.049.2-.108.2h-20.3c-.062,0-.111-.091-.111-.2v-32.08c0-.111.049-.2.111-.2h20.3c.059,0,.108.088.108.2Z" transform="translate(-26.144 -100.867)" fill="#b4bcbe"/>
          </g>
        </g>
        <g id="Grupo_100230" data-name="Grupo 100230" transform="translate(77.205 72.801)">
          <g id="Grupo_100228" data-name="Grupo 100228" transform="translate(0 36.59)">
            <g id="Grupo_100224" data-name="Grupo 100224">
              <path id="Trazado_107283" data-name="Trazado 107283" d="M54.1,115.382c0,.134-.046.235-.108.235h-20.3c-.055,0-.111-.1-.111-.235v-3.054c0-.13.055-.235.111-.235H54c.062,0,.108.1.108.235Z" transform="translate(-33.584 -112.094)" fill="#b4bcbe"/>
            </g>
            <g id="Grupo_100225" data-name="Grupo 100225" transform="translate(0 7.079)">
              <path id="Trazado_107284" data-name="Trazado 107284" d="M54.1,117.564c0,.127-.046.244-.108.244h-20.3c-.055,0-.111-.117-.111-.244V114.5c0-.117.055-.238.111-.238H54c.062,0,.108.121.108.238Z" transform="translate(-33.584 -114.266)" fill="#b4bcbe"/>
            </g>
            <g id="Grupo_100226" data-name="Grupo 100226" transform="translate(0 14.171)">
              <path id="Trazado_107285" data-name="Trazado 107285" d="M54.1,119.73c0,.134-.046.238-.108.238h-20.3c-.055,0-.111-.1-.111-.238v-3.044c0-.137.055-.244.111-.244H54c.062,0,.108.108.108.244Z" transform="translate(-33.584 -116.442)" fill="#b4bcbe"/>
            </g>
            <g id="Grupo_100227" data-name="Grupo 100227" transform="translate(0 21.269)">
              <path id="Trazado_107286" data-name="Trazado 107286" d="M54.1,121.905c0,.134-.046.238-.108.238h-20.3c-.055,0-.111-.1-.111-.238v-3.047c0-.134.055-.238.111-.238H54c.062,0,.108.1.108.238Z" transform="translate(-33.584 -118.62)" fill="#b4bcbe"/>
            </g>
          </g>
          <g id="Grupo_100229" data-name="Grupo 100229" transform="translate(0.104)">
            <path id="Trazado_107287" data-name="Trazado 107287" d="M54.139,133.145c0,.111-.049.2-.114.2h-20.3c-.062,0-.111-.091-.111-.2v-32.08c0-.111.049-.2.111-.2h20.3c.065,0,.114.088.114.2Z" transform="translate(-33.616 -100.867)" fill="#b4bcbe"/>
          </g>
        </g>
        <g id="Grupo_100231" data-name="Grupo 100231" transform="translate(4.142 15.007)">
          <path id="Trazado_107288" data-name="Trazado 107288" d="M53.391,136.026c0,.127-.049.235-.114.235h-42c-.059,0-.111-.108-.111-.235V83.362c0-.13.052-.228.111-.228h42c.065,0,.114.1.114.228Z" transform="translate(-11.166 -83.134)" fill="#f9835b"/>
        </g>
        <g id="Grupo_100236" data-name="Grupo 100236" transform="translate(49.529 15.007)">
          <g id="Grupo_100232" data-name="Grupo 100232" transform="translate(25.509)">
            <path id="Trazado_107289" data-name="Trazado 107289" d="M55.713,105.834c0,.114-.049.228-.114.228H33.03c-.062,0-.111-.114-.111-.228V83.362c0-.13.049-.228.111-.228H55.6c.065,0,.114.1.114.228Z" transform="translate(-32.919 -83.134)" fill="#b4bcbe"/>
          </g>
          <g id="Grupo_100233" data-name="Grupo 100233">
            <path id="Trazado_107290" data-name="Trazado 107290" d="M47.883,105.834c0,.114-.046.228-.108.228H25.206c-.065,0-.114-.114-.114-.228V83.362c0-.13.049-.228.114-.228H47.775c.062,0,.108.1.108.228Z" transform="translate(-25.092 -83.134)" fill="#b4bcbe"/>
          </g>
          <g id="Grupo_100234" data-name="Grupo 100234" transform="translate(25.659 29.743)">
            <path id="Trazado_107291" data-name="Trazado 107291" d="M55.759,114.95c0,.124-.049.231-.111.231H33.076c-.059,0-.111-.108-.111-.231V92.482c0-.13.052-.222.111-.222H55.648c.062,0,.111.091.111.222Z" transform="translate(-32.965 -92.26)" fill="#b4bcbe"/>
          </g>
          <g id="Grupo_100235" data-name="Grupo 100235" transform="translate(0 29.743)">
            <path id="Trazado_107292" data-name="Trazado 107292" d="M47.883,114.95c0,.124-.046.231-.108.231H25.206c-.065,0-.114-.108-.114-.231V92.482c0-.13.049-.222.114-.222H47.775c.062,0,.108.091.108.222Z" transform="translate(-25.092 -92.26)" fill="#b4bcbe"/>
          </g>
        </g>
      </g>
    </g>
  </g>
</svg>
