<svg id="flecha-correcta" xmlns="http://www.w3.org/2000/svg" width="64.38" height="64.381" viewBox="0 0 64.38 64.381">
  <path id="Trazado_107293" data-name="Trazado 107293" d="M32.19,0A32.19,32.19,0,1,1,0,32.19,32.19,32.19,0,0,1,32.19,0Z" fill="#ffca28"/>
  <path id="Trazado_107294" data-name="Trazado 107294" d="M80.745,92.616a6.5,6.5,0,0,1,8.977,0,6.346,6.346,0,0,1,0,8.974l0,0L87.2,104.112h16.215a7,7,0,0,1,0,14H87.2l2.519,2.519a6.349,6.349,0,0,1-8.977,8.938L65.229,114.049a4.2,4.2,0,0,1,0-5.937Z" transform="translate(-54.433 -78.9)" fill="#fafafa"/>
  <path id="Trazado_107295" data-name="Trazado 107295" d="M32.19,64.381A32.19,32.19,0,1,0,0,32.19,32.19,32.19,0,0,0,32.19,64.381Zm0-61.582A29.391,29.391,0,1,1,2.8,32.19,29.391,29.391,0,0,1,32.19,2.8Z"/>
  <path id="Trazado_107296" data-name="Trazado 107296" d="M85.224,131.305A6.346,6.346,0,0,0,89.7,120.478l-2.519-2.519h16.235a7,7,0,0,0,0-14H87.2l2.519-2.519a6.346,6.346,0,0,0,0-8.974l0,0a6.5,6.5,0,0,0-8.977,0L65.229,107.983a4.2,4.2,0,0,0,0,5.937l15.516,15.516A6.3,6.3,0,0,0,85.224,131.305Zm18.195-24.543a4.2,4.2,0,0,1,0,8.4H83.824a1.4,1.4,0,0,0-.991,2.391l4.91,4.887a3.546,3.546,0,0,1,0,5.016l0,0a3.639,3.639,0,0,1-5.019,0L67.208,111.941a1.4,1.4,0,0,1,0-1.979L82.7,94.446a3.639,3.639,0,0,1,5.019,0,3.546,3.546,0,0,1,0,5.016l0,0-4.9,4.9a1.4,1.4,0,0,0,1,2.4h19.594Z" transform="translate(-54.433 -78.771)"/>
</svg>
