<svg id="flecha-correcta" xmlns="http://www.w3.org/2000/svg" width="64.38" height="64.381" viewBox="0 0 64.38 64.381">
  <path id="Trazado_107293" data-name="Trazado 107293" d="M32.19,0A32.19,32.19,0,1,0,64.38,32.19,32.19,32.19,0,0,0,32.19,0Z" fill="#ffca28"/>
  <path id="Trazado_107294" data-name="Trazado 107294" d="M93.671,92.616a6.5,6.5,0,0,0-8.977,0,6.346,6.346,0,0,0,0,8.974l0,0,2.519,2.519H71a7,7,0,0,0,0,14H87.213l-2.519,2.519a6.349,6.349,0,0,0,8.977,8.938l15.516-15.516a4.2,4.2,0,0,0,0-5.937Z" transform="translate(-55.603 -78.9)" fill="#fafafa"/>
  <path id="Trazado_107295" data-name="Trazado 107295" d="M32.19,64.381A32.19,32.19,0,1,1,64.38,32.19,32.19,32.19,0,0,1,32.19,64.381Zm0-61.581A29.391,29.391,0,1,0,61.581,32.19,29.391,29.391,0,0,0,32.19,2.8Z"/>
  <path id="Trazado_107296" data-name="Trazado 107296" d="M89.192,131.305a6.346,6.346,0,0,1-4.479-10.827l2.519-2.519H71a7,7,0,1,1,0-14H87.213l-2.519-2.519a6.346,6.346,0,0,1,0-8.974l0,0a6.5,6.5,0,0,1,8.977,0l15.516,15.516a4.2,4.2,0,0,1,0,5.937L93.671,129.435A6.3,6.3,0,0,1,89.192,131.305ZM71,106.762a4.2,4.2,0,1,0,0,8.4H90.592a1.4,1.4,0,0,1,.991,2.391l-4.91,4.887a3.546,3.546,0,0,0,0,5.016l0,0a3.639,3.639,0,0,0,5.019,0l15.516-15.516a1.4,1.4,0,0,0,0-1.979l-15.5-15.516a3.639,3.639,0,0,0-5.019,0,3.546,3.546,0,0,0,0,5.016l0,0,4.9,4.9a1.4,1.4,0,0,1-1,2.4H71Z" transform="translate(-55.603 -78.771)"/>
</svg>
