<svg id="Grupo_100240" data-name="Grupo 100240" xmlns="http://www.w3.org/2000/svg" width="146.515" height="256.546" viewBox="0 0 146.515 256.546">
  <g id="Grupo_100022" data-name="Grupo 100022">
    <g id="Grupo_100019" data-name="Grupo 100019">
      <g id="Grupo_100016" data-name="Grupo 100016">
        <path id="Trazado_107137" data-name="Trazado 107137" d="M178.176,264.619H66.145A17.263,17.263,0,0,1,48.9,247.377V25.314A17.263,17.263,0,0,1,66.145,8.072H178.176a17.263,17.263,0,0,1,17.242,17.242V247.377A17.263,17.263,0,0,1,178.176,264.619Z" transform="translate(-48.903 -8.072)" fill="#fff"/>
      </g>
      <g id="Grupo_100017" data-name="Grupo 100017">
        <path id="Trazado_107138" data-name="Trazado 107138" d="M178.176,264.619H66.145A17.263,17.263,0,0,1,48.9,247.377V25.314A17.263,17.263,0,0,1,66.145,8.072H178.176a17.263,17.263,0,0,1,17.242,17.242V247.377A17.263,17.263,0,0,1,178.176,264.619ZM66.145,11.221A14.109,14.109,0,0,0,52.057,25.314V247.377a14.106,14.106,0,0,0,14.088,14.092H178.176a14.107,14.107,0,0,0,14.092-14.092V25.314a14.11,14.11,0,0,0-14.092-14.092Z" transform="translate(-48.903 -8.072)"/>
      </g>
      <g id="Grupo_100018" data-name="Grupo 100018">
        <path id="Trazado_107139" data-name="Trazado 107139" d="M178.176,264.619H66.145A17.263,17.263,0,0,1,48.9,247.377V25.314A17.263,17.263,0,0,1,66.145,8.072H178.176a17.263,17.263,0,0,1,17.242,17.242V247.377A17.263,17.263,0,0,1,178.176,264.619ZM66.145,11.221A14.109,14.109,0,0,0,52.057,25.314V247.377a14.106,14.106,0,0,0,14.088,14.092H178.176a14.107,14.107,0,0,0,14.092-14.092V25.314a14.11,14.11,0,0,0-14.092-14.092Z" transform="translate(-48.903 -8.072)" fill="#4e4f4f"/>
      </g>
    </g>
    <g id="Grupo_100020" data-name="Grupo 100020" transform="translate(0 29.392)">
      <path id="Trazado_107140" data-name="Trazado 107140" d="M193.843,17.866H50.478a1.575,1.575,0,1,1,0-3.149H193.843a1.575,1.575,0,1,1,0,3.149Z" transform="translate(-48.903 -14.717)" fill="#4e4f4f"/>
    </g>
    <g id="Grupo_100021" data-name="Grupo 100021" transform="translate(0 222.74)">
      <path id="Trazado_107141" data-name="Trazado 107141" d="M193.843,61.583H50.478a1.577,1.577,0,0,1,0-3.154H193.843a1.577,1.577,0,0,1,0,3.154Z" transform="translate(-48.903 -58.429)" fill="#4e4f4f"/>
    </g>
  </g>
  <g id="Grupo_100030" data-name="Grupo 100030" transform="translate(3.111 32.54)">
    <rect id="Rectángulo_33978" data-name="Rectángulo 33978" width="140.252" height="190.198" fill="#f7fbfc"/>
    <g id="Grupo_100023" data-name="Grupo 100023" transform="translate(5.767 5.883)">
      <path id="Rectángulo_33979" data-name="Rectángulo 33979" d="M.036,0H128.685a.035.035,0,0,1,.035.035V20.052a.034.034,0,0,1-.034.034H.034A.034.034,0,0,1,0,20.052V.036A.036.036,0,0,1,.036,0Z" fill="#b4bcbe"/>
    </g>
    <g id="Grupo_100024" data-name="Grupo 100024" transform="translate(5.767 32.384)">
      <path id="Rectángulo_33980" data-name="Rectángulo 33980" d="M.034,0H128.685a.035.035,0,0,1,.035.035V20.048a.034.034,0,0,1-.034.034H.034A.034.034,0,0,1,0,20.048V.034A.034.034,0,0,1,.034,0Z" fill="#f9835b"/>
    </g>
    <g id="Grupo_100025" data-name="Grupo 100025" transform="translate(5.767 58.88)">
      <path id="Rectángulo_33981" data-name="Rectángulo 33981" d="M.034,0H128.685a.035.035,0,0,1,.035.035V20.047a.034.034,0,0,1-.034.034H.034A.034.034,0,0,1,0,20.047V.034A.034.034,0,0,1,.034,0Z" fill="#b4bcbe"/>
    </g>
    <g id="Grupo_100026" data-name="Grupo 100026" transform="translate(5.767 85.385)">
      <rect id="Rectángulo_33982" data-name="Rectángulo 33982" width="128.72" height="20.081" rx="0.034" fill="#b4bcbe"/>
    </g>
    <g id="Grupo_100027" data-name="Grupo 100027" transform="translate(5.786 111.76)">
      <rect id="Rectángulo_33983" data-name="Rectángulo 33983" width="128.72" height="20.082" rx="0.034" fill="#b4bcbe"/>
    </g>
    <g id="Grupo_100028" data-name="Grupo 100028" transform="translate(5.805 138.135)">
      <path id="Rectángulo_33984" data-name="Rectángulo 33984" d="M.034,0H128.685a.035.035,0,0,1,.035.035V20.048a.034.034,0,0,1-.034.034H.034A.034.034,0,0,1,0,20.048V.034A.034.034,0,0,1,.034,0Z" fill="#b4bcbe"/>
    </g>
    <g id="Grupo_100029" data-name="Grupo 100029" transform="translate(5.827 164.51)">
      <path id="Rectángulo_33985" data-name="Rectángulo 33985" d="M.034,0H128.686a.035.035,0,0,1,.035.035V20.048a.034.034,0,0,1-.034.034H.034A.034.034,0,0,1,0,20.048V.034A.034.034,0,0,1,.034,0Z" fill="#b4bcbe"/>
    </g>
  </g>
</svg>
