<svg xmlns="http://www.w3.org/2000/svg" xmlns:xlink="http://www.w3.org/1999/xlink" width="456.724" height="433.071" viewBox="0 0 456.724 433.071">
  <defs>
    <clipPath id="clip-path">
      <path id="Trazado_106869" data-name="Trazado 106869" d="M384.591,200.261s6.687,1.236,10.209,3.141,30.488,30.372,31.208,33.542a29.042,29.042,0,0,0,4.2,9.239c1.44,1.886,6.052,7.506,6.364,9.839s-.622,4.241-1.731,2.608-3.7-5.445-5.681-6.962-8.093-2.78-8.093-2.78a29.682,29.682,0,0,1-.426,5.7c-.524,2.743-2.585,5.1-2.78,3.638a39.07,39.07,0,0,1-.431-7.663c.233-2.7.193-7.449.193-7.449l.8-5.154s-17.84-11.277-24.551-14.834-12.879-7.484-12.879-7.484l-4.2-.33s.192-7.449,2.759-10.466A25.128,25.128,0,0,1,384.591,200.261Z" transform="translate(-376.792 -200.261)" fill="#4dd0e1" stroke="#263238" stroke-linecap="round" stroke-linejoin="round" stroke-width="1"/>
    </clipPath>
    <clipPath id="clip-path-2">
      <path id="Trazado_106880" data-name="Trazado 106880" d="M319.472,208.844c-15.9,5.065-15.108,4.96-15.108,4.96l-23.075,3.351,10.2,20.288,26.876,3.091S344.666,265.352,349.6,266.3s7.846,6.7,7.846,6.7-1.943,3.467.666,4.99,6.392,1.819,14.392-.319,19.413-8.743,24.735-12.929,12.936-9.214,10.519-11.3-7.162-3.586-7.162-3.586l-24.536-25.59,20.256,1.569s-.231-11.73.066-15.512,5.144-9.508,5.144-9.508-25.912-1.883-33.284-3.036-14.531-.731-17.543.741-16.683,5.171-17.471,5.276S319.472,208.844,319.472,208.844Z" transform="translate(-281.289 -197.12)" fill="#fff" stroke="#263238" stroke-miterlimit="10" stroke-width="1"/>
    </clipPath>
    <clipPath id="clip-path-3">
      <path id="Trazado_106889" data-name="Trazado 106889" d="M314.747,211.606s2.839,9.243,3.365,13.183-1.38,7.669.948,7.09,2.239-7.249,2.239-7.249l8.526,1.8,3.779-7.722s6.988,6.284,6.83,3.1-7.342-16.928-7.762-20.079-4.274-3.974-6.917-1.75S314.747,211.606,314.747,211.606Z" transform="translate(-314.747 -198.722)" fill="#4dd0e1" stroke="#263238" stroke-miterlimit="10" stroke-width="1"/>
    </clipPath>
    <clipPath id="clip-path-4">
      <path id="Trazado_106894" data-name="Trazado 106894" d="M305.511,209.617a74.2,74.2,0,0,0,8.212,3.446c3.065.928,18.267,18.676,17.74,14.737s-1.512-19.311-2.528-22.917a96.658,96.658,0,0,0-4.03-10.154s2.45-1.664-1.507-3.273-7.019,1.473-6.81,3.048.668,4.99-.349,5.392S305.511,209.617,305.511,209.617Z" transform="translate(-305.511 -191.004)" fill="#4dd0e1" stroke="#263238" stroke-miterlimit="10" stroke-width="1"/>
    </clipPath>
    <clipPath id="clip-path-5">
      <path id="Trazado_106905" data-name="Trazado 106905" d="M296.812,178.059s-2.4,8.378-1.923,9.612a27.72,27.72,0,0,1,1.087,4.133l-3.272,5.516s.543,2.065,1.628,2.188a16,16,0,0,1,3.7,1.645s3.154,11.606,4.275,11.991,3.695,1.645,4.675.98,12.936-9.214,14.371-10.475.855-7.6.855-7.6,3.676-4.5,2.2-7.512-4.815-2.03-5.848.247-1.416,3.4-1.416,3.4-2.556.876-3.029-.664l-.473-1.541s-4.466-3.412-4.57-4.2,1.468-9.017,1.468-9.017Z" transform="translate(-292.704 -176.759)" fill="#4dd0e1" stroke="#263238" stroke-miterlimit="10" stroke-width="1"/>
    </clipPath>
  </defs>
  <g id="Grupo_99763" data-name="Grupo 99763" transform="translate(-949.711 -125)">
    <g id="Grupo_99762" data-name="Grupo 99762" transform="translate(895.827 66.155)">
      <g id="Background_Simple" data-name="Background Simple" transform="translate(53.884 58.845)">
        <g id="Grupo_99726" data-name="Grupo 99726">
          <path id="Trazado_106828" data-name="Trazado 106828" d="M464.593,183.572c-7.114-5.778-14.646-11.073-21.734-16.888-33.47-27.461-52.528-68.123-90.835-90-40.741-23.269-93.56-23.765-135.272-1.528-46.4,24.735-62.11,78.771-99.679,113.722-58.208,54.155-78.248,115.08-51.529,168.267,19.385,38.59,70.347,62.246,108.147,76.83,46.948,18.114,94.12,53.135,145.038,57.517,43.387,3.733,87.127-17.179,107.521-56.983,11.58-22.6,32.678-37.23,50.129-54.743,45.956-46.118,44.371-133.96,2.835-182.315A112.482,112.482,0,0,0,464.593,183.572Z" transform="translate(-53.884 -58.845)" fill="#c6ff00"/>
          <path id="Trazado_106829" data-name="Trazado 106829" d="M464.593,183.572c-7.114-5.778-14.646-11.073-21.734-16.888-33.47-27.461-52.528-68.123-90.835-90-40.741-23.269-93.56-23.765-135.272-1.528-46.4,24.735-62.11,78.771-99.679,113.722-58.208,54.155-78.248,115.08-51.529,168.267,19.385,38.59,70.347,62.246,108.147,76.83,46.948,18.114,94.12,53.135,145.038,57.517,43.387,3.733,87.127-17.179,107.521-56.983,11.58-22.6,32.678-37.23,50.129-54.743,45.956-46.118,44.371-133.96,2.835-182.315A112.482,112.482,0,0,0,464.593,183.572Z" transform="translate(-53.884 -58.845)" fill="#ffca28" opacity="0.997"/>
        </g>
      </g>
      <g id="Device" transform="translate(53.884 119.373)">
        <g id="Grupo_99737" data-name="Grupo 99737">
          <path id="Trazado_106830" data-name="Trazado 106830" d="M228.027,447.312l-72.7-319.173c-11.492,17.136-23.091,34.346-38.25,48.447-58.208,54.155-78.248,115.08-51.529,168.267,19.385,38.59,70.347,62.246,108.147,76.83C191.7,428.632,209.749,438.07,228.027,447.312Z" transform="translate(-53.884 -107.083)" opacity="0.1"/>
          <g id="Grupo_99736" data-name="Grupo 99736" transform="translate(49.924)">
            <g id="Grupo_99727" data-name="Grupo 99727">
              <path id="Trazado_106831" data-name="Trazado 106831" d="M310.546,432.5,167.063,444.38c-4.129.343-8.232-3.1-9.165-7.679L96.865,136.411c-.931-4.583-2.808-13.2,13.856-14L255.842,111.2c4.129-.343,8.232,3.1,9.163,7.679l61.956,300.8C327.86,423.707,323.345,432.176,310.546,432.5Z" transform="translate(-96.287 -110.093)" fill="#1ca0b1"/>
              <path id="Trazado_106832" data-name="Trazado 106832" d="M319.82,427.166,176.338,439.049c-4.13.341-8.233-3.1-9.165-7.68L106.14,131.079c-.931-4.583,1.661-8.576,5.791-8.917l143.482-11.883c4.13-.341,8.233,3.1,9.165,7.679l61.034,300.292C326.543,422.831,323.95,426.825,319.82,427.166Z" transform="translate(-94.574 -110.255)" fill="#fff" stroke="#263238" stroke-linecap="round" stroke-linejoin="round" stroke-width="1"/>
              <path id="Trazado_106833" data-name="Trazado 106833" d="M187.887,131.305l-19.723,1.633a2.5,2.5,0,0,1-2.48-2.077h0a1.885,1.885,0,0,1,1.566-2.412l19.724-1.634a2.506,2.506,0,0,1,2.48,2.078h0A1.885,1.885,0,0,1,187.887,131.305Z" transform="translate(-83.988 -107.319)" fill="#263238"/>
              <path id="Trazado_106834" data-name="Trazado 106834" d="M309.658,396.125,171.246,407.588,116.495,138.213,149.3,135.5l4.381,3.093a7.586,7.586,0,0,0,4.963,1.458l57.885-4.794a6,6,0,0,0,4.34-2.376l2.675-3.529,31.362-2.6Z" transform="translate(-92.703 -107.329)" fill="#a9ebf4" stroke="#263238" stroke-linecap="round" stroke-linejoin="round" stroke-width="1"/>
              <path id="Trazado_106835" data-name="Trazado 106835" d="M227.927,367.643a3.892,3.892,0,0,0-3.855-3.231,2.931,2.931,0,0,0-2.436,3.751,3.894,3.894,0,0,0,3.855,3.231A2.93,2.93,0,0,0,227.927,367.643Z" transform="translate(-74.07 -65.18)" fill="#263238"/>
            </g>
            <g id="Grupo_99734" data-name="Grupo 99734" transform="translate(41.11 54.992)">
              <g id="Grupo_99728" data-name="Grupo 99728">
                <path id="Trazado_106836" data-name="Trazado 106836" d="M154.418,189.387l-14.79,1.224a5.033,5.033,0,0,1-4.984-4.177l-3.337-16.412c-.506-2.492.9-4.665,3.151-4.851l14.789-1.224a5.034,5.034,0,0,1,4.985,4.176l3.335,16.414C158.074,187.029,156.664,189.2,154.418,189.387Z" transform="translate(-131.205 -155.727)" fill="#fff" stroke="#fff" stroke-miterlimit="10" stroke-width="1"/>
                <path id="Trazado_106837" data-name="Trazado 106837" d="M182.478,187.063l-14.789,1.224a5.034,5.034,0,0,1-4.985-4.176L159.369,167.7c-.507-2.492.9-4.665,3.149-4.851l14.789-1.224a5.034,5.034,0,0,1,4.985,4.177l3.335,16.412C186.135,184.7,184.724,186.877,182.478,187.063Z" transform="translate(-126.228 -156.139)" fill="#fff" stroke="#fff" stroke-miterlimit="10" stroke-width="1"/>
                <path id="Trazado_106838" data-name="Trazado 106838" d="M210.538,184.739l-14.789,1.224a5.033,5.033,0,0,1-4.985-4.176l-3.335-16.414c-.507-2.492.9-4.663,3.149-4.85l14.79-1.226a5.034,5.034,0,0,1,4.984,4.177l3.337,16.412C214.195,182.382,212.784,184.553,210.538,184.739Z" transform="translate(-121.251 -156.551)" fill="#fff" stroke="#fff" stroke-miterlimit="10" stroke-width="1"/>
                <path id="Trazado_106839" data-name="Trazado 106839" d="M238.6,182.415l-14.79,1.226a5.036,5.036,0,0,1-4.985-4.177l-3.335-16.414c-.506-2.492.9-4.663,3.149-4.85l14.79-1.224a5.031,5.031,0,0,1,4.984,4.176l3.337,16.414C242.255,180.058,240.844,182.229,238.6,182.415Z" transform="translate(-116.275 -156.963)" fill="#fff" stroke="#fff" stroke-miterlimit="10" stroke-width="1"/>
              </g>
              <g id="Grupo_99729" data-name="Grupo 99729" transform="translate(7.673 37.75)">
                <path id="Trazado_106840" data-name="Trazado 106840" d="M160.935,221.45l-14.79,1.224a5.032,5.032,0,0,1-4.984-4.176l-3.337-16.414c-.506-2.492.9-4.663,3.149-4.851l14.79-1.224a5.036,5.036,0,0,1,4.985,4.177l3.335,16.412C164.59,219.093,163.18,221.264,160.935,221.45Z" transform="translate(-137.722 -187.79)" fill="#fff" stroke="#fff" stroke-miterlimit="10" stroke-width="1"/>
                <path id="Trazado_106841" data-name="Trazado 106841" d="M188.995,219.126l-14.79,1.226a5.034,5.034,0,0,1-4.984-4.177l-3.337-16.414c-.506-2.492.9-4.664,3.151-4.85l14.789-1.226a5.036,5.036,0,0,1,4.985,4.177l3.335,16.414C192.65,216.769,191.241,218.94,188.995,219.126Z" transform="translate(-132.745 -188.202)" fill="#fff" stroke="#fff" stroke-miterlimit="10" stroke-width="1"/>
                <path id="Trazado_106842" data-name="Trazado 106842" d="M245.115,214.479,230.326,215.7a5.034,5.034,0,0,1-4.985-4.177l-3.335-16.412c-.506-2.492.9-4.665,3.149-4.851l14.79-1.224a5.033,5.033,0,0,1,4.984,4.176l3.337,16.414C248.772,212.121,247.361,214.293,245.115,214.479Z" transform="translate(-122.792 -189.026)" fill="#fff" stroke="#fff" stroke-miterlimit="10" stroke-width="1"/>
              </g>
              <g id="Grupo_99730" data-name="Grupo 99730" transform="translate(15.346 75.499)">
                <path id="Trazado_106843" data-name="Trazado 106843" d="M167.451,253.514l-14.789,1.224a5.036,5.036,0,0,1-4.985-4.177l-3.335-16.412c-.506-2.494.9-4.665,3.149-4.851l14.79-1.224a5.032,5.032,0,0,1,4.984,4.176l3.337,16.413C171.108,251.156,169.7,253.327,167.451,253.514Z" transform="translate(-144.239 -219.853)" fill="#fff" stroke="#fff" stroke-miterlimit="10" stroke-width="1"/>
                <path id="Trazado_106844" data-name="Trazado 106844" d="M195.512,251.19l-14.79,1.224a5.032,5.032,0,0,1-4.984-4.177L172.4,231.825c-.506-2.492.9-4.665,3.149-4.851l14.79-1.224a5.034,5.034,0,0,1,4.985,4.176l3.335,16.414C199.167,248.832,197.758,251,195.512,251.19Z" transform="translate(-139.262 -220.265)" fill="#fff" stroke="#fff" stroke-miterlimit="10" stroke-width="1"/>
                <path id="Trazado_106845" data-name="Trazado 106845" d="M223.572,248.866l-14.79,1.224a5.033,5.033,0,0,1-4.984-4.176L200.461,229.5c-.506-2.492.9-4.665,3.151-4.851l14.789-1.224a5.034,5.034,0,0,1,4.985,4.177l3.335,16.412C227.229,246.508,225.818,248.68,223.572,248.866Z" transform="translate(-134.285 -220.677)" fill="#fff" stroke="#fff" stroke-miterlimit="10" stroke-width="1"/>
                <path id="Trazado_106846" data-name="Trazado 106846" d="M251.632,246.542l-14.789,1.224a5.034,5.034,0,0,1-4.985-4.176l-3.335-16.414c-.507-2.492.9-4.665,3.149-4.85l14.789-1.226a5.034,5.034,0,0,1,4.985,4.177l3.335,16.412C255.289,244.185,253.878,246.356,251.632,246.542Z" transform="translate(-129.309 -221.089)" fill="#fff" stroke="#fff" stroke-miterlimit="10" stroke-width="1"/>
              </g>
              <g id="Grupo_99731" data-name="Grupo 99731" transform="translate(23.018 113.25)">
                <path id="Trazado_106847" data-name="Trazado 106847" d="M173.968,285.577,159.179,286.8a5.034,5.034,0,0,1-4.985-4.176l-3.335-16.413c-.507-2.492.9-4.665,3.149-4.851l14.79-1.224a5.033,5.033,0,0,1,4.984,4.177l3.335,16.412C177.625,283.219,176.214,285.391,173.968,285.577Z" transform="translate(-150.755 -251.917)" fill="#fff" stroke="#fff" stroke-miterlimit="10" stroke-width="1"/>
                <path id="Trazado_106848" data-name="Trazado 106848" d="M202.028,283.253l-14.789,1.224a5.035,5.035,0,0,1-4.985-4.176l-3.335-16.414c-.506-2.492.9-4.665,3.149-4.851l14.79-1.224a5.032,5.032,0,0,1,4.984,4.177l3.337,16.412C205.685,280.9,204.274,283.067,202.028,283.253Z" transform="translate(-145.779 -252.329)" fill="#fff" stroke="#fff" stroke-miterlimit="10" stroke-width="1"/>
                <path id="Trazado_106849" data-name="Trazado 106849" d="M230.089,280.929l-14.79,1.226a5.035,5.035,0,0,1-4.984-4.177l-3.337-16.413c-.506-2.493.9-4.664,3.149-4.85l14.79-1.226a5.036,5.036,0,0,1,4.985,4.177l3.335,16.414C233.744,278.572,232.335,280.743,230.089,280.929Z" transform="translate(-140.802 -252.741)" fill="#fff" stroke="#fff" stroke-miterlimit="10" stroke-width="1"/>
                <path id="Trazado_106850" data-name="Trazado 106850" d="M258.149,278.605l-14.79,1.226a5.034,5.034,0,0,1-4.984-4.177l-3.337-16.412c-.506-2.494.9-4.665,3.151-4.851l14.789-1.224a5.033,5.033,0,0,1,4.985,4.176l3.335,16.414C261.806,276.248,260.4,278.419,258.149,278.605Z" transform="translate(-135.825 -253.153)" fill="#fff" stroke="#fff" stroke-miterlimit="10" stroke-width="1"/>
              </g>
              <g id="Grupo_99732" data-name="Grupo 99732" transform="translate(30.691 151)">
                <path id="Trazado_106851" data-name="Trazado 106851" d="M180.485,317.64,165.7,318.865a5.034,5.034,0,0,1-4.985-4.176l-3.335-16.414c-.507-2.492.9-4.664,3.149-4.851l14.789-1.224a5.035,5.035,0,0,1,4.985,4.177l3.335,16.412C184.142,315.283,182.731,317.454,180.485,317.64Z" transform="translate(-157.272 -283.98)" fill="#fff" stroke="#fff" stroke-miterlimit="10" stroke-width="1"/>
                <path id="Trazado_106852" data-name="Trazado 106852" d="M208.545,315.316l-14.789,1.226a5.035,5.035,0,0,1-4.985-4.177l-3.335-16.414c-.507-2.492.9-4.664,3.149-4.85l14.79-1.226a5.036,5.036,0,0,1,4.984,4.177l3.337,16.414C212.2,312.959,210.791,315.13,208.545,315.316Z" transform="translate(-152.296 -284.392)" fill="#fff" stroke="#fff" stroke-miterlimit="10" stroke-width="1"/>
                <path id="Trazado_106853" data-name="Trazado 106853" d="M236.606,312.993l-14.79,1.224a5.034,5.034,0,0,1-4.985-4.177L213.5,293.628c-.506-2.494.9-4.665,3.149-4.851l14.79-1.224a5.032,5.032,0,0,1,4.984,4.176l3.337,16.414C240.262,310.635,238.851,312.807,236.606,312.993Z" transform="translate(-147.319 -284.804)" fill="#fff" stroke="#fff" stroke-miterlimit="10" stroke-width="1"/>
                <path id="Trazado_106854" data-name="Trazado 106854" d="M264.666,310.669l-14.79,1.224a5.032,5.032,0,0,1-4.984-4.177L241.555,291.3c-.506-2.492.9-4.665,3.149-4.851l14.79-1.224a5.034,5.034,0,0,1,4.985,4.176l3.335,16.414C268.322,308.311,266.912,310.483,264.666,310.669Z" transform="translate(-142.342 -285.216)" fill="#fff" stroke="#fff" stroke-miterlimit="10" stroke-width="1"/>
              </g>
              <g id="Grupo_99733" data-name="Grupo 99733" transform="translate(38.363 188.749)">
                <path id="Trazado_106855" data-name="Trazado 106855" d="M187,349.7l-14.79,1.224a5.034,5.034,0,0,1-4.984-4.177l-3.337-16.412c-.506-2.494.9-4.665,3.151-4.851l14.789-1.224a5.035,5.035,0,0,1,4.985,4.176l3.335,16.414C190.658,347.346,189.248,349.517,187,349.7Z" transform="translate(-163.789 -316.043)" fill="#263238"/>
                <path id="Trazado_106856" data-name="Trazado 106856" d="M215.062,347.38,200.273,348.6a5.034,5.034,0,0,1-4.985-4.177l-3.335-16.412c-.507-2.494.9-4.665,3.149-4.851l14.789-1.224a5.034,5.034,0,0,1,4.985,4.176l3.335,16.414C218.719,345.022,217.308,347.194,215.062,347.38Z" transform="translate(-158.812 -316.455)" fill="#263238"/>
                <path id="Trazado_106857" data-name="Trazado 106857" d="M243.122,345.056l-14.789,1.224a5.035,5.035,0,0,1-4.985-4.176l-3.335-16.414c-.507-2.492.9-4.665,3.149-4.851l14.79-1.224a5.033,5.033,0,0,1,4.984,4.177l3.337,16.412C246.779,342.7,245.368,344.87,243.122,345.056Z" transform="translate(-153.835 -316.867)" fill="#263238"/>
                <path id="Trazado_106858" data-name="Trazado 106858" d="M271.183,342.732l-14.79,1.224a5.034,5.034,0,0,1-4.985-4.176l-3.335-16.414c-.506-2.492.9-4.665,3.149-4.85l14.79-1.226A5.034,5.034,0,0,1,271,321.469l3.337,16.412C274.838,340.375,273.428,342.546,271.183,342.732Z" transform="translate(-148.859 -317.279)" fill="#263238"/>
              </g>
            </g>
            <g id="Grupo_99735" data-name="Grupo 99735" transform="translate(101.205 81.71)">
              <path id="Trazado_106859" data-name="Trazado 106859" d="M229.407,231.368l-30.047,2.488c-4.563.378-9.1-3.421-10.126-8.485l-6.777-33.345c-1.029-5.065,1.835-9.477,6.4-9.854l30.047-2.489c4.563-.378,9.1,3.421,10.126,8.486l6.777,33.345C236.835,226.578,233.971,230.99,229.407,231.368Z" transform="translate(-182.247 -179.656)" fill="none" stroke="#263238" stroke-miterlimit="10" stroke-width="0.25"/>
              <path id="Trazado_106860" data-name="Trazado 106860" d="M225.835,227.156,200.2,229.279c-3.894.323-7.761-2.919-8.639-7.24l-5.782-28.45c-.878-4.321,1.566-8.085,5.459-8.407l25.635-2.123c3.894-.321,7.761,2.919,8.639,7.241l5.782,28.448C232.173,223.069,229.728,226.833,225.835,227.156Z" transform="translate(-181.652 -179.056)" fill="none" stroke="#263238" stroke-miterlimit="10" stroke-width="0.5"/>
              <path id="Trazado_106861" data-name="Trazado 106861" d="M221.12,221.6l-19.81,1.64c-3.009.25-6-2.256-6.677-5.595l-4.468-21.985c-.679-3.339,1.21-6.248,4.218-6.5l19.81-1.641c3.009-.248,6,2.256,6.677,5.595l4.468,21.985C226.018,218.438,224.128,221.346,221.12,221.6Z" transform="translate(-180.867 -178.264)" fill="none" stroke="#263238" stroke-miterlimit="10" stroke-width="0.75"/>
              <path id="Trazado_106862" data-name="Trazado 106862" d="M217.055,216.8l-14.789,1.226a5.035,5.035,0,0,1-4.985-4.177l-3.335-16.412c-.507-2.494.9-4.665,3.149-4.851l14.789-1.224a5.034,5.034,0,0,1,4.985,4.176l3.335,16.414C220.712,214.445,219.3,216.616,217.055,216.8Z" transform="translate(-180.191 -177.582)" fill="#263238"/>
            </g>
          </g>
        </g>
      </g>
      <g id="Character" transform="translate(232.178 172.508)">
        <g id="Grupo_99754" data-name="Grupo 99754">
          <path id="Trazado_106863" data-name="Trazado 106863" d="M420.246,166.45c-4.678-3.8-9.531-7.4-14.325-11.064L303.929,170.771l8.111,37.848,65.784,63.08-22.529,70.289,45.982,49.6c9.829-10.037,20.875-19.03,30.756-28.945,45.956-46.118,44.371-133.96,2.835-182.315A112.475,112.475,0,0,0,420.246,166.45Z" transform="translate(-187.831 -155.386)" fill="#ffa726"/>
          <g id="Grupo_99753" data-name="Grupo 99753" transform="translate(0 10.791)">
            <path id="Trazado_106864" data-name="Trazado 106864" d="M297.6,217.8s-54.069-12.554-57.1-13.218-15.548-4.337-18.472-4.214-13.429,1.527-15.425,2.6-1.329,2.049-.279,1.908l11.029-1.475,5.778,3.238s-3.565,3.487-3.762,5.849c-.493,5.9-.366,7.265.947,7.09s1.487-6.88,1.487-6.88l.98-.666.93,4.954s1.275,1.713,1.99-.228c.5-1.35-.486-4.516-.486-4.516l1.926-1.594s.491,4.111,1.419,4.622c.768.421,1.442,0,1.337-.786s-.57-3.841-.57-3.841l3.416-2.08s54.947,23.129,60.672,23.967a33,33,0,0,0,11.661-.756Z" transform="translate(-205.32 -158.199)" fill="#fff" stroke="#263238" stroke-linecap="round" stroke-linejoin="round" stroke-width="1"/>
            <path id="Trazado_106865" data-name="Trazado 106865" d="M418.4,242.054s-3.674,5.836-2.721,6.3,4.784-4.2,4.784-4.2l-1.885,5.894s-.137,1.206,2.042-.273,1.672-5.271,1.672-5.271l.234,6.2s-1.478,2.276.565,2,2.293-5.058,2.1-6.517a11.418,11.418,0,0,0-2.414-4.726C421.71,240.128,418.792,240.518,418.4,242.054Z" transform="translate(-168.039 -151.054)" fill="#fff" stroke="#263238" stroke-linecap="round" stroke-linejoin="round" stroke-width="1"/>
            <g id="Grupo_99739" data-name="Grupo 99739" transform="translate(201.884 42.043)">
              <path id="Trazado_106866" data-name="Trazado 106866" d="M384.591,200.261s6.687,1.236,10.209,3.141,30.488,30.372,31.208,33.542a29.042,29.042,0,0,0,4.2,9.239c1.44,1.886,6.052,7.506,6.364,9.839s-.622,4.241-1.731,2.608-3.7-5.445-5.681-6.962-8.093-2.78-8.093-2.78a29.682,29.682,0,0,1-.426,5.7c-.524,2.743-2.585,5.1-2.78,3.638a39.07,39.07,0,0,1-.431-7.663c.233-2.7.193-7.449.193-7.449l.8-5.154s-17.84-11.277-24.551-14.834-12.879-7.484-12.879-7.484l-4.2-.33s.192-7.449,2.759-10.466A25.128,25.128,0,0,1,384.591,200.261Z" transform="translate(-376.792 -200.261)" fill="#fff"/>
              <g id="Grupo_99738" data-name="Grupo 99738" clip-path="url(#clip-path)">
                <path id="Trazado_106867" data-name="Trazado 106867" d="M426.008,236.944c-.721-3.169-27.687-31.637-31.208-33.542s-10.209-3.141-10.209-3.141a25.128,25.128,0,0,0-5.04,4.585c-2.567,3.016-2.759,10.466-2.759,10.466l4.2.33s.8.509,2.124,1.319l3.088-8.923s29.99,22.492,32.988,25.117,6.226,7.214,8.623,10.122a19.327,19.327,0,0,0,1.52,1.586A30,30,0,0,1,426.008,236.944Z" transform="translate(-376.792 -200.261)" fill="#4dd0e1"/>
                <path id="Trazado_106868" data-name="Trazado 106868" d="M426.008,236.944c-.721-3.169-27.687-31.637-31.208-33.542s-10.209-3.141-10.209-3.141a25.128,25.128,0,0,0-5.04,4.585c-2.567,3.016-2.759,10.466-2.759,10.466l4.2.33s.8.509,2.124,1.319l3.088-8.923s29.99,22.492,32.988,25.117,6.226,7.214,8.623,10.122a19.327,19.327,0,0,0,1.52,1.586A30,30,0,0,1,426.008,236.944Z" transform="translate(-376.792 -200.261)" fill="#4dd0e1" opacity="0.5"/>
              </g>
              <path id="Trazado_106870" data-name="Trazado 106870" d="M384.591,200.261s6.687,1.236,10.209,3.141,30.488,30.372,31.208,33.542a29.042,29.042,0,0,0,4.2,9.239c1.44,1.886,6.052,7.506,6.364,9.839s-.622,4.241-1.731,2.608-3.7-5.445-5.681-6.962-8.093-2.78-8.093-2.78a29.682,29.682,0,0,1-.426,5.7c-.524,2.743-2.585,5.1-2.78,3.638a39.07,39.07,0,0,1-.431-7.663c.233-2.7.193-7.449.193-7.449l.8-5.154s-17.84-11.277-24.551-14.834-12.879-7.484-12.879-7.484l-4.2-.33s.192-7.449,2.759-10.466A25.128,25.128,0,0,1,384.591,200.261Z" transform="translate(-376.792 -200.261)" fill="none" stroke="#263238" stroke-linecap="round" stroke-linejoin="round" stroke-width="1"/>
            </g>
            <path id="Trazado_106871" data-name="Trazado 106871" d="M347.2,267.213l1.113,15s-5.567,49.445,5.544,63.7,46.988,51.627,46.988,51.627l5.638-6.692s-20.046-38.9-23.743-44.34-9.81-20.069-9.81-20.069,12.413-51.548,13.286-56.12.4-16.98.248-18.147-14.081,5.742-22.307,8.623S347.2,267.213,347.2,267.213Z" transform="translate(-180.207 -149.035)" fill="#263238" stroke="#263238" stroke-linecap="round" stroke-linejoin="round" stroke-width="1"/>
            <g id="Grupo_99740" data-name="Grupo 99740" transform="translate(153.51 98.866)">
              <path id="Trazado_106872" data-name="Trazado 106872" d="M370.464,271.526s-3.869,4.377-2.839,5.428l1.031,1.05s-21.736,28.443-24.594,35.952-8.472,25.483-8.356,26.357,3.795,3.948,6.167,3.928,75.8,5.014,75.8,5.014l1.69-7.353-53.338-16.926s32.059-46.749,33.556-51.107-.414-18.653-.688-20.694-3.035-4.94-5.37-4.628-22.4,14.576-22.4,14.576" transform="translate(-335.705 -248.524)" fill="#263238" stroke="#263238" stroke-linecap="round" stroke-linejoin="round" stroke-width="1"/>
              <path id="Trazado_106873" data-name="Trazado 106873" d="M347.335,300.986,366.1,273.063s3.393-8.664,14.788-10.918" transform="translate(-333.643 -246.109)" fill="none" stroke="#fff" stroke-linecap="round" stroke-linejoin="round" stroke-width="1"/>
              <path id="Trazado_106874" data-name="Trazado 106874" d="M365.127,265.976s14.649-10.73,22.933-8.913" transform="translate(-330.487 -247.047)" fill="none" stroke="#fff" stroke-linecap="round" stroke-linejoin="round" stroke-width="1"/>
              <line id="Línea_196" data-name="Línea 196" y1="28.065" x2="24.027" transform="translate(17.819 57.694)" fill="none" stroke="#fff" stroke-linecap="round" stroke-linejoin="round" stroke-width="1"/>
              <line id="Línea_197" data-name="Línea 197" x2="7.831" y2="1.878" transform="translate(26.868 76.045)" fill="none" stroke="#fff" stroke-linecap="round" stroke-linejoin="round" stroke-width="1"/>
            </g>
            <g id="Grupo_99743" data-name="Grupo 99743" transform="translate(89.443 38.345)">
              <g id="Grupo_99742" data-name="Grupo 99742">
                <path id="Trazado_106875" data-name="Trazado 106875" d="M319.472,208.844c-15.9,5.065-15.108,4.96-15.108,4.96l-23.075,3.351,10.2,20.288,26.876,3.091S344.666,265.352,349.6,266.3s7.846,6.7,7.846,6.7-1.943,3.467.666,4.99,6.392,1.819,14.392-.319,19.413-8.743,24.735-12.929,12.936-9.214,10.519-11.3-7.162-3.586-7.162-3.586l-24.536-25.59,20.256,1.569s-.231-11.73.066-15.512,5.144-9.508,5.144-9.508-25.912-1.883-33.284-3.036-14.531-.731-17.543.741-16.683,5.171-17.471,5.276S319.472,208.844,319.472,208.844Z" transform="translate(-281.289 -197.12)" fill="#fff"/>
                <g id="Grupo_99741" data-name="Grupo 99741" clip-path="url(#clip-path-2)">
                  <path id="Trazado_106876" data-name="Trazado 106876" d="M360.651,197.782c-7.37-1.153-14.531-.731-17.543.741s-16.683,5.171-17.471,5.276a15.651,15.651,0,0,0-1.529.493l2.666,7.592,7.3-2.165s14.995-3.373,21.743-3.373,32.613,2.249,32.613,2.249l.821-.182a30.823,30.823,0,0,1,4.688-7.593S368.022,198.935,360.651,197.782Z" transform="translate(-273.695 -197.12)" fill="#c6ff00"/>
                  <path id="Trazado_106877" data-name="Trazado 106877" d="M360.651,197.782c-7.37-1.153-14.531-.731-17.543.741s-16.683,5.171-17.471,5.276a15.651,15.651,0,0,0-1.529.493l2.666,7.592,7.3-2.165s14.995-3.373,21.743-3.373,32.613,2.249,32.613,2.249l.821-.182a30.823,30.823,0,0,1,4.688-7.593S368.022,198.935,360.651,197.782Z" transform="translate(-273.695 -197.12)" fill="#4dd0e1"/>
                  <path id="Trazado_106878" data-name="Trazado 106878" d="M398.674,249.446c-2.417-2.083-7.162-3.586-7.162-3.586l-23.159-24.152-6.121-2.04L340.648,223.2l37.865,14.443c-.688.135-2.183.478-5.292,1.255-7.848,1.963-32.181,0-32.181,0s18.446,7.456,27.865,10.988,12.951,2.748,7.456,5.495S364.2,259.7,345.75,258.126c-4.807-.409-9.262-.764-13.23-1.067,3.627,2.885,6.631,4.977,8,5.238,4.938.943,7.846,6.7,7.846,6.7s-1.943,3.467.666,4.99,6.392,1.819,14.392-.32,19.413-8.742,24.735-12.927S401.092,251.529,398.674,249.446Z" transform="translate(-272.203 -193.121)" fill="#c6ff00"/>
                  <path id="Trazado_106879" data-name="Trazado 106879" d="M398.674,249.446c-2.417-2.083-7.162-3.586-7.162-3.586l-23.159-24.152-6.121-2.04L340.648,223.2l37.865,14.443c-.688.135-2.183.478-5.292,1.255-7.848,1.963-32.181,0-32.181,0s18.446,7.456,27.865,10.988,12.951,2.748,7.456,5.495S364.2,259.7,345.75,258.126c-4.807-.409-9.262-.764-13.23-1.067,3.627,2.885,6.631,4.977,8,5.238,4.938.943,7.846,6.7,7.846,6.7s-1.943,3.467.666,4.99,6.392,1.819,14.392-.32,19.413-8.742,24.735-12.927S401.092,251.529,398.674,249.446Z" transform="translate(-272.203 -193.121)" fill="#4dd0e1" opacity="0.999"/>
                </g>
                <path id="Trazado_106881" data-name="Trazado 106881" d="M319.472,208.844c-15.9,5.065-15.108,4.96-15.108,4.96l-23.075,3.351,10.2,20.288,26.876,3.091S344.666,265.352,349.6,266.3s7.846,6.7,7.846,6.7-1.943,3.467.666,4.99,6.392,1.819,14.392-.319,19.413-8.743,24.735-12.929,12.936-9.214,10.519-11.3-7.162-3.586-7.162-3.586l-24.536-25.59,20.256,1.569s-.231-11.73.066-15.512,5.144-9.508,5.144-9.508-25.912-1.883-33.284-3.036-14.531-.731-17.543.741-16.683,5.171-17.471,5.276S319.472,208.844,319.472,208.844Z" transform="translate(-281.289 -197.12)" fill="none" stroke="#263238" stroke-miterlimit="10" stroke-width="1"/>
              </g>
              <path id="Trazado_106882" data-name="Trazado 106882" d="M327.54,222.912l9.805,13.742,2.566-2.335-7.151-8.784" transform="translate(-273.086 -192.546)" fill="#fff" stroke="#263238" stroke-linecap="round" stroke-linejoin="round" stroke-width="1"/>
              <path id="Trazado_106883" data-name="Trazado 106883" d="M301.948,222.723l14.081,13.27-21.591-13.152" transform="translate(-278.957 -192.579)" fill="none" stroke="#263238" stroke-linecap="round" stroke-linejoin="round" stroke-width="1"/>
              <line id="Línea_198" data-name="Línea 198" x1="17.486" y1="3.154" transform="translate(77.287 23.994)" fill="none" stroke="#263238" stroke-linecap="round" stroke-linejoin="round" stroke-width="1"/>
              <line id="Línea_199" data-name="Línea 199" x1="17.601" y2="0.803" transform="translate(75.36 26.991)" fill="none" stroke="#263238" stroke-linecap="round" stroke-linejoin="round" stroke-width="1"/>
              <path id="Trazado_106884" data-name="Trazado 106884" d="M375,241.746q1.312-.108,2.6-.279" transform="translate(-264.669 -189.255)" fill="#fff" stroke="#263238" stroke-linecap="round" stroke-linejoin="round" stroke-width="1"/>
              <path id="Trazado_106885" data-name="Trazado 106885" d="M347.482,238.484s15.383,4.532,30.01,3.936" transform="translate(-269.549 -189.784)" fill="none" stroke="#263238" stroke-linecap="round" stroke-linejoin="round" stroke-width="1"/>
            </g>
            <g id="Grupo_99745" data-name="Grupo 99745" transform="translate(128.835 40.231)">
              <path id="Trazado_106886" data-name="Trazado 106886" d="M314.747,211.606s2.839,9.243,3.365,13.183-1.38,7.669.948,7.09,2.239-7.249,2.239-7.249l8.526,1.8,3.779-7.722s6.988,6.284,6.83,3.1-7.342-16.928-7.762-20.079-4.274-3.974-6.917-1.75S314.747,211.606,314.747,211.606Z" transform="translate(-314.747 -198.722)" fill="#4dd0e1"/>
              <g id="Grupo_99744" data-name="Grupo 99744" clip-path="url(#clip-path-3)">
                <path id="Trazado_106887" data-name="Trazado 106887" d="M331.174,201.727c-.421-3.152-4.274-3.974-6.917-1.75-.288.244-.655.584-1.061.976l3.739,10.646,7.205-2.138C332.651,206.078,331.346,203.015,331.174,201.727Z" transform="translate(-313.249 -198.722)" fill="#4dd0e1"/>
                <path id="Trazado_106888" data-name="Trazado 106888" d="M331.174,201.727c-.421-3.152-4.274-3.974-6.917-1.75-.288.244-.655.584-1.061.976l3.739,10.646,7.205-2.138C332.651,206.078,331.346,203.015,331.174,201.727Z" transform="translate(-313.249 -198.722)" fill="#4dd0e1" opacity="0.5"/>
              </g>
              <path id="Trazado_106890" data-name="Trazado 106890" d="M314.747,211.606s2.839,9.243,3.365,13.183-1.38,7.669.948,7.09,2.239-7.249,2.239-7.249l8.526,1.8,3.779-7.722s6.988,6.284,6.83,3.1-7.342-16.928-7.762-20.079-4.274-3.974-6.917-1.75S314.747,211.606,314.747,211.606Z" transform="translate(-314.747 -198.722)" fill="#4dd0e1" stroke="#263238" stroke-miterlimit="10" stroke-width="1"/>
            </g>
            <g id="Grupo_99747" data-name="Grupo 99747" transform="translate(117.961 31.144)">
              <path id="Trazado_106891" data-name="Trazado 106891" d="M305.511,209.617a74.2,74.2,0,0,0,8.212,3.446c3.065.928,18.267,18.676,17.74,14.737s-1.512-19.311-2.528-22.917a96.658,96.658,0,0,0-4.03-10.154s2.45-1.664-1.507-3.273-7.019,1.473-6.81,3.048.668,4.99-.349,5.392S305.511,209.617,305.511,209.617Z" transform="translate(-305.511 -191.004)" fill="#fff"/>
              <g id="Grupo_99746" data-name="Grupo 99746" clip-path="url(#clip-path-4)">
                <path id="Trazado_106892" data-name="Trazado 106892" d="M328.6,204.883a96.66,96.66,0,0,0-4.03-10.154s2.45-1.664-1.507-3.273-7.019,1.473-6.81,3.048.668,4.99-.349,5.392c-.673.267-5.176,4.459-8.13,7.249l-.357,2.158,22.318,3.664A63.751,63.751,0,0,0,328.6,204.883Z" transform="translate(-305.173 -191.004)" fill="#4dd0e1"/>
                <path id="Trazado_106893" data-name="Trazado 106893" d="M328.6,204.883a96.66,96.66,0,0,0-4.03-10.154s2.45-1.664-1.507-3.273-7.019,1.473-6.81,3.048.668,4.99-.349,5.392c-.673.267-5.176,4.459-8.13,7.249l-.357,2.158,22.318,3.664A63.751,63.751,0,0,0,328.6,204.883Z" transform="translate(-305.173 -191.004)" fill="#4dd0e1" opacity="0.5"/>
              </g>
              <path id="Trazado_106895" data-name="Trazado 106895" d="M305.511,209.617a74.2,74.2,0,0,0,8.212,3.446c3.065.928,18.267,18.676,17.74,14.737s-1.512-19.311-2.528-22.917a96.658,96.658,0,0,0-4.03-10.154s2.45-1.664-1.507-3.273-7.019,1.473-6.81,3.048.668,4.99-.349,5.392S305.511,209.617,305.511,209.617Z" transform="translate(-305.511 -191.004)" fill="none" stroke="#263238" stroke-miterlimit="10" stroke-width="1"/>
            </g>
            <g id="Grupo_99748" data-name="Grupo 99748" transform="translate(98.753)">
              <path id="Trazado_106896" data-name="Trazado 106896" d="M299.518,181.817s-5.2-.909-8.439-3.149-2-6.95,1.468-9.017,7.614-5.026,12.149-5.1,5.989,4.813,9.21,4.917,11.8-3.715,16.6.187,4.225,17.612,2.475,20.519-5.179,9.246-5.179,9.246-2.767-.7-4.973-1.207-.77-1.768-3.1-1.189-4.656,1.156-6.74-.436-2.593-3.4-3.853-4.831-3.556-4.6-3.171-5.724a22.574,22.574,0,0,0,.524-4.08Z" transform="translate(-289.197 -164.551)" fill="#263238" stroke="#263238" stroke-miterlimit="10" stroke-width="1"/>
              <path id="Trazado_106897" data-name="Trazado 106897" d="M309.552,177.238s12.016,1.093,16.966,5.827" transform="translate(-285.587 -162.301)" fill="none" stroke="#fff" stroke-linecap="round" stroke-linejoin="round" stroke-width="1"/>
              <path id="Trazado_106898" data-name="Trazado 106898" d="M321.665,184.342a17.792,17.792,0,0,1,2.476,1.81" transform="translate(-283.439 -161.041)" fill="none" stroke="#fff" stroke-linecap="round" stroke-linejoin="round" stroke-width="1"/>
              <path id="Trazado_106899" data-name="Trazado 106899" d="M309.553,180.675a39.31,39.31,0,0,1,10.554,2.48" transform="translate(-285.587 -161.692)" fill="none" stroke="#fff" stroke-linecap="round" stroke-linejoin="round" stroke-width="1"/>
              <path id="Trazado_106900" data-name="Trazado 106900" d="M319.964,176.276a11.588,11.588,0,0,1,3.345,2.824" transform="translate(-283.741 -162.472)" fill="none" stroke="#fff" stroke-linecap="round" stroke-linejoin="round" stroke-width="1"/>
              <path id="Trazado_106901" data-name="Trazado 106901" d="M297.415,170.443s-5.37,4.226-1.835,6.451,6.714-2.246,17.493-2.338a23.068,23.068,0,0,1,9.4,1.719" transform="translate(-288.279 -163.506)" fill="none" stroke="#fff" stroke-linecap="round" stroke-linejoin="round" stroke-width="1"/>
            </g>
            <g id="Grupo_99750" data-name="Grupo 99750" transform="translate(102.882 14.373)">
              <path id="Trazado_106902" data-name="Trazado 106902" d="M296.812,178.059s-2.4,8.378-1.923,9.612a27.72,27.72,0,0,1,1.087,4.133l-3.272,5.516s.543,2.065,1.628,2.188a16,16,0,0,1,3.7,1.645s3.154,11.606,4.275,11.991,3.695,1.645,4.675.98,12.936-9.214,14.371-10.475.855-7.6.855-7.6,3.676-4.5,2.2-7.512-4.815-2.03-5.848.247-1.416,3.4-1.416,3.4-2.556.876-3.029-.664l-.473-1.541s-4.466-3.412-4.57-4.2,1.468-9.017,1.468-9.017Z" transform="translate(-292.704 -176.759)" fill="#fff"/>
              <g id="Grupo_99749" data-name="Grupo 99749" clip-path="url(#clip-path-5)">
                <path id="Trazado_106903" data-name="Trazado 106903" d="M322.744,188.537c-1.472-3.011-4.815-2.03-5.848.247s-1.416,3.4-1.416,3.4-2.556.876-3.029-.664l-.473-1.541s-4.466-3.412-4.57-4.2,1.468-9.017,1.468-9.017l-4.061.384c-1.813,4.57-3.383,9.581-2.451,11.445,1.874,3.749,3.749,5.623,3.749,8.247s1.5,4.873,1.874,7.122c.3,1.8-2.763,7.927-3.995,10.295a1.9,1.9,0,0,0,1.323-.13c.98-.666,12.936-9.214,14.371-10.475s.855-7.6.855-7.6S324.216,191.549,322.744,188.537Z" transform="translate(-291.04 -176.759)" fill="#4dd0e1"/>
                <path id="Trazado_106904" data-name="Trazado 106904" d="M322.744,188.537c-1.472-3.011-4.815-2.03-5.848.247s-1.416,3.4-1.416,3.4-2.556.876-3.029-.664l-.473-1.541s-4.466-3.412-4.57-4.2,1.468-9.017,1.468-9.017l-4.061.384c-1.813,4.57-3.383,9.581-2.451,11.445,1.874,3.749,3.749,5.623,3.749,8.247s1.5,4.873,1.874,7.122c.3,1.8-2.763,7.927-3.995,10.295a1.9,1.9,0,0,0,1.323-.13c.98-.666,12.936-9.214,14.371-10.475s.855-7.6.855-7.6S324.216,191.549,322.744,188.537Z" transform="translate(-291.04 -176.759)" fill="#4dd0e1" opacity="0.5"/>
              </g>
              <path id="Trazado_106906" data-name="Trazado 106906" d="M296.812,178.059s-2.4,8.378-1.923,9.612a27.72,27.72,0,0,1,1.087,4.133l-3.272,5.516s.543,2.065,1.628,2.188a16,16,0,0,1,3.7,1.645s3.154,11.606,4.275,11.991,3.695,1.645,4.675.98,12.936-9.214,14.371-10.475.855-7.6.855-7.6,3.676-4.5,2.2-7.512-4.815-2.03-5.848.247-1.416,3.4-1.416,3.4-2.556.876-3.029-.664l-.473-1.541s-4.466-3.412-4.57-4.2,1.468-9.017,1.468-9.017Z" transform="translate(-292.704 -176.759)" fill="none" stroke="#263238" stroke-miterlimit="10" stroke-width="1"/>
            </g>
            <path id="Trazado_106907" data-name="Trazado 106907" d="M223.864,203.418s-4.971,2.8-6.966,3.872-4.919,1.191-3.956,2.4,6.3-.843,6.3-.843,6.146-.019,8.509-.334a4.053,4.053,0,0,0,3.133-2.557" transform="translate(-204.002 -157.658)" fill="#fff" stroke="#263238" stroke-linecap="round" stroke-linejoin="round" stroke-width="1"/>
            <g id="Grupo_99751" data-name="Grupo 99751" transform="translate(212.739 241.807)">
              <path id="Trazado_106908" data-name="Trazado 106908" d="M393.907,376.625l-.56,11.359s-6.745,13.968-7.211,14.921.39,2.918,2.646,2.023,7-5.39,9.684-7.53,6.727-7.433,9.159-9.242,5.172-5.74,5.054-6.614-13.132-11.608-13.132-11.608Z" transform="translate(-386.012 -369.933)" fill="#4dd0e1" stroke="#263238" stroke-linecap="round" stroke-linejoin="round" stroke-width="1"/>
              <path id="Trazado_106909" data-name="Trazado 106909" d="M407.529,386.656c2.43-1.81,5.172-5.74,5.054-6.614a7.494,7.494,0,0,0-1.531-1.655c-1.766,1.951-5.293,5.835-8.445,9.225-3.566,3.836-12.692,12.486-16.064,15.665a2.027,2.027,0,0,0,2.143.153c2.256-.9,7-5.39,9.684-7.53S405.1,388.465,407.529,386.656Z" transform="translate(-385.918 -368.434)" fill="#263238" stroke="#263238" stroke-linecap="round" stroke-linejoin="round" stroke-width="1"/>
            </g>
            <g id="Grupo_99752" data-name="Grupo 99752" transform="translate(235.48 190.665)">
              <path id="Trazado_106910" data-name="Trazado 106910" d="M405.327,335.426l6.265,6.883,9.81,20.07s2.45.563,3.539-.177-.766-25.732-1.273-29.525.173-5.369-1.4-6.049-15.249,1.445-15.249,1.445Z" transform="translate(-405.327 -326.495)" fill="#4dd0e1" stroke="#263238" stroke-linecap="round" stroke-linejoin="round" stroke-width="1"/>
              <path id="Trazado_106911" data-name="Trazado 106911" d="M419.994,326.629a5.732,5.732,0,0,0-1.861-.122c.774,6.935,2.734,24.428,3.232,28.151a44.623,44.623,0,0,1,.166,7.894,2.509,2.509,0,0,0,1.138-.348c1.089-.739-.766-25.732-1.273-29.525S421.57,327.31,419.994,326.629Z" transform="translate(-403.056 -326.495)" fill="#263238" stroke="#263238" stroke-linecap="round" stroke-linejoin="round" stroke-width="1"/>
            </g>
          </g>
        </g>
      </g>
      <g id="Graphics" transform="translate(72.229 74.984)">
        <g id="Grupo_99761" data-name="Grupo 99761">
          <g id="Grupo_99760" data-name="Grupo 99760">
            <g id="Grupo_99755" data-name="Grupo 99755" transform="translate(29.259 210.488)">
              <line id="Línea_200" data-name="Línea 200" y2="10.443" transform="translate(5.222)" fill="none" stroke="#263238" stroke-linecap="round" stroke-linejoin="round" stroke-width="1"/>
              <line id="Línea_201" data-name="Línea 201" x1="10.443" transform="translate(0 5.222)" fill="none" stroke="#263238" stroke-linecap="round" stroke-linejoin="round" stroke-width="1"/>
            </g>
            <g id="Grupo_99756" data-name="Grupo 99756" transform="translate(320.241 80.845)">
              <line id="Línea_202" data-name="Línea 202" y2="10.443" transform="translate(5.222)" fill="none" stroke="#263238" stroke-linecap="round" stroke-linejoin="round" stroke-width="1"/>
              <line id="Línea_203" data-name="Línea 203" x1="10.443" transform="translate(0 5.222)" fill="none" stroke="#263238" stroke-linecap="round" stroke-linejoin="round" stroke-width="1"/>
            </g>
            <g id="Grupo_99757" data-name="Grupo 99757" transform="translate(303.703 353.33)">
              <line id="Línea_204" data-name="Línea 204" y2="10.443" transform="translate(5.222)" fill="none" stroke="#263238" stroke-linecap="round" stroke-linejoin="round" stroke-width="1"/>
              <line id="Línea_205" data-name="Línea 205" x1="10.443" transform="translate(0 5.222)" fill="none" stroke="#263238" stroke-linecap="round" stroke-linejoin="round" stroke-width="1"/>
            </g>
            <g id="Grupo_99758" data-name="Grupo 99758" transform="translate(171.894)">
              <line id="Línea_206" data-name="Línea 206" y2="10.443" transform="translate(5.222)" fill="none" stroke="#263238" stroke-linecap="round" stroke-linejoin="round" stroke-width="1"/>
              <line id="Línea_207" data-name="Línea 207" x1="10.443" transform="translate(0 5.222)" fill="none" stroke="#263238" stroke-linecap="round" stroke-linejoin="round" stroke-width="1"/>
            </g>
            <g id="Grupo_99759" data-name="Grupo 99759" transform="translate(0 287.275)">
              <line id="Línea_208" data-name="Línea 208" y2="10.443" transform="translate(5.222)" fill="none" stroke="#263238" stroke-linecap="round" stroke-linejoin="round" stroke-width="1"/>
              <line id="Línea_209" data-name="Línea 209" x1="10.443" transform="translate(0 5.222)" fill="none" stroke="#263238" stroke-linecap="round" stroke-linejoin="round" stroke-width="1"/>
            </g>
            <circle id="Elipse_1736" data-name="Elipse 1736" cx="8.634" cy="8.634" r="8.634" transform="translate(301.772 49.632) rotate(-76.76)" fill="none" stroke="#263238" stroke-linecap="round" stroke-linejoin="round" stroke-width="1"/>
            <circle id="Elipse_1737" data-name="Elipse 1737" cx="8.634" cy="8.634" r="8.634" transform="translate(3.688 222.717) rotate(-22.5)" fill="none" stroke="#263238" stroke-linecap="round" stroke-linejoin="round" stroke-width="1"/>
            <path id="Trazado_106912" data-name="Trazado 106912" d="M375.855,184.544a1.963,1.963,0,1,1-1.963-1.961A1.963,1.963,0,0,1,375.855,184.544Z" transform="translate(-15.822 -53.038)" fill="none" stroke="#263238" stroke-linecap="round" stroke-linejoin="round" stroke-width="1"/>
            <path id="Trazado_106913" data-name="Trazado 106913" d="M319.2,387.384a1.962,1.962,0,1,1-1.961-1.963A1.963,1.963,0,0,1,319.2,387.384Z" transform="translate(-25.871 -17.064)" fill="none" stroke="#263238" stroke-linecap="round" stroke-linejoin="round" stroke-width="1"/>
            <path id="Trazado_106914" data-name="Trazado 106914" d="M410.834,293.75a1.962,1.962,0,1,1-1.963-1.963A1.962,1.962,0,0,1,410.834,293.75Z" transform="translate(-9.618 -33.67)" fill="none" stroke="#263238" stroke-linecap="round" stroke-linejoin="round" stroke-width="1"/>
            <path id="Trazado_106915" data-name="Trazado 106915" d="M318.526,269.328a1.962,1.962,0,1,1-1.961-1.961A1.962,1.962,0,0,1,318.526,269.328Z" transform="translate(-25.989 -38.001)" fill="none" stroke="#263238" stroke-linecap="round" stroke-linejoin="round" stroke-width="1"/>
            <path id="Trazado_106916" data-name="Trazado 106916" d="M202.478,87.39a1.962,1.962,0,1,1-1.961-1.963A1.962,1.962,0,0,1,202.478,87.39Z" transform="translate(-46.571 -70.27)" fill="none" stroke="#263238" stroke-linecap="round" stroke-linejoin="round" stroke-width="1"/>
          </g>
        </g>
      </g>
    </g>
    <g id="android" transform="translate(1132.333 149.651)">
      <path id="Trazado_106924" data-name="Trazado 106924" d="M53.07,0A53.07,53.07,0,1,1,0,53.07,53.07,53.07,0,0,1,53.07,0Z" transform="translate(0 0.208)" fill="#12263f"/>
      <path id="Trazado_106917" data-name="Trazado 106917" d="M137.522,159.631a53.152,53.152,0,0,0,51.015-52.975L151.087,69.205l-6.635,7.349-10.9,1.353L122.993,67.353,124.518,76,113.465,92.966l7.841,7.841-2.408,2.278L110.313,94.5l-6.535,27.944,22.17,22.17-2.263.658Z" transform="translate(-82.23 -53.329)" fill="#37495f"/>
      <path id="Trazado_106918" data-name="Trazado 106918" d="M99.4,190.708h0a4.9,4.9,0,0,0-4.9,4.9v20.682a4.9,4.9,0,0,0,4.9,4.9h0a4.9,4.9,0,0,0,4.9-4.9V195.609A4.9,4.9,0,0,0,99.4,190.708Z" transform="translate(-74.878 -151.071)" fill="#fff"/>
      <path id="Trazado_106919" data-name="Trazado 106919" d="M375.189,190.708h0a4.9,4.9,0,0,0-4.9,4.9v20.682a4.9,4.9,0,0,0,4.9,4.9h0a4.9,4.9,0,0,0,4.9-4.9V195.609A4.9,4.9,0,0,0,375.189,190.708Z" transform="translate(-293.403 -151.071)" fill="#e6e6e6"/>
      <path id="Trazado_106920" data-name="Trazado 106920" d="M184.406,75.253l3.648-6.047-3.071-1.852-3.743,6.206a21.98,21.98,0,0,0-8.768-1.813h0a21.976,21.976,0,0,0-8.768,1.813l-3.743-6.206-3.071,1.852,3.648,6.048a22.042,22.042,0,0,0-10.1,17.713H194.51A22.041,22.041,0,0,0,184.406,75.253ZM162.489,84.6a2.241,2.241,0,1,1,2.241-2.241A2.241,2.241,0,0,1,162.489,84.6Zm19.725,0a2.241,2.241,0,1,1,2.241-2.241A2.241,2.241,0,0,1,182.214,84.6Z" transform="translate(-119.197 -53.329)" fill="#fff"/>
      <path id="Trazado_106921" data-name="Trazado 106921" d="M268.318,75.254l3.648-6.047-3.071-1.852-3.743,6.206a21.98,21.98,0,0,0-8.768-1.813h-.05V92.967h22.09A22.041,22.041,0,0,0,268.318,75.254ZM266.126,84.6a2.241,2.241,0,1,1,2.241-2.241A2.241,2.241,0,0,1,266.126,84.6Z" transform="translate(-203.109 -53.329)" fill="#e6e6e6"/>
      <path id="Trazado_106922" data-name="Trazado 106922" d="M149.773,240.971H158.5v10.939a4.9,4.9,0,0,0,4.9,4.9h0a4.9,4.9,0,0,0,4.9-4.9V240.971h6.814v10.939a4.9,4.9,0,0,0,4.9,4.9h0a4.9,4.9,0,0,0,4.9-4.9V240.971h8.966v-34.43H149.773Z" transform="translate(-118.675 -163.616)" fill="#fff"/>
      <path id="Trazado_106923" data-name="Trazado 106923" d="M256.333,206.541v34.43h3.218v10.939a4.9,4.9,0,0,0,4.9,4.9h0a4.9,4.9,0,0,0,4.9-4.9V240.971h8.966v-34.43Z" transform="translate(-203.109 -163.616)" fill="#e6e6e6"/>
    </g>
  </g>
</svg>
